<?xml version="1.0" standalone="no"?>
<!DOCTYPE svg PUBLIC "-//W3C//DTD SVG 1.1//EN" "http://www.w3.org/Graphics/SVG/1.1/DTD/svg11.dtd" >
<svg xmlns="http://www.w3.org/2000/svg" xmlns:xlink="http://www.w3.org/1999/xlink" version="1.1">
<metadata>
Created by FontForge 20170731 at Mon Mar  6 12:36:47 2017
 By Aleksey,,,
Generated in 2017 by FontLab Studio. Copyright info pending.
</metadata>
<defs>
<font id="JennaSuePro" horiz-adv-x="271" >
  <font-face 
    font-family="Jenna Sue Pro"
    font-weight="400"
    font-stretch="normal"
    units-per-em="1000"
    panose-1="2 0 0 0 0 0 0 0 0 0"
    ascent="750"
    descent="-250"
    x-height="300"
    cap-height="708"
    bbox="-199 -386 743 873"
    underline-thickness="50"
    underline-position="-200"
    unicode-range="U+0020-2212"
  />
<missing-glyph horiz-adv-x="134" 
 />
    <glyph glyph-name=".notdef" horiz-adv-x="134" 
 />
    <glyph glyph-name=".null" horiz-adv-x="0" 
 />
    <glyph glyph-name="nonmarkingreturn" horiz-adv-x="333" 
 />
    <glyph glyph-name="space" unicode=" " horiz-adv-x="160" 
 />
    <glyph glyph-name="space" unicode="&#xa0;" horiz-adv-x="160" 
 />
    <glyph glyph-name="exclam" unicode="!" horiz-adv-x="252" 
d="M162 48q4 -8 4 -14q0 -10 -10 -22t-27 -12q-29 0 -29 22q0 31 35 31q12 0 27 -5zM48 703q0 7 8 7q20 0 36 -21q2 -41 21 -263t19 -265q0 -12 -1 -14q-2 1 -7 1q-1 0 -5 -0.5t-6 -0.5q-13 0 -21 17q0 37 -1 71.5t-2 60.5t-3 57.5t-3 49t-4.5 50t-4.5 44.5t-5.5 48.5
t-5.5 46.5t-7 54.5t-8 56.5z" />
    <glyph glyph-name="quotedbl" unicode="&#x22;" horiz-adv-x="171" 
d="M126 635q0 -21 7 -60.5t7 -48.5q0 -10 -4 -11q-31 0 -40 135q4 3 9 3q11 0 21 -18zM33 697q10 0 13 -1t11 -9q-3 -27 -3 -51q0 -49 18 -135q-3 -3 -10 -3q-16 0 -25 9q-5 23 -7.5 63.5t-4 69t-3.5 29.5q0 27 11 28z" />
    <glyph glyph-name="numbersign" unicode="#" horiz-adv-x="557" 
d="M329 373q24 4 57.5 10t53.5 9t39 3q16 -13 16 -15q0 -8 -163 -42q0 -10 2 -33t2 -37v-9q14 3 34.5 8.5t28.5 7t23 3t33 1.5q8 0 11 -3t5 -12q-6 -10 -28 -16.5t-55.5 -13.5t-51.5 -14q1 -23 5.5 -63t4.5 -81q-13 1 -17 3.5t-9 13.5q-7 16 -10.5 43t-4.5 50t-2 27l-64 -14
q0 -15 4 -52t4 -50q0 -9 -2 -13t-4 -4.5t-7 -0.5q-9 0 -18 7q-3 17 -4 56.5t-2 48.5q-8 -1 -45.5 -10t-49.5 -9q-11 0 -11 20q0 4 1.5 6.5t5.5 4.5t9 3.5t14 3.5l18 4t24.5 5t29.5 6l-9 82q-88 -14 -123 -14q-13 0 -13 10q0 14 44 25.5t87 17.5q-18 154 -18 155q14 3 18 3
q5 0 9 -4t7.5 -13t5.5 -18t4.5 -25t4 -28t4 -32.5t4.5 -33.5q37 11 63 16q-1 5 -3.5 36t-5 57t-7 51.5t-8.5 29.5q16 19 24 19q9 0 15.5 -16.5t10 -42.5t5 -50.5t2.5 -48t2 -28.5zM253 319l-21 -6q5 -53 5 -78q9 4 31.5 8.5t31.5 7.5q-1 11 -1.5 33t-3.5 44z" />
    <glyph glyph-name="dollar" unicode="$" horiz-adv-x="518" 
d="M194 609q2 -21 9.5 -66t9.5 -58q36 17 51 23q0 10 -4.5 29.5t-4.5 28.5q16 0 23 -3.5t9 -6.5t2.5 -17.5t2.5 -24.5h25q54 0 54 -19q0 -2 -7 -3q-4 1 -11 1q-12 0 -57 -9q4 -42 6.5 -69t6 -57.5t6.5 -58.5q87 -12 125 -24t38 -34q0 -13 -5.5 -25t-14 -21t-21.5 -17
t-24 -13.5t-26.5 -11t-23.5 -8t-20 -5.5l-12 -3q8 -55 8 -85q-4 -12 -9 -13q-8 0 -14.5 3.5t-6.5 6.5q-1 14 -2 42.5t-3 40.5q-28 -4 -51 -4h-11q4 -90 8 -134q-18 0 -28 7q-7 18 -7 127q-19 0 -50.5 13t-48.5 43q-2 4 -2 6q0 3 2 3h1q60 -35 88 -35q4 0 6 1q-2 31 -3 59
t-2 58q-23 6 -33.5 9.5t-28 11.5t-25.5 16.5t-15 23.5t-7 34v9t4.5 13t13.5 19.5t28 25t47 32.5q-8 43 -24 119q1 20 28 20zM220 452q4 -29 5.5 -65.5t7.5 -80.5q6 -1 54 -7l-21 177q-25 -10 -46 -24zM128 353q5 -10 12.5 -16t13 -8.5t22.5 -8t27 -9.5q-3 35 -4.5 62
t-3.5 60q-4 0 -20 -8.5t-32.5 -26t-16.5 -35.5q0 -4 2 -10zM239 157q28 0 60 6q-2 16 -3.5 49.5t-4.5 52.5q-52 7 -57 8q0 -23 5 -116zM328 168q117 29 117 65q0 11 -16.5 16.5t-55.5 9t-53 5.5q1 -6 2 -30.5t6 -65.5z" />
    <glyph glyph-name="percent" unicode="%" horiz-adv-x="494" 
d="M430 218q19 -8 19 -38q0 -12 -3 -25q-3 -8 -12.5 -39t-15.5 -45t-20.5 -28.5t-34.5 -14.5q-35 0 -43 17q-8 15 -8 31q0 35 7 63.5t32 53.5t66 25h13zM354 73q3 -3 7 -3q15 0 35 36t20 61q0 17 -17 17t-37 -25.5t-20 -52.5q0 -21 12 -33zM252 -38h-31q-20 0 -20 27
q0 12 4 25q26 99 66 299t53 260q-22 -10 -76 -46.5t-85 -46.5q-41 -126 -123 -126q-24 0 -24 36q0 37 16.5 86.5t36.5 66.5q5 5 9.5 8.5t10 5t8.5 2t10.5 0t8.5 -0.5q17 0 39 -9t24 -22q16 8 48.5 20.5t57.5 24.5t46 28q3 13 5.5 32.5t4.5 27.5t10 14.5t24 6.5q30 0 30 -20
q0 -10 -8 -37q-36 -43 -70.5 -209t-54 -309.5t-20.5 -143.5zM59 393q30 12 52.5 42.5t22.5 56.5q0 31 -36 31q-21 0 -37.5 -45t-16.5 -67q0 -19 11 -19q1 0 2 0.5t2 0.5z" />
    <glyph glyph-name="ampersand" unicode="&#x26;" horiz-adv-x="418" 
d="M181 228q22 -44 67 -109q13 23 26.5 57t22.5 53.5t17 22.5q8 -1 23 -38q-15 -18 -32 -58.5t-36 -69.5q20 -35 40 -61.5t35 -39.5t27 -20.5t18 -9.5t6 -3q0 -4 -3 -11q-35 0 -61.5 15.5t-40 34t-32.5 51.5q-4 7 -6 11q-18 -20 -44 -35.5t-51 -15.5q-22 0 -39.5 15.5
t-17.5 46.5q0 33 40 167q-4 9 -23.5 50.5t-29.5 65.5t-24.5 61t-21 67.5t-6.5 55.5q0 57 26.5 96t73.5 39q62 0 91 -46t29 -110q0 -122 -74 -282zM191 607q-33 22 -63 22q-31 0 -46 -26t-15 -61q0 -43 29.5 -137t63.5 -131q68 158 68 242q0 64 -37 91zM143 41q6 -8 18 -8
q18 0 40 17t28 35q-17 27 -36 52.5t-31 43.5q-2 -8 -10 -29t-14 -42t-6 -37q0 -21 11 -32z" />
    <glyph glyph-name="quotesingle" unicode="'" horiz-adv-x="113" 
d="M58 700q13 -3 13 -28q-2 0 -2.5 -26.5t-2 -65.5t-5.5 -60q-12 -8 -28 -8q-7 0 -10 3q14 84 14 114q0 24 -5 62q11 9 26 9z" />
    <glyph glyph-name="parenleft" unicode="(" horiz-adv-x="183" 
d="M174 647q3 1 7 1q13 0 13 -14q-35 -45 -60 -94t-36.5 -83.5t-17.5 -79t-6.5 -60t-0.5 -46.5q0 -58 5 -105.5t17 -86t18 -56t23 -50.5t18 -35q6 -10 6 -16t-15 -17q-57 86 -83 189t-26 176q0 8 3 71q10 61 26.5 113.5t34 85.5t33 55t28 36t13.5 16z" />
    <glyph glyph-name="parenright" unicode=")" horiz-adv-x="204" 
d="M40 -84q-4 -2 -10 -2q-10 0 -10 14q110 151 110 324q0 57 -5 107t-11 81t-18.5 65.5t-18.5 47.5t-21.5 40.5t-17.5 31.5q-7 10 -7 16t15 17q66 -93 93 -201t27 -186v-45q-10 -76 -31 -139t-39.5 -93t-37.5 -54z" />
    <glyph glyph-name="asterisk" unicode="*" horiz-adv-x="209" 
d="M91 621q3 1 8 -20t5 -34q5 5 8 10t8.5 14t11.5 18q10 0 17 -9q-4 -13 -9 -19.5t-11.5 -12t-11.5 -12.5q18 0 51 12h3q9 0 11 -15q-47 -16 -50 -17q5 -10 19 -22t23 -29q-2 -1 -6 -1q-10 0 -20 6t-20 15.5t-16 12.5q2 -18 3 -35t4 -35q-4 -1 -10 -1q-19 0 -19 62
q-4 -4 -10 -14t-11 -17.5t-8 -7.5q-1 0 -2.5 1l-3 2t-3.5 2q5 11 9.5 19.5t6 11.5t3 7t2.5 11q-5 0 -26 -8l-21 -7q0 1 -3 20q4 1 20.5 6t29.5 5l-38 31q5 8 14 8q13 0 40 -18l-8 48v3q0 9 10 9z" />
    <glyph glyph-name="plus" unicode="+" horiz-adv-x="344" 
d="M259 247q5 0 5 -9q0 -14 -5 -22h-103q2 -11 4.5 -51t3.5 -52q0 -5 -11 -5q-14 0 -20 4v33q0 51 -2 69q-10 -1 -38.5 -2.5t-46.5 -3.5t-20 -4q-2 5 -2 14q0 11 6.5 17t20 8.5t24 3t30 -0.5t25.5 -1q-10 102 -14 111q18 4 21 4q12 0 12 -15q0 -4 2.5 -47.5t2.5 -52.5
q7 0 48.5 1t56.5 1z" />
    <glyph glyph-name="comma" unicode="," horiz-adv-x="115" 
d="M46 49q3 1 8 1t12.5 -2.5l10.5 -3.5q-8 -39 -49 -94t-61 -55q-2 2 -2 4q0 6 15.5 27t35.5 55t30 68z" />
    <glyph glyph-name="hyphen" unicode="-" horiz-adv-x="250" 
d="M177 239q5 0 5 -9q0 -14 -5 -22q-3 0 -11 0.5t-14 0.5q-119 0 -132 -13q-2 5 -2 15q0 25 24 25q65 0 135 3z" />
    <glyph glyph-name="period" unicode="." horiz-adv-x="96" 
d="M17 23q3 14 14 22t23 8q21 0 21 -21q0 -11 -9.5 -19.5t-23.5 -8.5q-20 0 -25 19z" />
    <glyph glyph-name="slash" unicode="/" horiz-adv-x="195" 
d="M58 -67q-3 -2 -8 -2t-15 4.5t-10 10.5q0 35 58.5 372t58.5 367v3q9 19 39 19q11 0 16 -4q-27 -102 -61.5 -292t-54 -316t-23.5 -162z" />
    <glyph glyph-name="zero" unicode="0" horiz-adv-x="302" 
d="M252 414q2 -24 2 -69q0 -147 -40 -231.5t-80 -98.5q-12 -3 -21 -3q-68 0 -68 255q0 49 2 70q9 140 21 210q-27 4 -27 37q54 -5 95 -22t61.5 -36t34 -45.5t16 -39.5t4.5 -27zM71 237q6 -175 60 -175q26 0 50.5 67.5t35.5 130.5q4 22 4 66q0 98 -28 151t-95 59
q-6 -29 -17 -130t-11 -152q0 -4 0.5 -9.5t0.5 -7.5z" />
    <glyph glyph-name="one" unicode="1" horiz-adv-x="270" 
d="M109 590h32q-2 -24 -2 -74q0 -89 16 -267.5t18 -213.5q-3 -9 -12 -9h-6q-3 -1 -9 -1q-11 0 -14 10q0 59 -3.5 135t-9 143.5t-10.5 125.5t-8.5 95t-3.5 39q0 18 8 18l1 -1h3z" />
    <glyph glyph-name="two" unicode="2" horiz-adv-x="412" 
d="M191 579q12 -11 12 -45q0 -58 -50 -247.5t-59 -246.5q54 26 133 83.5t119 100.5q14 0 14 -25v-21q-128 -103 -280 -193q-10 -5 -15 -5q-6 0 -12 10q10 78 60 273.5t50 243.5q0 35 -12 35q-20 0 -77.5 -61t-70.5 -115q-5 -2 -10 -2q-19 0 -19 10q0 54 162 203q22 13 30 13
q11 0 25 -11z" />
    <glyph glyph-name="three" unicode="3" horiz-adv-x="406" 
d="M243 529q2 -7 2 -21q0 -73 -100 -144q39 18 81 18q63 0 106.5 -38.5t43.5 -104.5q0 -99 -90.5 -180.5t-226.5 -81.5q-15 0 -15 2l13 21q127 9 201.5 79t74.5 149q0 49 -32.5 83.5t-91.5 34.5q-63 0 -147 -54h-2q-6 0 -6 13q0 7 3 16q62 40 107 91t45 87q0 18 -13 30
t-32 12q-59 0 -121 -91l-8 4q-6 3 -6 5v1q31 56 73 85.5t80 29.5q49 0 61 -46z" />
    <glyph glyph-name="four" unicode="4" horiz-adv-x="328" 
d="M238 598v-15q0 -17 -4.5 -98t-5.5 -139q9 1 25 4.5t22 3.5q9 0 15.5 -6.5t6.5 -15.5q0 -6 -3 -10q-22 -2 -70 -20q-2 -34 -2.5 -114.5t-2.5 -137.5t-8 -71q-3 -3 -14 -3q-24 0 -24 5q7 31 13.5 126.5t6.5 188.5q-2 0 -76.5 -22.5t-97.5 -22.5q-1 0 -3 0.5t-3 0.5
q7 31 32.5 104t32.5 114q5 16 24 16q10 0 17 -2q0 -9 -14 -48.5t-31.5 -86t-21.5 -57.5q72 15 142 42q14 215 14 230q0 22 -3 27q0 4 4.5 8t11.5 4q8 0 17 -5z" />
    <glyph glyph-name="five" unicode="5" horiz-adv-x="417" 
d="M334 572q13 -13 13 -29q0 -6 -4 -7h-10q-41 0 -116 -19.5t-95 -22.5q-12 -21 -12 -71q0 -48 8 -54q113 -18 189.5 -69.5t76.5 -119.5q0 -76 -60.5 -119.5t-143.5 -43.5q-71 0 -128 35q-1 1 -1 2q0 6 14 12l18 8q45 -24 102 -24q64 0 111 32.5t47 92.5q0 32 -19 58.5
t-52 44.5t-61.5 29.5t-65 22.5t-45.5 15q-21 7 -21 46q0 12 2.5 41.5t3.5 43.5q-4 2 -8.5 2.5t-6.5 1t-4 2.5t-2.5 6.5t-0.5 13.5q0 20 9 22q28 4 111 26t139 22h12z" />
    <glyph glyph-name="six" unicode="6" horiz-adv-x="354" 
d="M120 576l8 -9q-56 -115 -56 -256q0 -81 15.5 -150.5t27.5 -92.5q21 89 62 141.5t98 52.5q26 0 44 -11.5t18 -35.5q0 -53 -60.5 -124t-135.5 -81q-1 -2 -1 -5q0 -4 1.5 -10t1.5 -8q0 -4 -11 -4q-16 0 -23 7.5t-7 16.5q0 5 3 19q-63 75 -63 275q0 141 55 279q3 1 8 1
q8 0 15 -5zM145 42q52 3 109 63t57 95q0 12 -14.5 18.5t-26.5 6.5q-30 0 -59 -35.5t-45.5 -76.5t-20.5 -71z" />
    <glyph glyph-name="seven" unicode="7" 
d="M234 619h2q7 0 7 -32q0 -42 -22.5 -234t-22.5 -263q0 -11 1 -27t1 -22q-2 -2 -6 -2q-9 0 -15 4t-8 14t-2.5 15.5t0 20t0.5 16.5q0 85 16.5 239.5t18.5 229.5q-2 1 -7 1q-16 0 -90 -17.5t-96 -17.5q-10 0 -14.5 5t-6.5 24q97 27 244 46z" />
    <glyph glyph-name="eight" unicode="8" horiz-adv-x="288" 
d="M211 528q20 -7 23 -17q2 -5 2 -11v-8q-31 -107 -72 -195q24 -28 38.5 -75t14.5 -93q0 -48 -19 -84.5t-53 -36.5q-24 0 -37 34t-13 79q0 84 22 135l11 30q-6 12 -29 39.5t-40 58.5t-17 65q0 45 26.5 70t69.5 25q35 0 73 -16zM144 323q3 8 18 42.5t26.5 65t11.5 43.5
q0 12 -23.5 21.5t-40.5 9.5q-30 0 -46 -21t-16 -41q0 -29 21 -62t49 -58zM159 51q28 4 28 72q0 39 -10 79t-25 60q-27 -63 -27 -147q0 -66 26 -66q2 0 8 2z" />
    <glyph glyph-name="nine" unicode="9" horiz-adv-x="297" 
d="M252 590q1 0 1 -1q0 -7 -5.5 -42.5t-13 -82.5t-10.5 -72q0 -3 -6 -84t-12 -176.5t-6 -132.5q0 -3 0.5 -8t0.5 -7q-12 -2 -13 -2q-5 0 -19 7q5 164 32 486q-63 -59 -117 -59q-18 0 -34.5 10t-16.5 30q0 41 54.5 91t119.5 50q24 0 45 -7zM73 461q7 -13 22 -13
q29 0 69.5 38.5t50.5 75.5h-8q-51 0 -94 -32.5t-43 -58.5q0 -5 3 -10z" />
    <glyph glyph-name="colon" unicode=":" horiz-adv-x="120" 
d="M29 225q3 14 14.5 22t25.5 8q23 0 23 -23q0 -10 -10.5 -18.5t-24.5 -8.5q-21 0 -28 20zM92 60q0 -16 -11.5 -27.5t-27.5 -11.5q-24 0 -24 17q0 15 11 23t26 8q17 0 26 -9z" />
    <glyph glyph-name="semicolon" unicode=";" horiz-adv-x="161" 
d="M69 61q4 12 27 12q16 0 23 -12q-10 -38 -59 -96t-70 -58q-2 2 -2 4q0 6 15.5 27t35.5 55t30 68zM60 247q3 14 14 22t23 8q21 0 21 -21q0 -11 -9.5 -19.5t-23.5 -8.5q-20 0 -25 19z" />
    <glyph glyph-name="less" unicode="&#x3c;" horiz-adv-x="268" 
d="M73 242l120 125q1 1 2 1q4 0 9.5 -7t5.5 -10q-13 -11 -52 -53.5t-63 -71.5q42 -52 122 -116q-12 -20 -26 -20q-10 0 -28.5 17.5t-47 50.5t-40.5 46q-14 6 -14 17t12 21z" />
    <glyph glyph-name="equal" unicode="=" horiz-adv-x="344" 
d="M256 246q5 0 5 -9q0 -15 -5 -22q-25 0 -106.5 -4.5t-92.5 -7.5q-2 5 -2 14q0 26 25 26q106 0 176 3zM66 148q-5 0 -5 9q0 12 5 22q10 -2 26 -2q12 0 41 2t43 2l89 4q2 -10 2 -14q0 -25 -25 -25q-24 0 -81.5 1t-94.5 1z" />
    <glyph glyph-name="greater" unicode="&#x3e;" horiz-adv-x="284" 
d="M87 75q-1 -1 -3 -1q-4 0 -8.5 7t-4.5 11q62 54 123 117q-20 26 -69 80l-45 44q12 17 26 17q10 0 26.5 -18t44.5 -55t37 -48q13 -7 13 -18q0 -9 -20 -29t-64.5 -58.5t-55.5 -48.5z" />
    <glyph glyph-name="question" unicode="?" horiz-adv-x="424" 
d="M194 165q-7 -5 -10 -5q-7 0 -15 9t-12.5 17.5t-4.5 9.5q0 11 15 34.5t36.5 54.5t52.5 89t56 124q24 65 24 95q0 52 -66 52q-56 0 -107 -52t-77 -118q-13 9 -13 29q0 55 66.5 117.5t143.5 62.5q81 0 81 -83q0 -53 -41.5 -155t-84.5 -188t-44 -93zM214 50q5 -12 5 -16
t-3.5 -12t-4.5 -15q-16 -4 -27 -4q-34 0 -34 26q0 12 11 19t26 7q14 0 27 -5z" />
    <glyph glyph-name="at" unicode="@" horiz-adv-x="461" 
d="M296 134q-24 0 -40.5 39.5t-16.5 73.5q0 8 1 11q-4 -5 -15.5 -21.5t-18.5 -25t-18.5 -20.5t-24 -17.5t-25.5 -5.5t-22 7.5t-9 20.5q0 12 8.5 40t23.5 60t39.5 56t51.5 24h23.5t12 -4.5t8.5 -14t1 -28.5q0 -13 -1.5 -45.5t-1.5 -47.5q0 -72 29 -72q21 0 40 42t19 102
q0 63 -32 110.5t-101 47.5t-110 -69t-41 -156q0 -19 2 -39t10 -47t21 -47t38 -34.5t58 -14.5q84 0 186 57q2 -2 2 -6q0 -24 -70 -54t-120 -30q-78 0 -119.5 58t-41.5 149q0 106 51.5 184t133.5 78q22 0 44 -6t37.5 -15.5t27 -18.5t18.5 -16l8 -7q13 -12 23.5 -49t10.5 -72
q0 -27 -5 -39q-30 -80 -51 -107.5t-44 -30.5zM141 201q2 -1 3.5 -2l3 -2t2.5 -1q4 0 16 9q63 69 63 120q0 19 -13 19q-24 0 -51.5 -52t-27.5 -81q0 -9 4 -10z" />
    <glyph glyph-name="A" unicode="A" horiz-adv-x="416" 
d="M85 190q-9 0 -32.5 -1.5t-34.5 -1.5q-45 0 -45 18q0 4 14 18q76 8 105 12q28 103 101 416q10 14 20 14q2 0 7 -0.5t8 -0.5q7 -37 11 -65.5t8.5 -69t10.5 -83.5q3 -32 11.5 -89.5t11.5 -80.5q25 4 57.5 10t51.5 9.5t23 3.5q2 0 2 -3q0 -20 -115 -57q-2 -1 -3.5 -1.5
t-3.5 -1t-4 -1.5q3 -33 25 -152t22 -138q0 -6 -8 -6t-13.5 2.5t-12 6t-10.5 5.5q-4 35 -19 127.5t-20 143.5q-106 -24 -132 -28q-7 -24 -14.5 -64t-13 -69.5t-8.5 -36.5q-7 -7 -20 -7q-11 0 -18 7q0 27 38 164zM133 239q98 20 107 24q-27 280 -33 280q-1 -1 -1 -3
q-60 -230 -73 -301z" />
    <glyph glyph-name="B" unicode="B" horiz-adv-x="490" 
d="M460 361q39 -21 39 -64q0 -41 -32.5 -91t-81.5 -94q-4 -3 -23.5 -18t-24.5 -20q-83 -57 -202 -100q-15 -3 -29 -3q-32 0 -51 13t-19 28v2q32 -6 44 -6q7 0 12 1t7.5 2.5t5.5 3.5t5 3q1 30 1.5 70.5t2.5 61.5q-1 28 -2.5 72t-1.5 58q-24 -9 -39.5 -17t-20 -10.5t-6.5 -2.5
q-11 0 -11 21q0 10 5 17t12.5 10.5t25 12t31.5 17.5q-8 233 -15 233q-13 0 -52.5 -24.5t-52.5 -46.5q-7 -8 -11.5 -17t-6.5 -14t-4 -5t-5 6q3 48 42.5 84t89.5 55v6v14q0 5 1 8q4 1 15.5 10.5t13.5 9.5q2 -5 5 -21l2 -9q37 22 93 22q66 0 98 -24.5t32 -62.5q0 -45 -37 -96
t-76 -84q57 11 109 11q74 0 112 -22zM132 574q-2 -32 -2 -47q0 -38 4.5 -103t5.5 -79q59 25 108 76.5t64 120.5v6q0 21 -24 34t-61 13q-47 0 -95 -21zM149 28q105 30 208.5 116.5t103.5 150.5q0 46 -106 46q-56 0 -116.5 -12.5t-98.5 -32.5q0 -197 9 -268z" />
    <glyph glyph-name="C" unicode="C" horiz-adv-x="375" 
d="M356 670l-23 -6q-23 -6 -45.5 -16t-53 -29t-61.5 -55t-56 -83q-17 -37 -36.5 -117.5t-19.5 -99.5l1 -2q-4 -46 -4 -62q0 -158 102 -158q67 0 126 59t98 141q18 22 34 22q4 0 4 -3q-33 -109 -123 -188.5t-152 -79.5q-55 0 -91.5 54.5t-36.5 166.5q0 186 83 320t201 164
q12 0 34 -7t22 -16q0 -2 -3 -5z" />
    <glyph glyph-name="D" unicode="D" horiz-adv-x="614" 
d="M178 691q6 -6 8.5 -13.5t3 -13.5t0.5 -20t1 -24q24 -13 80 -41.5t86.5 -44.5t75.5 -46t68.5 -55t41.5 -61t18 -74q0 -107 -87 -188t-219 -106q-24 -4 -35 -4q-39 0 -74.5 20.5t-35.5 53.5q0 13 7 22.5t12 9.5q3 0 3 -4l-2 -6q0 -24 13.5 -39.5t26 -20t30.5 -8.5
q3 -1 5 -1q-11 67 -27.5 290t-23.5 273q-29 13 -51 25.5t-36 19t-34 12.5q-5 6 -5 12q0 3 2.5 9.5t3.5 11.5q37 -9 65.5 -22.5t49.5 -18.5q0 13 -1.5 21t-1.5 13q3 19 23 19q1 0 4 -0.5t5 -0.5zM213 340q5 -41 15.5 -170.5t11.5 -134.5q3 -1 11 -1q65 0 151 58t120 159
q2 11 2 32q0 38 -16.5 72.5t-39 58t-61.5 48.5t-68 39.5t-76 36.5t-69 33q0 -21 10 -126z" />
    <glyph glyph-name="E" unicode="E" horiz-adv-x="495" 
d="M460 684q-37 -21 -181 -69t-184 -64q10 -128 21 -200q31 14 50.5 22t44 16t39 12t58 17t79.5 23q9 -2 18.5 -12.5t9.5 -20.5q0 -7 -7 -11q-112 -13 -281 -92q4 -98 34.5 -173t76.5 -83q16 -4 34 -4q86 0 180 103q32 28 43 28q3 0 3 -3q0 -1 -4 -7q-10 -11 -36 -39.5
t-37 -40t-34.5 -31.5t-41.5 -28.5t-45 -15.5t-57 -7q-38 0 -65.5 20t-45.5 61.5t-28.5 86.5t-20.5 114q-28 -4 -57 -23q-7 0 -7 6q0 9 18 28.5t39 33.5q-32 218 -32 293q15 7 40 10q3 -7 3 -30q68 17 171.5 48t167.5 47q3 1 8 1q10 0 19 -5t9 -9q0 -2 -2 -2z" />
    <glyph glyph-name="F" unicode="F" horiz-adv-x="294" 
d="M86 676h2q10 0 17 -40q43 9 99.5 22.5t91.5 20.5q18 2 30 4.5t17 4.5t7 2q6 0 6 -18q0 -11 -99.5 -42.5t-146.5 -40.5q0 -5 0.5 -12t0.5 -9q0 -5 -1 -15t-1 -23q0 -31 2 -60q0 -1 -0.5 -3.5t-0.5 -4.5q1 -5 1.5 -18t0.5 -19l3 -39q20 3 75 27t117 39q2 -2 2 -5
q0 -7 -15 -15.5t-42.5 -21.5t-41.5 -22q-24 -10 -44 -20.5t-29 -15t-18 -4.5q0 -40 6.5 -175t11.5 -170q-17 -4 -45 -4v60q0 136 -10 275q-29 -12 -35 -12q-5 0 -17 3v3q0 2 -1.5 3.5t-3 2t-3 2t-1.5 3.5q4 14 27 21t30 15q-2 68 -8 200q-12 -4 -16 -4q-22 0 -22 29
q0 8 5.5 12.5t28.5 14.5q0 1 -0.5 4t-0.5 4q0 41 21 41z" />
    <glyph glyph-name="G" unicode="G" horiz-adv-x="479" 
d="M302 641q4 -8 4 -12q0 -3 -13 -22q-5 -2 -25 -19.5t-54 -60t-64.5 -98t-53 -144.5t-22.5 -188q0 -74 29 -95q15 -11 38 -11q50 0 106.5 48t93.5 110.5t39 108.5q-8 0 -33 -11t-57 -26t-48 -21q-30 13 -30 38v6q24 0 127 47.5t144 75.5q6 0 19 6.5t19 6.5
q-3 -19 -39.5 -53.5t-58.5 -47.5v-18q0 -117 35 -138q-7 -21 -18 -21q-13 0 -27 21t-16 38q-6 -7 -28.5 -36t-33 -42t-33.5 -38.5t-40.5 -38.5t-40.5 -28.5t-47.5 -22t-49.5 -6.5q-43 0 -67.5 48.5t-24.5 110.5q0 35 11 105q22 137 64 228t118 165q3 1 15.5 10t28 17t29.5 8
h4z" />
    <glyph glyph-name="H" unicode="H" horiz-adv-x="408" 
d="M229 706q8 4 24 4q13 0 21 -4q2 -6 8 -142t10 -160q36 8 65.5 11.5t44.5 7.5q5 0 12 0.5t10 0.5q17 0 20.5 -3.5t3.5 -15.5q-21 -4 -76 -21t-78 -22q1 -6 7 -89t14.5 -164.5t16.5 -108.5q2 -6 4 -20t6 -28q-16 -7 -32 -7q-5 0 -9 3t-7 10t-5 13.5t-3.5 18.5l-2.5 20
t-2.5 23t-2.5 23q-4 33 -12 152t-8 145q-22 -5 -60 -13t-76 -17q0 -40 4 -105l6 -190q-26 -14 -42 -14q-2 7 -2 59v125t-2 117q-69 -22 -92 -22q-13 0 -13 6q0 10 10 25q55 10 91 26q-7 120 -12.5 179t-20.5 131q12 21 40 21q7 0 15 -3v-29q0 -52 7.5 -143t8.5 -148
q16 2 59 14t72 18q0 57 -6 157.5t-13 135.5q-1 4 -2 7t-1.5 4t-0.5 2v2q0 4 1 8z" />
    <glyph glyph-name="I" unicode="I" horiz-adv-x="167" 
d="M72 0q-9 -9 -15 -9t-15.5 7.5t-13.5 9.5q-5 67 -17 312.5t-12 342.5q0 6 0.5 15t0.5 12h-1q23 13 42 18q-2 -68 -2 -140q0 -333 33 -568z" />
    <glyph glyph-name="J" unicode="J" 
d="M176 219q3 -12 4 -13l2 -3q6 1 47 29t56 35q9 -3 9 -4l-2 -2q-54 -43 -104 -100q6 -54 12.5 -109.5t9 -80t4.5 -47t2 -38.5q0 -41 -9.5 -67.5t-26.5 -37t-29.5 -13.5t-29.5 -3q-45 0 -75 34.5t-30 97.5q0 127 129 275q0 26 -32.5 231.5t-47.5 267.5q3 1 12.5 12t15.5 11
h2l1 1q3 0 7.5 -15.5t10.5 -47t11.5 -65t12.5 -83.5t12.5 -88t13.5 -93t12 -84zM52 -129q7 -20 14.5 -33t19.5 -20.5t16 -9l20 -7.5h-1l2 -1h5h6q23 0 37.5 18t14.5 54q0 27 -4.5 66t-14.5 103t-14 96q-49 -63 -75.5 -118t-26.5 -125q0 -15 1 -23z" />
    <glyph glyph-name="K" unicode="K" horiz-adv-x="333" 
d="M97 349q10 -15 113 -69.5t154 -61.5q8 -26 8 -35q-28 2 -111.5 34t-168.5 76q0 -31 -1.5 -92.5t-1.5 -92.5l1 -14v-33.5v-34.5q0 -32 -1 -37l-30 10q-2 22 -2.5 153.5t-2.5 154.5q-2 2 -12.5 7t-18.5 11.5t-9 16.5q3 6 19 16.5t21 14.5q-3 10 -8 128.5t-5 145.5q0 1 6 4
t14.5 5.5t13.5 2.5q6 0 11 -108.5t5 -147.5q21 21 80.5 106.5t68.5 103.5q11 3 24.5 7.5t26.5 7.5q-17 -42 -69 -112q-2 -4 -24 -36.5t-53 -74t-48 -56.5z" />
    <glyph glyph-name="L" unicode="L" horiz-adv-x="331" 
d="M54 696q1 -2 31 -290t53 -334q11 -11 27 -11q15 0 33 11t33.5 26t33.5 37t28.5 37.5t23 34t14.5 20.5l7 -11q3 -8 3 -12q0 -3 -1 -4q-41 -86 -97 -143t-92 -57q-42 0 -58 63q-8 28 -24 169q-26 257 -66 441q4 3 9.5 8t9 7.5t10.5 5t15 2.5h7z" />
    <glyph glyph-name="M" unicode="M" horiz-adv-x="623" 
d="M173 654l-1 1q0 1 2 3l3 2h-1q-3 0 -6 -1q-55 -23 -118 -163t-63 -184l1 -1v-2q-14 -6 -20 -6q-11 0 -14 17q8 45 46 138.5t75 153.5q14 22 29 42t22 28l8 8q23 14 39 14q48 0 48 -126q0 -39 -5 -110.5t-6 -121.5q10 53 42 116.5t68 79.5h3q20 0 27 -21.5t11 -66.5
q0 -24 6 -99.5t11 -75.5q1 0 1 1q4 6 14.5 24t17 28.5t17 27t18.5 26.5t18 20t19 15t17 5q21 0 33.5 -48.5t16 -109t11 -124t20.5 -86.5q-3 -2 -9 -2t-12 3t-13.5 9.5t-11.5 8.5q-7 22 -10 97.5t-10.5 132.5t-26.5 57q-1 0 -7 -6q-65 -73 -93 -165q-19 -50 -24 -141
q-2 -1 -5 -1q-4 0 -6 2.5t-5.5 8t-7.5 9.5q1 5 1 52q0 271 -21 349q-12 0 -35 -35t-28 -54q-24 -65 -35 -106.5t-16 -83.5l-4 -42q-4 -53 -4 -94q0 -31 3 -88q-13 0 -20.5 4t-21.5 18l-6 6q12 100 12 147q8 99 8 191q3 99 3 181q0 102 -5 138z" />
    <glyph glyph-name="N" unicode="N" horiz-adv-x="556" 
d="M173 705h3q46 0 46 -122q0 -10 -0.5 -27t-0.5 -23q0 -25 -0.5 -98t-1 -136.5t-0.5 -65.5q2 2 9.5 33t19 76.5t21.5 74.5l4 15q4 14 10 30.5t14.5 34t22 29t28.5 11.5q6 0 9 -1h4q30 0 50 -107.5t31 -229.5t17 -136q7 -11 20 -11q29 0 81 67q3 -6 3 -12q0 -38 -57 -85
q-20 -10 -36 -10q-39 0 -53 49q-4 19 -15.5 132t-25.5 203t-29 90q-7 0 -15.5 -15t-18 -43t-16.5 -50.5t-16 -55t-11 -37.5q-22 -72 -32 -128t-18 -164q-2 0 -4 -0.5t-4 -0.5q-9 0 -14.5 3t-11 8.5t-9.5 7.5q0 15 1 155.5t1 217.5l1 24q2 23 3.5 59t1.5 68q0 127 -25 127
q-35 0 -96.5 -129t-75.5 -200q-4 -11 -15 -18.5t-20 -7.5q-8 0 -11 6q19 75 56.5 164t87 158.5t87.5 69.5z" />
    <glyph glyph-name="O" unicode="O" horiz-adv-x="345" 
d="M345 461q4 -29 4 -64q0 -71 -21 -143.5t-51.5 -124t-64 -86t-58.5 -39.5q-13 -3 -35 -3q-114 0 -114 286q0 63 3 89q12 125 41 241q-27 2 -54 17.5t-27 27.5q73 -3 132.5 -13.5t97.5 -25.5t66 -33t43 -36t23.5 -36t11 -31t3.5 -22v-4zM49 260q2 -45 6.5 -77.5t14 -65.5
t28.5 -50.5t46 -17.5q32 0 67 47.5t57 99t32 89.5q10 40 10 85q-2 86 -25 131q-21 40 -75.5 70t-123.5 35q-9 -35 -23 -154t-14 -177v-15z" />
    <glyph glyph-name="P" unicode="P" horiz-adv-x="345" 
d="M208 280q26 -191 26 -243q0 -45 -12 -45q-10 0 -29 32q0 107 -23 254q-42 0 -83 23t-41 39q16 -5 54.5 -10.5t58.5 -5.5q-7 49 -22 142t-22 158q-7 3 -25.5 9t-34 12t-32 13t-26 14t-9.5 13l2 3q1 3 4.5 6.5t8.5 3.5q42 0 205 -73.5t205 -124.5q24 -20 24 -49
q0 -47 -68.5 -106t-160.5 -65zM195 326q85 0 137.5 33.5t52.5 82.5q0 19 -13.5 36.5t-41.5 35.5t-52.5 31.5t-65 33.5t-61.5 31q3 -39 44 -284z" />
    <glyph glyph-name="Q" unicode="Q" horiz-adv-x="384" 
d="M56 655q-31 16 -52 21v31l32 -8q32 -8 65.5 -18.5t85 -35t95.5 -55.5q122 -88 122 -209q0 -72 -41 -155.5t-98 -142.5q7 -48 32 -83t47 -47t45 -12q25 0 49 12q0 -1 0.5 -3t0.5 -3q0 -15 -24 -22t-43 -7q-80 0 -138 129q-1 -1 -11 -10t-20.5 -16t-27 -14t-33.5 -7
q-111 0 -111 283q0 83 9 183q1 5 6 82t10 107zM72 339q0 -7 -0.5 -32.5t0 -40t1 -41.5t3 -44t5.5 -40t9.5 -37.5t14.5 -28.5t19.5 -20.5t26.5 -6.5q20 0 39.5 13.5t27.5 27.5q-11 46 -21 152q6 0 13 -3t16.5 -8t15.5 -7q8 -65 14 -91q37 42 70 105t33 132q0 54 -20 94
q-18 36 -80 81t-113 72t-57 27q-17 -201 -17 -304z" />
    <glyph glyph-name="R" unicode="R" horiz-adv-x="553" 
d="M449 460q-27 -31 -111 -60t-161 -45q3 -9 7 -17t7.5 -13t10 -12.5t9.5 -10.5l13 -13l13 -13q108 -86 199 -137q21 -8 39.5 -14.5t30.5 -10t22 -6t15.5 -3.5t9.5 -2t5.5 -1.5t1.5 -2.5q0 -9 -37 -9q-36 0 -51 5q-92 21 -217 116q-39 31 -76 53l11.5 -80.5t19 -124
t14.5 -73.5q-9 -3 -17 -3q-7 0 -18 2t-14 2q-1 0 -14.5 129.5t-16.5 172.5l1 -4q-13 23 -20.5 32.5t-19.5 21.5t-25 28q2 2 8 4t17 5t18 6q-7 49 -14.5 123.5t-12.5 111.5q-4 0 -23.5 1t-50 2t-57.5 1q-2 1 -6 3.5t-5.5 4t-3 4.5t-1.5 7t2 6.5t7 3t9 1t11.5 0t10.5 -0.5
q106 0 192 -10.5t139 -26.5t88.5 -36.5t49.5 -39t14 -34.5q0 -23 -23 -43zM162 386q76 14 170 50.5t94 60.5v9q-7 28 -98.5 60t-186.5 45q15 -183 21 -225z" />
    <glyph glyph-name="S" unicode="S" horiz-adv-x="459" 
d="M267 611q14 -30 16 -46q-40 33 -59 40q-22 8 -55 8q-62 0 -104 -28.5t-42 -72.5q0 -11 5 -28q19 -58 80 -117t139.5 -114t90.5 -66q40 21 114 49h6q2 -1 2 -3q0 -3 -8 -10.5t-21 -17t-25.5 -18t-25.5 -17t-16 -10.5q43 -43 43 -78q0 -27 -24.5 -54t-77.5 -63
q-70 -47 -120 -47q-44 0 -44 41q0 33 27.5 74t55.5 67t76 66q0 3 -27.5 22.5t-68.5 50t-83 66.5t-77 80t-45 82q-8 30 -8 51q1 52 29 85t55 42q43 15 81 15q59 0 111 -49zM185 -22l-1 -1v-2q0 -12 24 -12q17 0 52.5 13t71 43t35.5 66q0 37 -37 55q-29 -14 -86 -70.5
t-59 -91.5z" />
    <glyph glyph-name="T" unicode="T" horiz-adv-x="255" 
d="M394 658h-21q-74 0 -248 -26q16 -416 41 -622q0 -10 -23 -10q-21 0 -24 13q-6 70 -13.5 220.5t-15 256.5t-16.5 135q-60 0 -247 -21q-3 -1 -8 -1q-18 0 -18 11q0 12 28 22q108 20 287 38t251 28q8 0 19 -14t11 -24q0 -4 -3 -6z" />
    <glyph glyph-name="U" unicode="U" horiz-adv-x="487" 
d="M45 663q5 -1 8 -6.5t4.5 -15t2.5 -18.5t2 -22.5t2 -21.5q1 -11 7 -75.5t13 -133t15.5 -140.5t17 -118.5t15.5 -46.5q0 1 1 1q6 -2 9 -2q34 0 67 77.5t51 176.5t18 174q0 8 -1 22t-1 20q0 11 20 11q22 0 26 -12q0 -28 -3.5 -121t-3.5 -146q0 -111 13 -167t51 -56
q30 0 56 23t40.5 46t15.5 23q2 0 2 -8q0 -6 -3 -17q-62 -110 -122 -110q-40 0 -63.5 55t-23.5 150q0 16 1 24q-20 -57 -38 -98.5t-30.5 -63t-24.5 -33.5t-18.5 -14.5t-14.5 -2.5h-8q-6 -1 -17 -1q-17 0 -27.5 11t-19.5 44q-9 74 -29 272t-35 305q0 5 1 7.5t6.5 5t17.5 2.5z
" />
    <glyph glyph-name="V" unicode="V" horiz-adv-x="279" 
d="M175 -5q-13 -5 -17 -5q-9 2 -14 16q-155 405 -200 536q0 9 16 9q9 0 17.5 -3t8.5 -6q38 -114 56 -166t48.5 -130.5t71.5 -170.5q23 88 43 184.5t31.5 172.5t20 139t13 102t5.5 43q0 9 17 9q20 0 20 -9q-18 -142 -65.5 -419t-71.5 -302z" />
    <glyph glyph-name="W" unicode="W" horiz-adv-x="465" 
d="M395 61q-8 -17 -22 -17q-10 -1 -19 17q-38 70 -58.5 125.5t-54.5 175.5q-79 -240 -112 -307q-32 -65 -53 -65q-11 0 -17 19q-8 75 -19 207t-18 189.5t-16 68.5v4q0 12 9.5 20.5t21.5 8.5q4 0 10 -2q3 0 6.5 -24t7 -62t6.5 -84l6 -92t5.5 -83.5t5 -61t4.5 -23.5q2 -3 3 -3
q13 0 58.5 128t79.5 243q7 17 17 17q14 0 19.5 -15.5t9.5 -52.5t11 -62q45 -169 73 -207q0 -1 2 -1q16 0 43.5 165.5t27.5 252.5q0 20 -1 27q0 14 3 21l2 7q0 1 -1.5 5t-1.5 7q0 7 8.5 14t16.5 7q13 0 13 -23q0 -75 -24.5 -257t-51.5 -287z" />
    <glyph glyph-name="X" unicode="X" horiz-adv-x="317" 
d="M230 596q-42 -204 -70 -318q49 -72 148 -193q6 -18 6 -27q0 -17 -15 -17q-65 69 -149 179q-13 -68 -40 -166.5t-39 -132.5q-13 -9 -21 -9q-6 0 -6 5q20 83 36.5 164.5t23.5 110.5q12 53 12 67v3l-1 1q-14 23 -46.5 76.5t-45.5 75t-30 56.5t-26 64q-1 2 -1 6q0 5 4 5
q11 0 22 -16q15 -21 55.5 -85.5t86.5 -124.5q14 53 27 107.5t19.5 82t13 51t12.5 32t15 8.5t9 -5z" />
    <glyph glyph-name="Y" unicode="Y" horiz-adv-x="205" 
d="M189 279q-21 -120 -51 -245.5t-48 -148.5q-4 -1 -12 -1q-23 0 -23 11q0 1 2 5q67 145 96 390q-47 0 -91.5 53.5t-72 128.5t-35.5 149q0 9 18 9l32 -4q24 -250 154 -310q15 89 15 252q0 67 -2 83q7 10 16 10q6 0 25 -7q0 -6 0.5 -19t0.5 -21q0 -83 -8 -190t-16 -145z" />
    <glyph glyph-name="Z" unicode="Z" horiz-adv-x="395" 
d="M300 643q-5 -78 -38 -207.5t-65.5 -239t-35.5 -129.5q48 34 129.5 92t129.5 91q14 7 15 7t1 -2q0 -1 -7 -15q-38 -29 -115.5 -96t-129.5 -108t-68 -41q-12 0 -12 19q0 4 2 18q11 48 72.5 243.5t75.5 318.5q0 3 -3 3q-15 0 -92.5 -75t-137.5 -148q-3 -1 -9 -1
q-11 0 -17 6.5t-6 15.5q0 7 3 10q9 7 75 75.5t129.5 124t88.5 55.5q15 0 15 -17z" />
    <glyph glyph-name="bracketleft" unicode="[" horiz-adv-x="231" 
d="M109 -29q25 4 73 4l-7 -35q-13 -5 -40 -5q-49 0 -56 5q2 14 2 119q0 189 -4 429.5t-9 245.5q8 3 13 3t11 -2l73 2l7 -19q0 -2 1.5 -6.5t1.5 -6.5q0 -5 -3 -5q-1 0 -9 1t-14 1q-7 0 -22.5 -0.5t-20.5 -0.5q0 -24 1.5 -338.5t1.5 -391.5z" />
    <glyph glyph-name="backslash" unicode="\" horiz-adv-x="344" 
d="M295 -47q-6 -7 -16 -7q-9 0 -18 3q-15 21 -95.5 368t-89.5 363q0 12 13.5 23.5t26.5 11.5h4q33 -210 175 -762z" />
    <glyph glyph-name="bracketright" unicode="]" horiz-adv-x="248" 
d="M136 691q-25 -4 -73 -4l7 35q11 5 39 5q50 0 57 -5q-3 -18 -3 -241q0 -532 9 -541q-7 -3 -14 -3t-10 2l-73 -2l-7 19q-3 6 -3 12q0 5 4 5q1 0 8.5 -1t13.5 -1q19 0 43 2q0 24 1 332.5t1 385.5z" />
    <glyph glyph-name="asciicircum" unicode="^" horiz-adv-x="641" 
d="M352 12l-29 -41q7 25 7 44q0 92 -111 167q-17 12 -38 30.5t-46.5 56t-25.5 71.5q0 39 24.5 62.5t51.5 23.5q38 0 80 -30t58 -60q27 82 66 123.5t79 41.5q27 0 46 -15.5t19 -48.5q0 -56 -45 -161.5t-87 -181t-49 -82.5zM194 390q-21 0 -33.5 -12t-15.5 -24t-3 -24
q0 -45 38 -83q21 -21 63.5 -55t69 -62t39.5 -62q67 111 107 204.5t40 141.5q0 24 -15 36.5t-31 12.5q-60 0 -108 -148l-19 -51l-16 48l-4 6q-3 5 -7.5 12t-13.5 16.5t-19.5 17t-27.5 14t-37 9.5q-3 3 -7 3z" />
    <glyph glyph-name="underscore" unicode="_" horiz-adv-x="398" 
d="M352 -69q4 0 4 -7q0 -10 -4 -16q-37 0 -172.5 -3t-145.5 -6q-2 4 -2 10q0 19 24 19q19 0 138.5 1.5t157.5 1.5z" />
    <glyph glyph-name="grave" unicode="`" horiz-adv-x="224" 
d="M38 421q-2 2 -2 6q0 8 9.5 17t17.5 12q15 -15 30.5 -29.5t43 -38.5t53.5 -47q2 -2 2 -4q0 -8 -11 -8q-41 16 -143 92z" />
    <glyph glyph-name="a" unicode="a" horiz-adv-x="291" 
d="M213 294q-23 -138 -23 -184q0 -33 7 -46.5t25 -13.5q29 0 86 68q1 0 1 -2q0 -28 -36.5 -66t-73.5 -38q-38 0 -38 65q0 35 7 73q-34 -62 -76.5 -106.5t-72.5 -44.5q-16 0 -26.5 13.5t-10.5 39.5q0 48 24 90q89 153 187 153q13 0 20 -1zM25 40h2q28 0 81 70t64 149h-7
q-11 0 -22 -6q-57 -37 -91.5 -94.5t-34.5 -95.5q0 -17 8 -23z" />
    <glyph glyph-name="b" unicode="b" 
d="M-17 642q1 0 6.5 2t8.5 2q13 0 17 -37q4 -51 15 -228t15 -226q6 23 23 56.5t49 67t65 33.5q49 0 49 -76q0 -70 -48 -141.5t-115 -71.5h-9q1 -7 1 -16q0 -15 -20 -15q-6 0 -14 2q-6 76 -16.5 201t-15.5 187.5t-9 134.5t-4 115q0 10 2 10zM151 265q-30 -17 -59.5 -79.5
t-33.5 -127.5q8 -2 13 -2q47 0 89 64t42 117q0 40 -24 40q-13 0 -27 -12z" />
    <glyph glyph-name="c" unicode="c" horiz-adv-x="239" 
d="M167 293q0 -6 -17 -15.5t-43.5 -33.5t-44.5 -61q-26 -55 -26 -83q0 -52 31 -54q12 2 22.5 5t21.5 8.5t17.5 9t18 12t15.5 11.5t17.5 13.5t16.5 13.5q21 20 41 42.5t28.5 30.5t15.5 8h4q-6 -13 -23.5 -38.5t-46 -60t-70 -62.5t-83.5 -35q-13 0 -21.5 2.5t-18.5 9t-15 23
t-5 41.5q0 50 25.5 109.5t54.5 82.5q30 23 64 23q7 0 21 -2z" />
    <glyph glyph-name="d" unicode="d" horiz-adv-x="312" 
d="M353 526q-16 -93 -27 -123q-51 -148 -105 -210q0 -21 13 -130.5t14 -138.5q-2 -2 -4 -2q-11 0 -19 36t-16.5 98.5t-14.5 90.5q-115 -145 -174 -145q-19 0 -30 13t-11 33q0 31 28.5 74.5t54 69.5t44.5 42q41 26 56 28q5 1 10 1h10q-3 36 -3 94q0 97 7 129q5 55 37.5 109
t69.5 54q23 0 41.5 -22.5t18.5 -63.5v-37zM221 259q37 42 67 121.5t30 166.5q0 62 -25 62q-24 0 -44 -39.5t-28 -78.5q-6 -29 -8 -77.5t-5 -80.5q0 -18 2 -36t5 -28.5t5 -10.5q1 0 1 1zM76 166q-60 -62 -60 -104q0 -27 17 -27q11 0 20.5 5.5t23 18t18.5 16.5q6 6 26 25.5
t32 32t23 32t11 35.5q0 20 -14 35q-30 0 -97 -69z" />
    <glyph glyph-name="e" unicode="e" horiz-adv-x="250" 
d="M90 283q24 8 33 8q59 0 59 -44q0 -90 -130 -184q11 -30 40 -30q39 0 109 61q36 31 60 61l2 1q1 0 1 -3v-6l-3 -14q-2 -7 -24.5 -36.5t-63 -62t-76.5 -32.5q-31 0 -52.5 15t-27 26.5t-6.5 19.5q-5 17 -5 38q0 43 21.5 101t62.5 81zM46 106q38 20 71 57.5t33 81.5
q0 15 -18 15q-30 0 -58 -52.5t-28 -101.5z" />
    <glyph glyph-name="f" unicode="f" horiz-adv-x="219" 
d="M306 535q-22 0 -23 3q0 1 -1 2q-1 0 -7 15t-18 30t-28 15q-12 2 -17 2q-19 0 -34 -12.5t-24 -36t-14.5 -48.5t-8 -59t-3.5 -58.5t-1.5 -55.5t-1.5 -42q65 4 94 4q8 -2 16 -14t8 -17q0 -3 -10.5 -4.5t-26.5 -3t-32 -2t-30.5 -1t-17.5 -0.5q2 -73 9.5 -170.5t8.5 -143.5
q-3 -8 -12 -8q-6 0 -16 2h-1q-4 0 -4 6q-1 4 -1 24q-3 114 -16 287q-34 -3 -62.5 -4t-44.5 -2q-7 0 -7 5q0 19 12.5 23.5t60.5 9.5q24 2 39 4q-2 52 -2 73q0 58 5.5 104.5t13 75.5t19.5 50.5t21.5 31t22.5 15.5t19 6.5t14 0.5q42 0 73 -37t31 -63q0 -6 -3 -7z" />
    <glyph glyph-name="g" unicode="g" horiz-adv-x="319" 
d="M277 84l38 25q0 -1 0.5 -1t0.5 -1q0 -11 -20.5 -35t-48 -51t-29.5 -29q0 -115 -7 -161q-3 -20 -6.5 -36.5t-6 -28t-6.5 -23t-6 -17t-8 -15t-7 -11.5t-8.5 -11.5t-8.5 -11.5q-15 -21 -53 -42t-70 -21q-30 0 -49 20.5t-19 64.5q0 100 119 222l5 5q20 21 98 85q5 31 5 80v25
q-20 -43 -48 -69t-46 -31l-17 -5q-16 -2 -21 -2q-16 0 -26.5 5t-14 16t-4 16t-0.5 16q0 43 21.5 88.5t45.5 73.5l4 4q3 5 7.5 10t12.5 12t16.5 13.5t20 13.5t23.5 12t26.5 8t29.5 3q27 0 45 -12q-1 0 -1 -1h1q-11 -28 -19 -76t-14.5 -102.5t-8.5 -65.5q30 25 54 41zM189 -64
q1 7 1 17q0 13 -6 13h-1q-111 -89 -147 -149.5t-36 -110.5q0 -55 46 -55q58 0 98.5 72.5t44.5 212.5zM205 213q11 27 11 52v4q-57 0 -126 -83q-48 -67 -48 -116q0 -22 17 -22q31 0 65 36.5t52 69t29 59.5z" />
    <glyph glyph-name="h" unicode="h" horiz-adv-x="266" 
d="M39 720q5 -16 5 -532q13 55 35 85.5t42 30.5q22 0 34.5 -30.5t19 -67.5t31 -70.5t67.5 -38.5q-23 -20 -45 -20q-24 0 -45 26t-32 56t-19.5 59t-9.5 30q-3 4 -7 4q-20 -2 -57 -137q-8 -35 -8 -97q0 -30 3 -36q-5 0 -20 4.5t-20 4.5v187q0 355 -12 532q0 1 4 3.5t11 5
t14 2.5q2 0 5 -0.5t4 -0.5z" />
    <glyph glyph-name="i" unicode="i" horiz-adv-x="125" 
d="M56 440h2q10 0 10 -18q0 -14 -13.5 -26.5t-26.5 -12.5q-8 0 -10 17q10 29 38 40zM59 310q4 -33 7 -109.5t7 -116.5q2 -25 8 -53t6 -31q-5 -1 -13 -1q-16 0 -29 10q-3 24 -10 142t-9 141q3 1 9.5 10t15.5 9q5 0 8 -1z" />
    <glyph glyph-name="j" unicode="j" horiz-adv-x="156" 
d="M24 280q2 5 4 9t5 7.5t4.5 5.5t5.5 5t5 4t6 4l6 3q5 -11 9.5 -40.5t9.5 -67t8 -54.5q1 -5 3 -21t4 -27q3 2 18.5 15t33.5 22t38 9q16 0 16 -9q0 -3 -8 -4q-25 -4 -61 -40.5t-36 -56.5l2 7l1 3q3 0 3 -133q0 -32 -0.5 -57.5t-3 -46t-3.5 -35t-5.5 -28t-6 -20t-8 -15.5
t-7.5 -11.5t-9.5 -11.5t-9.5 -10q-22 -24 -65 -24q-29 0 -50 27.5t-21 76.5q0 32 5.5 57.5t20.5 60.5t15 36q37 66 106 151l-3 27q-3 14 -14 88.5t-18 93.5zM-56 -172q-3 -23 -3 -41q0 -89 59 -89q69 0 69 205q0 123 -3 123q-1 0 -6 -5q-39 -41 -73 -96.5t-43 -96.5zM35 432
q10 0 10 -15q0 -14 -11 -23t-22 -9q-6 0 -8 14q9 24 31 33z" />
    <glyph glyph-name="k" unicode="k" horiz-adv-x="254" 
d="M68 196q56 -12 173 -23q11 -11 20 -37q-38 7 -71 10.5t-78 6t-73 5.5q0 -28 1.5 -71.5t1.5 -60.5q0 -30 -4 -30q-7 0 -14.5 11t-14.5 13q1 31 1 92q0 62 -2.5 170.5t-2.5 156.5q0 21 1 70.5t1 81.5q0 59 -5 71q10 12 37 13q1 -35 1 -103q0 -47 -1 -138t-1 -133
q0 -63 1 -93q19 15 46.5 43t46.5 49.5t22 22.5q5 -5 12 -9.5t11.5 -7t4.5 -1.5q-5 -6 -24 -28t-29 -32.5t-27.5 -25.5t-33.5 -23z" />
    <glyph glyph-name="l" unicode="l" horiz-adv-x="115" 
d="M51 207q0 -6 9.5 -84.5t21 -166t12.5 -97.5q-12 2 -17 6.5t-26 33.5q-8 55 -14 108t-11.5 100t-7.5 64q-30 -40 -36 -40q-2 0 -2 3t1 6l2 10q2 12 5 16q22 32 27 57q-3 29 -3 76q0 279 13 335q7 30 24 46.5t35 16.5q25 0 41 -26.5t16 -74.5q0 -76 -29.5 -190t-60.5 -199z
M43 264q33 95 51.5 189.5t18.5 152.5q0 33 -5.5 44.5t-18.5 11.5q-49 0 -49 -238q0 -36 1.5 -91.5t1.5 -68.5z" />
    <glyph glyph-name="m" unicode="m" horiz-adv-x="377" 
d="M12 337q0 11 8 11q26 0 26 -31q0 -13 -3 -68t-3 -98q12 49 43.5 108t56.5 59q7 0 11.5 -2.5t7 -10t4 -16.5t2.5 -25t1.5 -32t1.5 -42.5t3 -50.5q40 99 66 123q14 14 28 14q16 0 22 -29t7 -63t15 -63t44 -29q5 0 8 1q27 0 27 -5q0 -10 -18.5 -15t-29.5 -5q-67 0 -76 142
q-1 11 -7 11q-15 0 -54 -85.5t-45 -85.5q-16 0 -20 19.5t-4 57.5q0 19 1 53t1 46q0 36 -7 36q-3 0 -8 -5q-33 -50 -57 -126.5t-28 -136.5q-3 -1 -9 -1q-4 0 -7.5 1t-5.5 2.5t-4.5 4.5t-3.5 4.5t-3 5.5t-3 5q3 18 12 321z" />
    <glyph glyph-name="n" unicode="n" horiz-adv-x="264" 
d="M47 305q0 -136 -4 -200q0 21 33.5 96.5t59.5 75.5q4 0 6 -1q27 -12 36 -39t14.5 -72.5t19.5 -78.5q7 -17 22.5 -25t27 -9.5t11.5 -3.5q0 -6 -14.5 -10.5t-19.5 -4.5q-23 0 -40.5 30.5t-25.5 67t-16 67t-15 30.5q-23 -3 -55.5 -92t-44.5 -136q-5 0 -10.5 -0.5t-6.5 -0.5
q-5 0 -13 10q4 61 4 134q0 51 -5 169q0 9 5 9q4 0 16 -8t15 -8z" />
    <glyph glyph-name="o" unicode="o" horiz-adv-x="198" 
d="M5 300q42 -2 89 -18t69 -38q15 -15 15 -47q0 -57 -34.5 -126.5t-64.5 -69.5q-16 0 -28.5 5t-21 13.5t-15 19t-10 23.5t-5.5 24.5t-2.5 24t-0.5 21t0.5 16.5t0.5 9q0 62 8 102l-6 9q-8 10 -13 14q11 4 19 18zM41 62q12 -17 29 -17q12 0 24 12q53 54 53 119q0 38 -16.5 50
t-83.5 31q-17 -54 -17 -117q0 -60 11 -78z" />
    <glyph glyph-name="p" unicode="p" horiz-adv-x="295" 
d="M234 274q32 -15 32 -54q-3 -90 -72 -154.5t-130 -64.5q-8 0 -12 1q0 -104 2 -207t2 -111q0 -30 -2.5 -40t-10.5 -10q-5 0 -16 3l-1 -1q-4 0 -4 87q0 389 -18 500q0 26 -13 83q30 0 38 -24.5t16 -114.5q3 -32 5 -50q7 37 58.5 99.5t100.5 62.5q15 0 25 -5zM108 49
q62 26 92.5 73.5t30.5 88.5q0 34 -30 34q-21 0 -52 -27q-24 -21 -60 -78.5t-36 -90.5q9 -9 22 -9q12 0 33 9z" />
    <glyph glyph-name="q" unicode="q" horiz-adv-x="304" 
d="M266 289q-17 -148 -17 -430q0 -186 39 -231q-6 -3 -13 -3q-13 0 -27 6t-14 11q-14 0 -14 198q0 35 0.5 120.5t0.5 133.5q-74 -84 -135 -84q-21 0 -38.5 13t-17.5 40q0 39 25 91.5t74 95.5t104 43q18 0 33 -4zM68 59q8 -14 26 -14q42 0 89.5 61.5t47.5 140.5q0 1 0.5 4
t0 4t-2 2.5t-5.5 1.5q-60 0 -110.5 -68.5t-50.5 -115.5q0 -11 5 -16z" />
    <glyph glyph-name="r" unicode="r" horiz-adv-x="210" 
d="M27 316q0 5 4 5q7 0 27 -10q7 -39 14 -125q19 49 54.5 75t102.5 26h16q0 -10 -6 -14.5t-25 -7.5q-89 -15 -128 -133q-6 -51 -6 -93q0 -24 2 -31q0 -11 -21 -11q-15 0 -15 8v38q0 78 -19 273z" />
    <glyph glyph-name="s" unicode="s" horiz-adv-x="266" 
d="M110 315q13 -2 23.5 -5t18 -6t15 -8t11 -7.5t8.5 -9t6.5 -8.5t5.5 -9t5 -8q0 -2 -2 -2q-5 0 -24 13q-29 18 -71 18q-37 0 -65 -14t-28 -38q0 -31 31 -55.5t79 -46.5t58 -29q71 39 108 57q1 1 3 1q1 0 1 -1q0 -5 -57 -43q-24 -15 -39 -25q28 -24 28 -53q0 -9 -5 -19
q-22 -36 -54 -57t-54 -21q-19 0 -33.5 11t-14.5 29q0 10 4.5 20.5t16.5 23t18 18.5t22.5 20t18.5 15q-11 12 -55 36.5t-76 52.5t-32 58q0 37 33.5 65t77.5 28q12 0 18 -1zM101 -28q6 -3 12 -3q21 0 48 24t27 39q0 14 -24 29q-22 -16 -44.5 -41t-22.5 -39q0 -6 4 -9z" />
    <glyph glyph-name="t" unicode="t" horiz-adv-x="280" 
d="M159 298q19 1 171 14q13 -2 13 -13q0 -8 -8 -9q-107 -11 -176 -29q1 -17 1 -60t2 -72.5t7 -63t18 -51.5t34 -18q16 0 38.5 19.5t25.5 19.5q6 0 6 -7q0 -6 -9 -18t-29 -23.5t-43 -11.5q-14 0 -26 4q-14 4 -24.5 20t-16.5 37t-10 52.5t-5.5 56.5t-3.5 59.5t-3 51.5
q-29 -3 -51.5 -6t-33 -4.5t-14.5 -1.5q-6 0 -18 11v5v9q0 9 14.5 13t49.5 6t53 4q-1 37 -3.5 74.5t-2.5 67.5q0 10 19 10q10 0 15.5 -5.5t8 -19t3 -24t0.5 -34.5v-9q0 -26 -2 -54z" />
    <glyph glyph-name="u" unicode="u" 
d="M63 44q1 -1 3 -1q18 0 50.5 72.5t32.5 126.5q0 12 -1 17q0 9 17 9q10 0 22 -3q-11 -117 -11 -139q0 -81 30 -81q16 0 46 26.5t34 26.5h1l1 -1q-7 -29 -37.5 -53t-59.5 -24q-11 0 -17.5 4t-10.5 15t-5.5 19t-4 29t-3.5 31q-18 -37 -26.5 -52.5t-21.5 -36.5t-23.5 -28.5
t-22.5 -7.5q-26 0 -33.5 49t-5 125t-3.5 169q12 0 19.5 -2.5t11.5 -4t6 -10.5t2 -12.5v-19.5q0 -21 -3 -83t-4 -99q0 -53 17 -61z" />
    <glyph glyph-name="v" unicode="v" horiz-adv-x="240" 
d="M205 328q0 2 1 2q5 0 15 -7.5t10 -11.5q-22 -152 -124 -299q-13 -13 -25 -13q-14 0 -25 48t-22.5 122.5t-20.5 106.5q-3 8 -3 12q0 10 10 10q8 0 23 -6q4 0 9.5 -40.5t16 -100t22.5 -93.5h1q8 0 33.5 49.5t50 116t28.5 104.5z" />
    <glyph glyph-name="w" unicode="w" horiz-adv-x="328" 
d="M50 38q5 0 13.5 12.5t26.5 62.5t39 132q3 10 8 10q11 0 16 -21q0 -1 16.5 -37t33 -63t25.5 -27q17 0 27.5 66.5t10.5 113.5q21 26 30 26q4 0 4 -7q0 -66 -13 -124.5t-29.5 -90t-30.5 -31.5q-15 0 -32.5 24.5t-35 59t-19.5 38.5q-14 -65 -45 -136t-54 -71h-2
q-43 32 -43 343q0 13 14 18.5t24 5.5q3 0 3 -9q0 -2 -2.5 -39.5t-2.5 -74.5q0 -7 0.5 -22t0.5 -24q0 -135 17 -135z" />
    <glyph glyph-name="x" unicode="x" horiz-adv-x="240" 
d="M3 356q38 -48 102 -151q26 67 31 111q1 5 6 5q23 0 23 -19q0 -11 -5 -27.5t-11.5 -33t-7.5 -21.5l-15 -41q16 -38 42 -92t30 -68q0 -4 -5 -4q-4 0 -9 2t-10 7t-9 10t-9.5 13.5t-9 14.5t-9.5 17l-9 16.5t-9 17.5l-8 16q-56 -158 -77 -158q-2 0 -14 4q51 126 70 194
q-11 15 -26 38.5t-28 46t-24.5 42.5t-18.5 32l-7 12q0 16 13 16h4z" />
    <glyph glyph-name="y" unicode="y" horiz-adv-x="306" 
d="M76 70q3 -2 9 -2q24 0 49.5 48t41.5 136h2q6 0 21.5 -5t15.5 -8q0 -14 -5.5 -72.5t-5.5 -95.5q0 -4 0.5 -11.5t0.5 -11.5q50 43 116 50q11 -6 11 -8q0 -1 -5 -4q-59 -17 -121 -72q0 -24 1 -81.5t1 -86.5q0 -108 -11.5 -153t-51.5 -45q-79 0 -79 127q0 72 30 145.5
t75 102.5q3 54 3 106q-14 -39 -41.5 -74t-60.5 -35q-20 0 -34.5 16.5t-18.5 44.5q-7 58 -21 234q4 2 10 2q11 0 20 -7q4 0 5.5 -55t11 -115t31.5 -70zM178 -14q-13 -13 -25 -28q-23 -29 -41 -85.5t-18 -106.5q0 -85 53 -85q35 0 35 153q0 40 -2 95t-2 57z" />
    <glyph glyph-name="z" unicode="z" horiz-adv-x="360" 
d="M230 303q16 0 16 -12q0 -9 -6 -22q-41 -111 -84 -192q22 9 79 36.5t98 41.5q6 0 12.5 1t8.5 1q7 0 12 -10q-54 -19 -136 -72t-112 -68q-8 0 -18.5 7.5t-10.5 12.5q0 2 1 3q4 7 20.5 35.5t23.5 41.5l21 39t21 42.5t14.5 38t10.5 39.5h-2q-6 0 -31.5 -14t-67 -33.5
t-80.5 -29.5h-6q-6 0 -6 2q0 6 14 16q1 1 35.5 21t60 34t59.5 27.5t53 13.5z" />
    <glyph glyph-name="braceleft" unicode="{" horiz-adv-x="234" 
d="M157 -62q34 -29 56 -32l-11 -10q-63 0 -112 82q-14 22 -14 52q0 17 6.5 56.5t6.5 61.5q0 78 -71 138q72 53 72 112q0 20 -11 61t-11 63q0 85 131 180q37 -4 37 -11q0 -1 -2 -2q-127 -81 -127 -171q0 -23 9.5 -65.5t9.5 -63.5q0 -57 -55 -103q51 -59 51 -124q0 -24 -9 -67
t-9 -62q0 -55 53 -95z" />
    <glyph glyph-name="bar" unicode="|" horiz-adv-x="241" 
d="M133 -199q0 -5 -12 -5q-18 0 -30 5q6 46 6 520q0 260 -5 265q12 2 17 2q30 0 30 -26q0 -10 -3 -357.5t-3 -403.5z" />
    <glyph glyph-name="braceright" unicode="}" horiz-adv-x="213" 
d="M28 653q-36 25 -57 29l10 10q63 0 116 -76q17 -24 17 -59q0 -15 -4.5 -50t-4.5 -54q0 -86 78 -142q-67 -54 -67 -110q0 -22 13.5 -66.5t13.5 -69.5q0 -49 -39 -98t-82 -80l-22 3q-16 4 -16 6t2 3q119 83 119 168q0 26 -13 73t-13 70q0 54 51 99q-58 59 -58 129
q0 22 6.5 61t6.5 56q0 58 -57 98z" />
    <glyph glyph-name="asciitilde" unicode="~" horiz-adv-x="333" 
d="M78 173l-19 9q18 32 48 32q13 0 31 -9q31 -17 73 -17q23 0 39 3t23.5 6t10.5 3q8 0 8 -4q0 -9 -32 -23.5t-55 -14.5q-16 0 -34 8q-47 21 -67 21q-6 0 -10 -1.5t-9.5 -6.5t-6.5 -6z" />
    <glyph glyph-name="exclamdown" unicode="&#xa1;" horiz-adv-x="252" 
d="M53 663q-5 10 -5 14q0 9 10.5 21t27.5 12q28 0 28 -21q0 -31 -34 -31q-12 0 -27 5zM167 8q0 -7 -8 -7q-20 0 -36 21q-2 41 -21 263t-19 265q0 12 1 14q2 -1 7 -1h10q14 0 22 -16q0 -37 1 -71.5t2 -60.5t3 -57.5t3 -49t4.5 -50t4.5 -44.5t5.5 -48.5t5.5 -46.5t7 -54.5
t8 -56.5z" />
    <glyph glyph-name="cent" unicode="&#xa2;" horiz-adv-x="296" 
d="M173 423q0 -5 -14.5 -13t-37 -27.5t-37.5 -50.5q-22 -42 -22 -68q0 -44 26 -46q10 2 19 4.5t18.5 7t15 7t15.5 9.5t13 9.5t14.5 12t14.5 11.5q19 17 35.5 35.5t23 25t13.5 6.5h3q-7 -16 -29 -47.5t-68 -70t-92 -45.5q-13 2 -19 3.5t-15.5 7.5t-13.5 19t-4 34
q0 41 22.5 90.5t46.5 68.5q26 19 54 19q6 0 18 -2zM142 89q0 -4 -10 -4q-9 0 -25 4q0 393 -9 406q10 2 15 2q24 0 24 -21q0 -13 2.5 -177.5t2.5 -209.5z" />
    <glyph glyph-name="dieresis" unicode="&#xa8;" horiz-adv-x="334" 
d="M115 415h3q8 0 14.5 -7.5t6.5 -16.5q0 -7 -12 -23t-17 -17q-16 2 -21 12q-3 6 -5 16q1 3 3 9.5t3 8t4 5.5t8 7t13 6zM222 354q-10 0 -19.5 7.5t-9.5 15.5q0 2 2 6q6 6 10 14.5t9 10.5t19 2q11 0 16 -18q-1 -3 -3.5 -10t-4 -10.5t-6.5 -8.5t-13 -9z" />
    <glyph glyph-name="copyright" unicode="&#xa9;" horiz-adv-x="378" 
d="M217 384q-17 3 -29 3q-46 0 -80 -27.5t-48 -62t-14 -68.5q0 -62 44 -97t100 -35q53 0 95 43.5t42 106.5q0 22 -5.5 41.5t-15 33t-20.5 24.5t-23.5 18t-21 11t-16.5 7zM83 315q33 48 86 48q40 0 78.5 -25t46.5 -44q13 -32 13 -59q0 -42 -31 -79.5t-85 -37.5q-6 0 -22 2
q-11 2 -23 6t-33 15.5t-34.5 36.5t-13.5 60q0 46 18 77zM189 93q-57 0 -102.5 35.5t-45.5 99.5q0 32 12 64q13 34 47.5 66.5t87.5 32.5q17 0 29 -4h3q1 -1 7 -3q12 -4 25.5 -11t33.5 -22.5t33 -42.5t13 -60q0 -63 -43 -109t-100 -46zM188 383q25 0 35 -7q13 -4 25 -11
t32 -21.5t32 -39t12 -55.5q0 -59 -41 -103.5t-94 -44.5q-56 0 -97 35t-41 95q0 31 10 57q13 34 45.5 64.5t81.5 30.5zM190 114q60 0 90.5 39.5t30.5 81.5q0 32 -13 62q-9 19 -48.5 45t-80.5 26q-43 0 -75.5 -30t-32.5 -101q0 -35 14 -61t36.5 -38t35 -16.5t22.5 -6.5
q8 -1 21 -1zM169 359q-39 0 -69 -27t-30 -93q0 -34 13 -59t33 -36t31.5 -15t22.5 -6q4 0 10 -0.5t10 -0.5q56 0 84.5 37t28.5 75q0 25 -13 59q-7 18 -45 42t-76 24zM216 293q-33 -6 -51 -29t-18 -50q0 -8 15 -16q57 4 78 51q6 -3 15 -8q-7 -26 -37 -47.5t-59 -21.5
q-40 0 -40 39q0 49 56 95q1 0 12 2.5t17 2.5q13 0 13 -12l-1 -3v-3z" />
    <glyph glyph-name="registered" unicode="&#xae;" horiz-adv-x="464" 
d="M265 427q-19 3 -33 3q-43 0 -77 -18.5t-54 -47.5t-30 -61t-10 -62q0 -45 16 -77q66 -80 154 -80q65 0 116 52.5t51 130.5q0 36 -13 65t-32.5 45.5t-38 27.5t-34.5 17zM106 345q41 59 101 59q47 -1 93.5 -31.5t56.5 -52.5q16 -38 16 -71q0 -50 -37.5 -95t-101.5 -45
q-16 0 -25 2q-9 1 -20.5 4t-31 12.5t-35 24t-27 41.5t-11.5 61q0 54 22 91zM233 79q-72 0 -125 45.5t-53 120.5q0 37 13 72q15 41 57.5 80t105.5 39q10 0 35 -5h2q2 -2 9 -4q16 -6 31.5 -14t40 -26.5t39.5 -51t15 -73.5q0 -74 -52.5 -128.5t-117.5 -54.5zM231 425
q27 0 43 -7q19 -8 30.5 -14t36 -24t38 -48.5t13.5 -69.5q0 -69 -48.5 -121t-110.5 -52q-68 0 -117.5 41.5t-49.5 112.5q0 36 12 69q15 39 54.5 76t98.5 37zM233 104q50 0 84.5 26.5t47.5 57.5t13 61q0 38 -16 74q-11 23 -58 54t-95 31q-66 0 -107 -60q-24 -34 -24 -94
q0 -120 126 -148q3 -1 4 -1q8 -1 25 -1zM209 397q-61 0 -98 -55q-6 -6 -14.5 -32.5t-8.5 -56.5q0 -33 11.5 -58.5t26.5 -39.5t34.5 -23.5t30 -12t18.5 -3.5q5 0 12.5 -1t11.5 -1q66 0 100.5 45t34.5 88q0 32 -15 71q-9 22 -54 50.5t-90 28.5zM171 334q-12 -4 -19 -10
q12 -27 12 -109v-48q0 -6 5 -6q3 0 11 2.5t13 2.5h4q0 22 -0.5 32t-0.5 22q12 -12 36 -12q15 0 34.5 4.5t42.5 12t34 10.5q0 5 -2.5 6t-21.5 7q-10 -2 -27 -8.5t-29 -6.5q-17 0 -36 9q6 5 22.5 13t26 17t9.5 22q0 16 -16 26.5t-45 10.5q-24 0 -41 -11q-4 0 -5 7t-5 7h-2z
M190 301q26 8 38 8q9 0 20 -5t11 -12q0 -12 -23.5 -24t-42.5 -16q-5 21 -5 32q0 3 2 17zM168 155q-10 0 -10 12v4q0 6 0.5 25t0.5 31q0 70 -12 94l-1 5l3 2l6 4.5t5.5 3t7.5 4.5h1h3q11 0 11 -12v-1q17 9 39 9q67 0 67 -42q0 -30 -52 -51q22 -6 25 -6q11 0 26.5 7t29.5 10h3
q1 0 3 -1q23 -7 24 -13l1 -5v-5l-5 -1q-75 -25 -113 -25q-18 0 -29 6q0 -3 0.5 -7.5t0.5 -6.5q0 -1 -0.5 -7.5t-0.5 -12.5v-18l-8 2h-5q-3 0 -11 -2.5t-10 -2.5zM158 321l14 9v-3q0 -12 9 -12h5q13 11 36 11q30 0 43.5 -10.5t13.5 -21.5t-8.5 -18t-23 -14.5t-23.5 -16.5
l-6 -6l7 -3q23 -9 37 -9q8 0 17 2.5t21 6.5t19 6l8 -2t6.5 -1.5t3.5 -1.5q-4 -1 -45 -12t-61 -11q-22 0 -32 10l-9 8l2 -22q0 -3 0.5 -7.5t0.5 -6.5q0 -1 -0.5 -7.5t-0.5 -12.5v-5q-6 0 -14 -2.5t-10 -2.5v5v52q0 71 -10 98zM190 246l4 2q19 3 43.5 15t27.5 26q0 9 -12 17
t-25 8q-10 0 -34 -6l-8 -3l-2 -3q-1 -6 -1 -16q0 -15 6 -35zM196 298h-2q-1 -5 -1 -13q0 -10 4 -27q54 16 58 32q0 5 -11 9.5t-19 4.5q-9 0 -29 -6z" />
    <glyph glyph-name="macron" unicode="&#xaf;" horiz-adv-x="436" 
d="M255 376q-79 -38 -136 -38q-11 0 -19 6.5t-8 15.5q0 8 5 11q24 3 62.5 11.5t86 21t66.5 16.5v-2q1 -1 1 -2q0 -13 -58 -40z" />
    <glyph glyph-name="degree" unicode="&#xb0;" horiz-adv-x="127" 
d="M81 622q23 0 23 -29q0 -2 -1 -12t-1.5 -13t-2.5 -11.5t-4.5 -11.5t-7 -8t-11.5 -7t-16 -3q-31 0 -31 41q0 22 11.5 38t34.5 16h6zM57 545q4 -2 5 -2q9 0 16 14.5t7 29.5q0 21 -14 21q-12 0 -20 -12t-8 -26q0 -19 14 -25z" />
    <glyph glyph-name="acute" unicode="&#xb4;" horiz-adv-x="224" 
d="M158 450q1 1 3 1q7 0 17 -14t10 -20q-44 -26 -143 -96l-4 -2q-6 0 -6 8q0 16 123 123z" />
    <glyph glyph-name="cedilla" unicode="&#xb8;" horiz-adv-x="210" 
d="M136 -98q-3 23 -48 23q-23 0 -46 -5q-2 1 -2 12q0 18 6 50.5t9 33.5h10q24 0 27 -3q-10 -43 -11 -54q18 2 26 2q34 0 53.5 -13.5t19.5 -36.5q0 -50 -39.5 -72.5t-88.5 -22.5q-21 0 -35 7.5t-14 17.5q0 3 6 3q5 0 14 -0.5t14 -0.5q41 0 70 15t29 44z" />
    <glyph glyph-name="questiondown" unicode="&#xbf;" horiz-adv-x="424" 
d="M244 523q5 4 10 4q7 0 15 -8.5t12.5 -17t4.5 -9.5q0 -13 -23.5 -46t-64 -102t-72.5 -154q-24 -65 -24 -96q0 -51 66 -51q55 0 106.5 52t77.5 118q12 -10 12 -29q0 -55 -66.5 -118t-142.5 -63q-82 0 -82 84q0 53 41.5 155t85 188t44.5 93zM224 638q-5 9 -5 16q0 4 3.5 12
t4.5 15q22 4 27 4q34 0 34 -26t-38 -26q-13 0 -26 5z" />
    <glyph glyph-name="Agrave" unicode="&#xc0;" horiz-adv-x="416" 
d="M85 190q-9 0 -32.5 -1.5t-34.5 -1.5q-45 0 -45 18q0 4 14 18q76 8 105 12q28 103 101 416q10 14 20 14q2 0 7 -0.5t8 -0.5q7 -37 11 -65.5t8.5 -69t10.5 -83.5q3 -32 11.5 -89.5t11.5 -80.5q25 4 57.5 10t51.5 9.5t23 3.5q2 0 2 -3q0 -20 -115 -57q-2 -1 -3.5 -1.5
t-3.5 -1t-4 -1.5q3 -33 25 -152t22 -138q0 -6 -8 -6t-13.5 2.5t-12 6t-10.5 5.5q-4 35 -19 127.5t-20 143.5q-106 -24 -132 -28q-7 -24 -14.5 -64t-13 -69.5t-8.5 -36.5q-7 -7 -20 -7q-11 0 -18 7q0 27 38 164zM133 239q98 20 107 24q-27 280 -33 280q-1 -1 -1 -3
q-60 -230 -73 -301zM127 781q-2 2 -2 6q0 8 9.5 17t17.5 12q15 -15 30.5 -29.5t43 -38.5t53.5 -47q2 -2 2 -4q0 -8 -11 -8q-41 16 -143 92z" />
    <glyph glyph-name="Aacute" unicode="&#xc1;" horiz-adv-x="416" 
d="M85 190q-9 0 -32.5 -1.5t-34.5 -1.5q-45 0 -45 18q0 4 14 18q76 8 105 12q28 103 101 416q10 14 20 14q2 0 7 -0.5t8 -0.5q7 -37 11 -65.5t8.5 -69t10.5 -83.5q3 -32 11.5 -89.5t11.5 -80.5q25 4 57.5 10t51.5 9.5t23 3.5q2 0 2 -3q0 -20 -115 -57q-2 -1 -3.5 -1.5
t-3.5 -1t-4 -1.5q3 -33 25 -152t22 -138q0 -6 -8 -6t-13.5 2.5t-12 6t-10.5 5.5q-4 35 -19 127.5t-20 143.5q-106 -24 -132 -28q-7 -24 -14.5 -64t-13 -69.5t-8.5 -36.5q-7 -7 -20 -7q-11 0 -18 7q0 27 38 164zM133 239q98 20 107 24q-27 280 -33 280q-1 -1 -1 -3
q-60 -230 -73 -301zM282 821q1 1 3 1q7 0 17 -14t10 -20q-44 -26 -143 -96l-4 -2q-6 0 -6 8q0 16 123 123z" />
    <glyph glyph-name="Acircumflex" unicode="&#xc2;" horiz-adv-x="416" 
d="M85 190q-9 0 -32.5 -1.5t-34.5 -1.5q-45 0 -45 18q0 4 14 18q76 8 105 12q28 103 101 416q10 14 20 14q2 0 7 -0.5t8 -0.5q7 -37 11 -65.5t8.5 -69t10.5 -83.5q3 -32 11.5 -89.5t11.5 -80.5q25 4 57.5 10t51.5 9.5t23 3.5q2 0 2 -3q0 -20 -115 -57q-2 -1 -3.5 -1.5
t-3.5 -1t-4 -1.5q3 -33 25 -152t22 -138q0 -6 -8 -6t-13.5 2.5t-12 6t-10.5 5.5q-4 35 -19 127.5t-20 143.5q-106 -24 -132 -28q-7 -24 -14.5 -64t-13 -69.5t-8.5 -36.5q-7 -7 -20 -7q-11 0 -18 7q0 27 38 164zM133 239q98 20 107 24q-27 280 -33 280q-1 -1 -1 -3
q-60 -230 -73 -301zM144 682q-2 -2 -4 -2q-6 0 -17 12t-12 17q57 43 110 105q28 -50 80 -103q1 -1 1 -4q0 -8 -9 -8q-37 20 -75 61q-16 -20 -74 -78z" />
    <glyph glyph-name="Atilde" unicode="&#xc3;" horiz-adv-x="416" 
d="M85 190q-9 0 -32.5 -1.5t-34.5 -1.5q-45 0 -45 18q0 4 14 18q76 8 105 12q28 103 101 416q10 14 20 14q2 0 7 -0.5t8 -0.5q7 -37 11 -65.5t8.5 -69t10.5 -83.5q3 -32 11.5 -89.5t11.5 -80.5q25 4 57.5 10t51.5 9.5t23 3.5q2 0 2 -3q0 -20 -115 -57q-2 -1 -3.5 -1.5
t-3.5 -1t-4 -1.5q3 -33 25 -152t22 -138q0 -6 -8 -6t-13.5 2.5t-12 6t-10.5 5.5q-4 35 -19 127.5t-20 143.5q-106 -24 -132 -28q-7 -24 -14.5 -64t-13 -69.5t-8.5 -36.5q-7 -7 -20 -7q-11 0 -18 7q0 27 38 164zM133 239q98 20 107 24q-27 280 -33 280q-1 -1 -1 -3
q-60 -230 -73 -301zM117 716l-20 18q22 42 58 42q22 0 39 -12q38 -28 61 -28q21 0 47 24q4 4 9 4q7 0 7 -8q0 -21 -25.5 -36.5t-47.5 -15.5q-20 0 -52.5 16.5t-39.5 16.5q-17 0 -36 -21z" />
    <glyph glyph-name="Adieresis" unicode="&#xc4;" horiz-adv-x="416" 
d="M85 190q-9 0 -32.5 -1.5t-34.5 -1.5q-45 0 -45 18q0 4 14 18q76 8 105 12q28 103 101 416q10 14 20 14q2 0 7 -0.5t8 -0.5q7 -37 11 -65.5t8.5 -69t10.5 -83.5q3 -32 11.5 -89.5t11.5 -80.5q25 4 57.5 10t51.5 9.5t23 3.5q2 0 2 -3q0 -20 -115 -57q-2 -1 -3.5 -1.5
t-3.5 -1t-4 -1.5q3 -33 25 -152t22 -138q0 -6 -8 -6t-13.5 2.5t-12 6t-10.5 5.5q-4 35 -19 127.5t-20 143.5q-106 -24 -132 -28q-7 -24 -14.5 -64t-13 -69.5t-8.5 -36.5q-7 -7 -20 -7q-11 0 -18 7q0 27 38 164zM133 239q98 20 107 24q-27 280 -33 280q-1 -1 -1 -3
q-60 -230 -73 -301zM171 777h3q8 0 14.5 -7.5t6.5 -16.5q0 -7 -12 -23t-17 -17q-16 2 -21 12q-3 6 -5 16q1 3 3 9.5t3 8t4 5.5t8 7t13 6zM278 716q-10 0 -19.5 7.5t-9.5 15.5q0 2 2 6q6 6 10 14.5t9 10.5t19 2q11 0 16 -18q-1 -3 -3.5 -10t-4 -10.5t-6.5 -8.5t-13 -9z" />
    <glyph glyph-name="Aring" unicode="&#xc5;" horiz-adv-x="416" 
d="M268 808q19 -7 19 -36q0 -6 -5 -24.5t-25.5 -42.5t-51.5 -24q-22 0 -33.5 13.5t-11.5 31.5q0 33 22 61t56 28q16 0 30 -7zM193 716q2 -2 7 -2q16 0 36 23t20 40q0 15 -17 15t-34 -20.5t-17 -39.5q0 -11 5 -16zM85 190q-9 0 -32.5 -1.5t-34.5 -1.5q-45 0 -45 18q0 4 14 18
q76 8 105 12q28 103 101 416q10 14 20 14q2 0 7 -0.5t8 -0.5q7 -37 11 -65.5t8.5 -69t10.5 -83.5q3 -32 11.5 -89.5t11.5 -80.5q25 4 57.5 10t51.5 9.5t23 3.5q2 0 2 -3q0 -20 -115 -57q-2 -1 -3.5 -1.5t-3.5 -1t-4 -1.5q3 -33 25 -152t22 -138q0 -6 -8 -6t-13.5 2.5t-12 6
t-10.5 5.5q-4 35 -19 127.5t-20 143.5q-106 -24 -132 -28q-7 -24 -14.5 -64t-13 -69.5t-8.5 -36.5q-7 -7 -20 -7q-11 0 -18 7q0 27 38 164zM133 239q98 20 107 24q-27 280 -33 280q-1 -1 -1 -3q-60 -230 -73 -301z" />
    <glyph glyph-name="AE" unicode="&#xc6;" horiz-adv-x="645" 
d="M610 664q-37 -21 -181.5 -69t-182.5 -64l12 -85q5 -57 22 -168q56 14 136 45t122 45q9 -2 18.5 -12.5t9.5 -20.5q0 -7 -7 -11q-52 -16 -147 -48.5t-131 -42.5q25 -208 141 -208q86 0 180 103q32 28 43 28q3 0 3 -3q0 -1 -4 -7l-36 -40t-37 -40t-34.5 -31t-42 -28.5
t-45 -15t-57.5 -7.5q-67 0 -98 59.5t-49 179.5q-87 -21 -124 -27q-7 -24 -14.5 -64t-13 -69.5t-8.5 -36.5q-7 -7 -20 -7q-11 0 -18 7q0 27 38 164q-9 0 -32.5 -1.5t-34.5 -1.5q-45 0 -45 18q0 4 14 18q76 8 105 12q28 103 101 416q10 14 20 14q2 0 7 -0.5t8 -0.5
q10 -52 13 -79q67 17 170 47.5t165 46.5q3 1 8 1q10 0 19 -5t9 -9q0 -2 -2 -2zM133 239q88 18 107 27q-4 47 -16.5 162t-16.5 115q-1 -1 -1 -3q-60 -230 -73 -301z" />
    <glyph glyph-name="Ccedilla" unicode="&#xc7;" horiz-adv-x="375" 
d="M221 -98q-3 23 -48 23q-23 0 -46 -5q-3 2 -3 12q0 19 9 62q-50 6 -82 61t-32 159q0 186 83 320t201 164q12 0 34 -7t22 -16q0 -4 -15.5 -8t-41.5 -13.5t-56.5 -26.5t-65.5 -55t-63 -91q-17 -37 -36.5 -117.5t-19.5 -99.5l1 -2q-4 -46 -4 -62q0 -158 102 -158q67 0 126 59
t98 141q18 22 34 22q4 0 4 -3q-31 -100 -106 -172t-144 -93q-5 -24 -6 -37q18 2 26 2q34 0 53.5 -13.5t19.5 -36.5q0 -50 -39.5 -72.5t-88.5 -22.5q-21 0 -35 7.5t-14 17.5q0 3 6 3q4 0 14 -0.5t14 -0.5q41 0 70 15t29 44z" />
    <glyph glyph-name="Egrave" unicode="&#xc8;" horiz-adv-x="495" 
d="M460 684q-37 -21 -181 -69t-184 -64q10 -128 21 -200q31 14 50.5 22t44 16t39 12t58 17t79.5 23q9 -2 18.5 -12.5t9.5 -20.5q0 -7 -7 -11q-112 -13 -281 -92q4 -98 34.5 -173t76.5 -83q16 -4 34 -4q86 0 180 103q32 28 43 28q3 0 3 -3q0 -1 -4 -7q-10 -11 -36 -39.5
t-37 -40t-34.5 -31.5t-41.5 -28.5t-45 -15.5t-57 -7q-38 0 -65.5 20t-45.5 61.5t-28.5 86.5t-20.5 114q-28 -4 -57 -23q-7 0 -7 6q0 9 18 28.5t39 33.5q-32 218 -32 293q15 7 40 10q3 -7 3 -30q68 17 171.5 48t167.5 47q3 1 8 1q10 0 19 -5t9 -9q0 -2 -2 -2zM122 793
q-2 2 -2 6q0 8 9.5 17t17.5 12q15 -15 30.5 -29.5t43 -38.5t53.5 -47q2 -2 2 -4q0 -8 -11 -8q-41 16 -143 92z" />
    <glyph glyph-name="Eacute" unicode="&#xc9;" horiz-adv-x="495" 
d="M460 684q-37 -21 -181 -69t-184 -64q10 -128 21 -200q31 14 50.5 22t44 16t39 12t58 17t79.5 23q9 -2 18.5 -12.5t9.5 -20.5q0 -7 -7 -11q-112 -13 -281 -92q4 -98 34.5 -173t76.5 -83q16 -4 34 -4q86 0 180 103q32 28 43 28q3 0 3 -3q0 -1 -4 -7q-10 -11 -36 -39.5
t-37 -40t-34.5 -31.5t-41.5 -28.5t-45 -15.5t-57 -7q-38 0 -65.5 20t-45.5 61.5t-28.5 86.5t-20.5 114q-28 -4 -57 -23q-7 0 -7 6q0 9 18 28.5t39 33.5q-32 218 -32 293q15 7 40 10q3 -7 3 -30q68 17 171.5 48t167.5 47q3 1 8 1q10 0 19 -5t9 -9q0 -2 -2 -2zM315 815
q1 1 3 1q7 0 17 -14t10 -20q-44 -26 -143 -96l-4 -2q-6 0 -6 8q0 16 123 123z" />
    <glyph glyph-name="Ecircumflex" unicode="&#xca;" horiz-adv-x="495" 
d="M460 684q-37 -21 -181 -69t-184 -64q10 -128 21 -200q31 14 50.5 22t44 16t39 12t58 17t79.5 23q9 -2 18.5 -12.5t9.5 -20.5q0 -7 -7 -11q-112 -13 -281 -92q4 -98 34.5 -173t76.5 -83q16 -4 34 -4q86 0 180 103q32 28 43 28q3 0 3 -3q0 -1 -4 -7q-10 -11 -36 -39.5
t-37 -40t-34.5 -31.5t-41.5 -28.5t-45 -15.5t-57 -7q-38 0 -65.5 20t-45.5 61.5t-28.5 86.5t-20.5 114q-28 -4 -57 -23q-7 0 -7 6q0 9 18 28.5t39 33.5q-32 218 -32 293q15 7 40 10q3 -7 3 -30q68 17 171.5 48t167.5 47q3 1 8 1q10 0 19 -5t9 -9q0 -2 -2 -2zM178 708
q-2 -2 -4 -2q-6 0 -17 12t-12 17q57 43 110 105q28 -50 80 -103q1 -1 1 -4q0 -8 -9 -8q-37 20 -75 61q-16 -20 -74 -78z" />
    <glyph glyph-name="Edieresis" unicode="&#xcb;" horiz-adv-x="495" 
d="M460 684q-37 -21 -181 -69t-184 -64q10 -128 21 -200q31 14 50.5 22t44 16t39 12t58 17t79.5 23q9 -2 18.5 -12.5t9.5 -20.5q0 -7 -7 -11q-112 -13 -281 -92q4 -98 34.5 -173t76.5 -83q16 -4 34 -4q86 0 180 103q32 28 43 28q3 0 3 -3q0 -1 -4 -7q-10 -11 -36 -39.5
t-37 -40t-34.5 -31.5t-41.5 -28.5t-45 -15.5t-57 -7q-38 0 -65.5 20t-45.5 61.5t-28.5 86.5t-20.5 114q-28 -4 -57 -23q-7 0 -7 6q0 9 18 28.5t39 33.5q-32 218 -32 293q15 7 40 10q3 -7 3 -30q68 17 171.5 48t167.5 47q3 1 8 1q10 0 19 -5t9 -9q0 -2 -2 -2zM201 777h3
q8 0 14.5 -7.5t6.5 -16.5q0 -7 -12 -23t-17 -17q-16 2 -21 12q-3 6 -5 16q1 3 3 9.5t3 8t4 5.5t8 7t13 6zM308 716q-10 0 -19.5 7.5t-9.5 15.5q0 2 2 6q6 6 10 14.5t9 10.5t19 2q11 0 16 -18q-1 -3 -3.5 -10t-4 -10.5t-6.5 -8.5t-13 -9z" />
    <glyph glyph-name="Igrave" unicode="&#xcc;" horiz-adv-x="167" 
d="M72 0q-9 -9 -15 -9t-15.5 7.5t-13.5 9.5q-5 67 -17 312.5t-12 342.5q0 6 0.5 15t0.5 12h-1q23 13 42 18q-2 -68 -2 -140q0 -333 33 -568zM-63 806q-2 2 -2 6q0 8 9.5 17t17.5 12q15 -15 30.5 -29.5t43 -38.5t53.5 -47q2 -2 2 -4q0 -8 -11 -8q-41 16 -143 92z" />
    <glyph glyph-name="Iacute" unicode="&#xcd;" horiz-adv-x="167" 
d="M72 0q-9 -9 -15 -9t-15.5 7.5t-13.5 9.5q-5 67 -17 312.5t-12 342.5q0 6 0.5 15t0.5 12h-1q23 13 42 18q-2 -68 -2 -140q0 -333 33 -568zM99 841q1 1 3 1q7 0 17 -14t10 -20q-44 -26 -143 -96l-4 -2q-6 0 -6 8q0 16 123 123z" />
    <glyph glyph-name="Icircumflex" unicode="&#xce;" horiz-adv-x="167" 
d="M72 0q-9 -9 -15 -9t-15.5 7.5t-13.5 9.5q-5 67 -17 312.5t-12 342.5q0 6 0.5 15t0.5 12h-1q23 13 42 18q-2 -68 -2 -140q0 -333 33 -568zM-38 708q-2 -2 -4 -2q-6 0 -17 12t-12 17q57 43 110 105q28 -50 80 -103q1 -1 1 -4q0 -8 -9 -8q-37 20 -75 61q-16 -20 -74 -78z
" />
    <glyph glyph-name="Idieresis" unicode="&#xcf;" horiz-adv-x="167" 
d="M72 0q-9 -9 -15 -9t-15.5 7.5t-13.5 9.5q-5 67 -17 312.5t-12 342.5q0 6 0.5 15t0.5 12h-1q23 13 42 18q-2 -68 -2 -140q0 -333 33 -568zM-29 787h3q8 0 14.5 -7.5t6.5 -16.5q0 -7 -12 -23t-17 -17q-16 2 -21 12q-3 6 -5 16q1 3 3 9.5t3 8t4 5.5t8 7t13 6zM78 726
q-10 0 -19.5 7.5t-9.5 15.5q0 2 2 6q6 6 10 14.5t9 10.5t19 2q11 0 16 -18q-1 -3 -3.5 -10t-4 -10.5t-6.5 -8.5t-13 -9z" />
    <glyph glyph-name="Eth" unicode="&#xd0;" horiz-adv-x="614" 
d="M178 691q6 -6 8.5 -13.5t3 -13.5t0.5 -20t1 -24q24 -13 80 -41.5t86.5 -44.5t75.5 -46t68.5 -55t41.5 -61t18 -74q0 -107 -87 -188t-219 -106q-24 -4 -35 -4q-39 0 -74.5 20.5t-35.5 53.5q0 13 7 22.5t12 9.5q3 0 3 -4l-2 -6q0 -24 13.5 -39.5t26 -20t30.5 -8.5
q3 -1 5 -1q-13 80 -25 260q-36 -4 -62 -4q-46 0 -46 19q0 4 14 18l91 9q-15 205 -23 261q-29 13 -51 25.5t-36 19t-34 12.5q-5 6 -5 12q0 3 2.5 9.5t3.5 11.5q37 -9 65.5 -22.5t49.5 -18.5q0 13 -1.5 21t-1.5 13q3 19 23 19q1 0 4 -0.5t5 -0.5zM266 303q-28 -7 -48 -11
q3 -35 8 -94.5t8.5 -104t5.5 -58.5q3 -1 11 -1q65 0 151 58t120 159q2 11 2 32q0 38 -16.5 72.5t-39 58t-61.5 48.5t-68 39.5t-76 36.5t-69 33q0 -21 10 -126l9 -105v-5l44 6q24 3 54.5 9t50 10t25.5 4q4 0 4 -2q0 -16 -40.5 -33t-84.5 -26z" />
    <glyph glyph-name="Ntilde" unicode="&#xd1;" horiz-adv-x="556" 
d="M173 705h3q46 0 46 -122q0 -10 -0.5 -27t-0.5 -23q0 -25 -0.5 -98t-1 -136.5t-0.5 -65.5q2 2 9.5 33t19 76.5t21.5 74.5l4 15q4 14 10 30.5t14.5 34t22 29t28.5 11.5q6 0 9 -1h4q30 0 50 -107.5t31 -229.5t17 -136q7 -11 20 -11q29 0 81 67q3 -6 3 -12q0 -38 -57 -85
q-20 -10 -36 -10q-39 0 -53 49q-4 19 -15.5 132t-25.5 203t-29 90q-7 0 -15.5 -15t-18 -43t-16.5 -50.5t-16 -55t-11 -37.5q-22 -72 -32 -128t-18 -164q-2 0 -4 -0.5t-4 -0.5q-9 0 -14.5 3t-11 8.5t-9.5 7.5q0 15 1 155.5t1 217.5l1 24q2 23 3.5 59t1.5 68q0 127 -25 127
q-35 0 -96.5 -129t-75.5 -200q-4 -11 -15 -18.5t-20 -7.5q-8 0 -11 6q19 75 56.5 164t87 158.5t87.5 69.5zM208 745l-20 18q22 42 58 42q22 0 39 -12q38 -28 61 -28q21 0 47 24q4 4 9 4q7 0 7 -8q0 -21 -25.5 -36.5t-47.5 -15.5q-20 0 -52.5 16.5t-39.5 16.5q-17 0 -36 -21z
" />
    <glyph glyph-name="Ograve" unicode="&#xd2;" horiz-adv-x="345" 
d="M345 461q4 -29 4 -64q0 -71 -21 -143.5t-51.5 -124t-64 -86t-58.5 -39.5q-13 -3 -35 -3q-114 0 -114 286q0 63 3 89q12 125 41 241q-27 2 -54 17.5t-27 27.5q73 -3 132.5 -13.5t97.5 -25.5t66 -33t43 -36t23.5 -36t11 -31t3.5 -22v-4zM49 260q2 -45 6.5 -77.5t14 -65.5
t28.5 -50.5t46 -17.5q32 0 67 47.5t57 99t32 89.5q10 40 10 85q-2 86 -25 131q-21 40 -75.5 70t-123.5 35q-9 -35 -23 -154t-14 -177v-15zM59 757q-2 2 -2 6q0 8 9.5 17t17.5 12q15 -15 30.5 -29.5t43 -38.5t53.5 -47q2 -2 2 -4q0 -8 -11 -8q-41 16 -143 92z" />
    <glyph glyph-name="Oacute" unicode="&#xd3;" horiz-adv-x="345" 
d="M345 461q4 -29 4 -64q0 -71 -21 -143.5t-51.5 -124t-64 -86t-58.5 -39.5q-13 -3 -35 -3q-114 0 -114 286q0 63 3 89q12 125 41 241q-27 2 -54 17.5t-27 27.5q73 -3 132.5 -13.5t97.5 -25.5t66 -33t43 -36t23.5 -36t11 -31t3.5 -22v-4zM49 260q2 -45 6.5 -77.5t14 -65.5
t28.5 -50.5t46 -17.5q32 0 67 47.5t57 99t32 89.5q10 40 10 85q-2 86 -25 131q-21 40 -75.5 70t-123.5 35q-9 -35 -23 -154t-14 -177v-15zM233 813q1 1 3 1q7 0 17 -14t10 -20q-44 -26 -143 -96l-4 -2q-6 0 -6 8q0 16 123 123z" />
    <glyph glyph-name="Ocircumflex" unicode="&#xd4;" horiz-adv-x="345" 
d="M345 461q4 -29 4 -64q0 -71 -21 -143.5t-51.5 -124t-64 -86t-58.5 -39.5q-13 -3 -35 -3q-114 0 -114 286q0 63 3 89q12 125 41 241q-27 2 -54 17.5t-27 27.5q73 -3 132.5 -13.5t97.5 -25.5t66 -33t43 -36t23.5 -36t11 -31t3.5 -22v-4zM49 260q2 -45 6.5 -77.5t14 -65.5
t28.5 -50.5t46 -17.5q32 0 67 47.5t57 99t32 89.5q10 40 10 85q-2 86 -25 131q-21 40 -75.5 70t-123.5 35q-9 -35 -23 -154t-14 -177v-15zM118 699q-2 -2 -4 -2q-6 0 -17 12t-12 17q57 43 110 105q28 -50 80 -103q1 -1 1 -4q0 -8 -9 -8q-37 20 -75 61q-16 -20 -74 -78z" />
    <glyph glyph-name="Otilde" unicode="&#xd5;" horiz-adv-x="345" 
d="M345 461q4 -29 4 -64q0 -71 -21 -143.5t-51.5 -124t-64 -86t-58.5 -39.5q-13 -3 -35 -3q-114 0 -114 286q0 63 3 89q12 125 41 241q-27 2 -54 17.5t-27 27.5q73 -3 132.5 -13.5t97.5 -25.5t66 -33t43 -36t23.5 -36t11 -31t3.5 -22v-4zM49 260q2 -45 6.5 -77.5t14 -65.5
t28.5 -50.5t46 -17.5q32 0 67 47.5t57 99t32 89.5q10 40 10 85q-2 86 -25 131q-21 40 -75.5 70t-123.5 35q-9 -35 -23 -154t-14 -177v-15zM73 710l-20 18q22 42 58 42q22 0 39 -12q38 -28 61 -28q21 0 47 24q4 4 9 4q7 0 7 -8q0 -21 -25.5 -36.5t-47.5 -15.5
q-20 0 -52.5 16.5t-39.5 16.5q-17 0 -36 -21z" />
    <glyph glyph-name="Odieresis" unicode="&#xd6;" horiz-adv-x="345" 
d="M345 461q4 -29 4 -64q0 -71 -21 -143.5t-51.5 -124t-64 -86t-58.5 -39.5q-13 -3 -35 -3q-114 0 -114 286q0 63 3 89q12 125 41 241q-27 2 -54 17.5t-27 27.5q73 -3 132.5 -13.5t97.5 -25.5t66 -33t43 -36t23.5 -36t11 -31t3.5 -22v-4zM49 260q2 -45 6.5 -77.5t14 -65.5
t28.5 -50.5t46 -17.5q32 0 67 47.5t57 99t32 89.5q10 40 10 85q-2 86 -25 131q-21 40 -75.5 70t-123.5 35q-9 -35 -23 -154t-14 -177v-15zM141 767h3q8 0 14.5 -7.5t6.5 -16.5q0 -7 -12 -23t-17 -17q-16 2 -21 12q-3 6 -5 16q1 3 3 9.5t3 8t4 5.5t8 7t13 6zM248 706
q-10 0 -19.5 7.5t-9.5 15.5q0 2 2 6q6 6 10 14.5t9 10.5t19 2q11 0 16 -18q-1 -3 -3.5 -10t-4 -10.5t-6.5 -8.5t-13 -9z" />
    <glyph glyph-name="multiply" unicode="&#xd7;" horiz-adv-x="361" 
d="M94 311q-1 1 -1 3q0 5 10.5 14t16.5 11q14 -19 79 -70l67 81q2 2 4 2q6 0 18 -20l-66 -81q1 -1 2 -1l87 -69q-14 -26 -33 -26q-9 0 -21.5 9t-33.5 29t-27 25q-40 -51 -61 -80q-20 6 -20 21q0 6 6.5 16.5t13.5 19t20 23t19 21.5z" />
    <glyph glyph-name="Oslash" unicode="&#xd8;" horiz-adv-x="345" 
d="M122 -67q-3 -2 -8 -2q-6 0 -15.5 4.5t-9.5 12.5q0 18 6 55q-90 28 -90 284q0 63 3 89q12 125 41 241q-27 2 -54 17.5t-27 27.5q142 -7 231 -40q7 52 7 62v4q9 19 39 19q11 0 16 -4q-6 -23 -23 -98q17 -8 31 -17.5t24 -19.5t18 -19t13 -19.5t9 -17.5t6 -16.5t3 -14t2 -12
t1 -8.5q4 -29 4 -64q0 -72 -21 -144t-51.5 -123.5t-64 -86t-58.5 -39.5q-12 -3 -23 -3zM285 501q-18 32 -57 59q-40 -191 -89 -511h5q32 0 67 47.5t57 99t32 89.5q10 40 10 85q0 81 -25 131zM49 260q9 -165 54 -200q11 69 44.5 258t44.5 261q-49 23 -106 27q-9 -35 -23 -154
t-14 -177v-15z" />
    <glyph glyph-name="Ugrave" unicode="&#xd9;" horiz-adv-x="487" 
d="M45 663q5 -1 8 -6.5t4.5 -15t2.5 -18.5t2 -22.5t2 -21.5q1 -11 7 -75.5t13 -133t15.5 -140.5t17 -118.5t15.5 -46.5q0 1 1 1q6 -2 9 -2q34 0 67 77.5t51 176.5t18 174q0 8 -1 22t-1 20q0 11 20 11q22 0 26 -12q0 -28 -3.5 -121t-3.5 -146q0 -111 13 -167t51 -56
q30 0 56 23t40.5 46t15.5 23q2 0 2 -8q0 -6 -3 -17q-62 -110 -122 -110q-40 0 -63.5 55t-23.5 150q0 16 1 24q-20 -57 -38 -98.5t-30.5 -63t-24.5 -33.5t-18.5 -14.5t-14.5 -2.5h-8q-6 -1 -17 -1q-17 0 -27.5 11t-19.5 44q-9 74 -29 272t-35 305q0 5 1 7.5t6.5 5t17.5 2.5z
M87 729q-2 2 -2 6q0 8 9.5 17t17.5 12q15 -15 30.5 -29.5t43 -38.5t53.5 -47q2 -2 2 -4q0 -8 -11 -8q-41 16 -143 92z" />
    <glyph glyph-name="Uacute" unicode="&#xda;" horiz-adv-x="487" 
d="M45 663q5 -1 8 -6.5t4.5 -15t2.5 -18.5t2 -22.5t2 -21.5q1 -11 7 -75.5t13 -133t15.5 -140.5t17 -118.5t15.5 -46.5q0 1 1 1q6 -2 9 -2q34 0 67 77.5t51 176.5t18 174q0 8 -1 22t-1 20q0 11 20 11q22 0 26 -12q0 -28 -3.5 -121t-3.5 -146q0 -111 13 -167t51 -56
q30 0 56 23t40.5 46t15.5 23q2 0 2 -8q0 -6 -3 -17q-62 -110 -122 -110q-40 0 -63.5 55t-23.5 150q0 16 1 24q-20 -57 -38 -98.5t-30.5 -63t-24.5 -33.5t-18.5 -14.5t-14.5 -2.5h-8q-6 -1 -17 -1q-17 0 -27.5 11t-19.5 44q-9 74 -29 272t-35 305q0 5 1 7.5t6.5 5t17.5 2.5z
M259 766q1 1 3 1q7 0 17 -14t10 -20q-44 -26 -143 -96l-4 -2q-6 0 -6 8q0 16 123 123z" />
    <glyph glyph-name="Ucircumflex" unicode="&#xdb;" horiz-adv-x="487" 
d="M45 663q5 -1 8 -6.5t4.5 -15t2.5 -18.5t2 -22.5t2 -21.5q1 -11 7 -75.5t13 -133t15.5 -140.5t17 -118.5t15.5 -46.5q0 1 1 1q6 -2 9 -2q34 0 67 77.5t51 176.5t18 174q0 8 -1 22t-1 20q0 11 20 11q22 0 26 -12q0 -28 -3.5 -121t-3.5 -146q0 -111 13 -167t51 -56
q30 0 56 23t40.5 46t15.5 23q2 0 2 -8q0 -6 -3 -17q-62 -110 -122 -110q-40 0 -63.5 55t-23.5 150q0 16 1 24q-20 -57 -38 -98.5t-30.5 -63t-24.5 -33.5t-18.5 -14.5t-14.5 -2.5h-8q-6 -1 -17 -1q-17 0 -27.5 11t-19.5 44q-9 74 -29 272t-35 305q0 5 1 7.5t6.5 5t17.5 2.5z
M110 669q-2 -2 -4 -2q-6 0 -17 12t-12 17q57 43 110 105q28 -50 80 -103q1 -1 1 -4q0 -8 -9 -8q-37 20 -75 61q-16 -20 -74 -78z" />
    <glyph glyph-name="Udieresis" unicode="&#xdc;" horiz-adv-x="487" 
d="M45 663q5 -1 8 -6.5t4.5 -15t2.5 -18.5t2 -22.5t2 -21.5q1 -11 7 -75.5t13 -133t15.5 -140.5t17 -118.5t15.5 -46.5q0 1 1 1q6 -2 9 -2q34 0 67 77.5t51 176.5t18 174q0 8 -1 22t-1 20q0 11 20 11q22 0 26 -12q0 -28 -3.5 -121t-3.5 -146q0 -111 13 -167t51 -56
q30 0 56 23t40.5 46t15.5 23q2 0 2 -8q0 -6 -3 -17q-62 -110 -122 -110q-40 0 -63.5 55t-23.5 150q0 16 1 24q-20 -57 -38 -98.5t-30.5 -63t-24.5 -33.5t-18.5 -14.5t-14.5 -2.5h-8q-6 -1 -17 -1q-17 0 -27.5 11t-19.5 44q-9 74 -29 272t-35 305q0 5 1 7.5t6.5 5t17.5 2.5z
M145 736h3q8 0 14.5 -7.5t6.5 -16.5q0 -7 -12 -23t-17 -17q-16 2 -21 12q-3 6 -5 16q1 3 3 9.5t3 8t4 5.5t8 7t13 6zM252 675q-10 0 -19.5 7.5t-9.5 15.5q0 2 2 6q6 6 10 14.5t9 10.5t19 2q11 0 16 -18q-1 -3 -3.5 -10t-4 -10.5t-6.5 -8.5t-13 -9z" />
    <glyph glyph-name="Yacute" unicode="&#xdd;" horiz-adv-x="205" 
d="M189 279q-21 -120 -51 -245.5t-48 -148.5q-4 -1 -12 -1q-23 0 -23 11q0 1 2 5q67 145 96 390q-47 0 -91.5 53.5t-72 128.5t-35.5 149q0 9 18 9l32 -4q24 -250 154 -310q15 89 15 252q0 67 -2 83q7 10 16 10q6 0 25 -7q0 -6 0.5 -19t0.5 -21q0 -83 -8 -190t-16 -145z
M169 826q1 1 3 1q7 0 17 -14t10 -20q-44 -26 -143 -96l-4 -2q-6 0 -6 8q0 16 123 123z" />
    <glyph glyph-name="Thorn" unicode="&#xde;" horiz-adv-x="324" 
d="M120 -1q-4 0 -11.5 -0.5t-11.5 -0.5q-15 0 -20 10q-3 62 -6 173q-12 -4 -22 -8.5t-16 -7t-10.5 -4.5t-6.5 -3.5t-4 -2t-3 -0.5q-11 0 -11 16q0 12 5 19.5t11 10.5t24 11t32 16q-4 145 -5 241q-13 -3 -42.5 -22.5t-39.5 -36.5q-6 -6 -10 -14t-5.5 -12.5t-3.5 -4.5
q-1 0 -4 6q5 42 36.5 75t68.5 47q0 12 -0.5 33t-0.5 31q0 83 3 120h-1q8 7 19 7q15 0 24 -14q-5 -98 -6 -163q33 16 79 16q68 0 101.5 -25.5t33.5 -67.5q0 -64 -63 -134t-149 -109q6 -124 15 -202zM102 476q-1 -29 -1 -90q0 -44 2 -138q58 23 108 72t67 116q0 1 0.5 3.5
t0.5 3.5q0 22 -26 35.5t-66 13.5q-43 0 -85 -16z" />
    <glyph glyph-name="germandbls" unicode="&#xdf;" horiz-adv-x="350" 
d="M114 327q11 23 35.5 37.5t42.5 26.5t18 34q0 27 -20.5 47t-47.5 20q-19 0 -34 -12.5t-24 -36t-14.5 -48.5t-8 -59t-3.5 -58.5t-1.5 -55.5t-1.5 -42l1 -38q2 -73 9.5 -170.5t8.5 -143.5q-3 -8 -12 -8q-6 0 -16 2h-1q-4 0 -4 6q-1 4 -1 24q-3 114 -16 287l-2 36
q-2 52 -2 73q0 58 5.5 105t13 76t19.5 50t21.5 31t22.5 15.5t19 6t14 0.5q42 0 72.5 -36t30.5 -70q0 -22 -10.5 -37.5t-24.5 -23t-31 -21t-26 -29.5q-2 -6 -2 -9q-2 -21 44 -46q105 -58 137 -97q21 -25 21 -47q0 -37 -33.5 -65t-77.5 -28q-14 0 -26 1.5t-21.5 5t-17 7t-14 9
t-10.5 9.5t-8.5 10t-6.5 9t-5 8.5t-3 6.5t2 1q5 0 24 -13q29 -20 76 -20q36 0 62 13t26 37q0 31 -30 56.5t-76.5 48.5t-56.5 30l-16 12q-25 25 -25 51q0 13 5 22z" />
    <glyph glyph-name="agrave" unicode="&#xe0;" horiz-adv-x="291" 
d="M213 294q-23 -138 -23 -184q0 -33 7 -46.5t25 -13.5q29 0 86 68q1 0 1 -2q0 -28 -36.5 -66t-73.5 -38q-38 0 -38 65q0 35 7 73q-34 -62 -76.5 -106.5t-72.5 -44.5q-16 0 -26.5 13.5t-10.5 39.5q0 48 24 90q89 153 187 153q13 0 20 -1zM25 40h2q28 0 81 70t64 149h-7
q-11 0 -22 -6q-57 -37 -91.5 -94.5t-34.5 -95.5q0 -17 8 -23zM38 421q-2 2 -2 6q0 8 9.5 17t17.5 12q15 -15 30.5 -29.5t43 -38.5t53.5 -47q2 -2 2 -4q0 -8 -11 -8q-41 16 -143 92z" />
    <glyph glyph-name="aacute" unicode="&#xe1;" horiz-adv-x="291" 
d="M213 294q-23 -138 -23 -184q0 -33 7 -46.5t25 -13.5q29 0 86 68q1 0 1 -2q0 -28 -36.5 -66t-73.5 -38q-38 0 -38 65q0 35 7 73q-34 -62 -76.5 -106.5t-72.5 -44.5q-16 0 -26.5 13.5t-10.5 39.5q0 48 24 90q89 153 187 153q13 0 20 -1zM25 40h2q28 0 81 70t64 149h-7
q-11 0 -22 -6q-57 -37 -91.5 -94.5t-34.5 -95.5q0 -17 8 -23zM193 428q1 1 3 1q7 0 17 -14t10 -20q-44 -26 -143 -96l-4 -2q-6 0 -6 8q0 16 123 123z" />
    <glyph glyph-name="acircumflex" unicode="&#xe2;" horiz-adv-x="291" 
d="M213 294q-23 -138 -23 -184q0 -33 7 -46.5t25 -13.5q29 0 86 68q1 0 1 -2q0 -28 -36.5 -66t-73.5 -38q-38 0 -38 65q0 35 7 73q-34 -62 -76.5 -106.5t-72.5 -44.5q-16 0 -26.5 13.5t-10.5 39.5q0 48 24 90q89 153 187 153q13 0 20 -1zM25 40h2q28 0 81 70t64 149h-7
q-11 0 -22 -6q-57 -37 -91.5 -94.5t-34.5 -95.5q0 -17 8 -23zM64 319q-2 -2 -4 -2q-6 0 -17 12t-12 17q57 43 110 105q28 -50 80 -103q1 -1 1 -4q0 -8 -9 -8q-37 20 -75 61q-16 -20 -74 -78z" />
    <glyph glyph-name="atilde" unicode="&#xe3;" horiz-adv-x="291" 
d="M213 294q-23 -138 -23 -184q0 -33 7 -46.5t25 -13.5q29 0 86 68q1 0 1 -2q0 -28 -36.5 -66t-73.5 -38q-38 0 -38 65q0 35 7 73q-34 -62 -76.5 -106.5t-72.5 -44.5q-16 0 -26.5 13.5t-10.5 39.5q0 48 24 90q89 153 187 153q13 0 20 -1zM25 40h2q28 0 81 70t64 149h-7
q-11 0 -22 -6q-57 -37 -91.5 -94.5t-34.5 -95.5q0 -17 8 -23zM46 364l-20 18q22 42 58 42q22 0 39 -12q38 -28 61 -28q21 0 47 24q4 4 9 4q7 0 7 -8q0 -21 -25.5 -36.5t-47.5 -15.5q-20 0 -52.5 16.5t-39.5 16.5q-17 0 -36 -21z" />
    <glyph glyph-name="adieresis" unicode="&#xe4;" horiz-adv-x="291" 
d="M213 294q-23 -138 -23 -184q0 -33 7 -46.5t25 -13.5q29 0 86 68q1 0 1 -2q0 -28 -36.5 -66t-73.5 -38q-38 0 -38 65q0 35 7 73q-34 -62 -76.5 -106.5t-72.5 -44.5q-16 0 -26.5 13.5t-10.5 39.5q0 48 24 90q89 153 187 153q13 0 20 -1zM25 40h2q28 0 81 70t64 149h-7
q-11 0 -22 -6q-57 -37 -91.5 -94.5t-34.5 -95.5q0 -17 8 -23zM104 415h3q8 0 14.5 -7.5t6.5 -16.5q0 -7 -12 -23t-17 -17q-16 2 -21 12q-3 6 -5 16q1 3 3 9.5t3 8t4 5.5t8 7t13 6zM211 354q-10 0 -19.5 7.5t-9.5 15.5q0 2 2 6q6 6 10 14.5t9 10.5t19 2q11 0 16 -18
q-1 -3 -3.5 -10t-4 -10.5t-6.5 -8.5t-13 -9z" />
    <glyph glyph-name="aring" unicode="&#xe5;" horiz-adv-x="291" 
d="M198 438q19 -7 19 -36q0 -6 -5 -24.5t-25.5 -42.5t-51.5 -24q-22 0 -33.5 13.5t-11.5 31.5q0 33 22 61t56 28q16 0 30 -7zM123 346q2 -2 7 -2q16 0 36 23t20 40q0 15 -17 15t-34 -20.5t-17 -39.5q0 -11 5 -16zM213 294q-23 -138 -23 -184q0 -33 7 -46.5t25 -13.5
q29 0 86 68q1 0 1 -2q0 -28 -36.5 -66t-73.5 -38q-38 0 -38 65q0 35 7 73q-34 -62 -76.5 -106.5t-72.5 -44.5q-16 0 -26.5 13.5t-10.5 39.5q0 48 24 90q89 153 187 153q13 0 20 -1zM25 40h2q28 0 81 70t64 149h-7q-11 0 -22 -6q-57 -37 -91.5 -94.5t-34.5 -95.5q0 -17 8 -23
z" />
    <glyph glyph-name="ae" unicode="&#xe6;" horiz-adv-x="380" 
d="M206 273q22 17 57 17q49 0 49 -47q0 -88 -129 -180q11 -30 40 -30q39 0 109 61q35 32 62 62q1 0 1 -3l-3 -20q-2 -7 -24.5 -36.5t-63 -62t-76.5 -32.5q-42 0 -65.5 27t-25.5 71q-69 -101 -118 -101q-16 0 -26.5 13.5t-10.5 39.5q0 64 62 150t121 86q22 0 41 -15zM25 40
q14 -3 46 27t63.5 84.5t37.5 107.5h-7q-11 0 -22 -6q-57 -37 -91.5 -94.5t-34.5 -95.5q0 -17 8 -23zM177 106q38 20 71 57t33 81q0 16 -18 16q-30 0 -58 -52.5t-28 -101.5z" />
    <glyph glyph-name="ccedilla" unicode="&#xe7;" horiz-adv-x="239" 
d="M161 -78q-3 23 -48 23q-23 0 -46 -5q-2 1 -2 12q0 26 6 53q-1 0 -4.5 -0.5t-4.5 -0.5q-13 0 -21.5 2.5t-18.5 9t-15 23t-5 41.5q0 50 25.5 109.5t54.5 82.5q30 23 64 23q7 0 21 -2q0 -6 -17 -15.5t-43.5 -33.5t-44.5 -61q-26 -55 -26 -83q0 -52 31 -54q12 2 22.5 5
t21.5 8.5t17.5 9t18 12t15.5 11.5t17.5 13.5t16.5 13.5q21 20 41 42.5t28.5 30.5t15.5 8h4q-14 -32 -63 -91t-109 -88q-6 -29 -7 -42q18 2 26 2q34 0 53.5 -13.5t19.5 -36.5q0 -50 -39.5 -72.5t-88.5 -22.5q-21 0 -35 7.5t-14 17.5q0 3 6 3q4 0 14 -0.5t14 -0.5q41 0 70 15
t29 44z" />
    <glyph glyph-name="egrave" unicode="&#xe8;" horiz-adv-x="250" 
d="M90 283q24 8 33 8q59 0 59 -44q0 -90 -130 -184q11 -30 40 -30q39 0 109 61q36 31 60 61l2 1q1 0 1 -3v-6l-3 -14q-2 -7 -24.5 -36.5t-63 -62t-76.5 -32.5q-31 0 -52.5 15t-27 26.5t-6.5 19.5q-5 17 -5 38q0 43 21.5 101t62.5 81zM46 106q38 20 71 57.5t33 81.5
q0 15 -18 15q-30 0 -58 -52.5t-28 -101.5zM8 421q-2 2 -2 6q0 8 9.5 17t17.5 12q15 -15 30.5 -29.5t43 -38.5t53.5 -47q2 -2 2 -4q0 -8 -11 -8q-41 16 -143 92z" />
    <glyph glyph-name="eacute" unicode="&#xe9;" horiz-adv-x="250" 
d="M90 283q24 8 33 8q59 0 59 -44q0 -90 -130 -184q11 -30 40 -30q39 0 109 61q36 31 60 61l2 1q1 0 1 -3v-6l-3 -14q-2 -7 -24.5 -36.5t-63 -62t-76.5 -32.5q-31 0 -52.5 15t-27 26.5t-6.5 19.5q-5 17 -5 38q0 43 21.5 101t62.5 81zM46 106q38 20 71 57.5t33 81.5
q0 15 -18 15q-30 0 -58 -52.5t-28 -101.5zM174 450q1 1 3 1q7 0 17 -14t10 -20q-44 -26 -143 -96l-4 -2q-6 0 -6 8q0 16 123 123z" />
    <glyph glyph-name="ecircumflex" unicode="&#xea;" horiz-adv-x="250" 
d="M90 283q24 8 33 8q59 0 59 -44q0 -90 -130 -184q11 -30 40 -30q39 0 109 61q36 31 60 61l2 1q1 0 1 -3v-6l-3 -14q-2 -7 -24.5 -36.5t-63 -62t-76.5 -32.5q-31 0 -52.5 15t-27 26.5t-6.5 19.5q-5 17 -5 38q0 43 21.5 101t62.5 81zM46 106q38 20 71 57.5t33 81.5
q0 15 -18 15q-30 0 -58 -52.5t-28 -101.5zM56 319q-2 -2 -4 -2q-6 0 -17 12t-12 17q57 43 110 105q28 -50 80 -103q1 -1 1 -4q0 -8 -9 -8q-37 20 -75 61q-16 -20 -74 -78z" />
    <glyph glyph-name="edieresis" unicode="&#xeb;" horiz-adv-x="250" 
d="M90 283q24 8 33 8q59 0 59 -44q0 -90 -130 -184q11 -30 40 -30q39 0 109 61q36 31 60 61l2 1q1 0 1 -3v-6l-3 -14q-2 -7 -24.5 -36.5t-63 -62t-76.5 -32.5q-31 0 -52.5 15t-27 26.5t-6.5 19.5q-5 17 -5 38q0 43 21.5 101t62.5 81zM46 106q38 20 71 57.5t33 81.5
q0 15 -18 15q-30 0 -58 -52.5t-28 -101.5zM74 415h3q8 0 14.5 -7.5t6.5 -16.5q0 -7 -12 -23t-17 -17q-16 2 -21 12q-3 6 -5 16q1 3 3 9.5t3 8t4 5.5t8 7t13 6zM181 354q-10 0 -19.5 7.5t-9.5 15.5q0 2 2 6q6 6 10 14.5t9 10.5t19 2q11 0 16 -18q-1 -3 -3.5 -10t-4 -10.5
t-6.5 -8.5t-13 -9z" />
    <glyph glyph-name="igrave" unicode="&#xec;" horiz-adv-x="125" 
d="M59 310q4 -33 7 -109.5t7 -116.5q2 -25 8 -53t6 -31q-5 -1 -13 -1q-16 0 -29 10q-3 24 -10 142t-9 141q3 1 9.5 10t15.5 9q5 0 8 -1zM-32 421q-2 2 -2 6q0 8 9.5 17t17.5 12q15 -15 30.5 -29.5t43 -38.5t53.5 -47q2 -2 2 -4q0 -8 -11 -8q-41 16 -143 92z" />
    <glyph glyph-name="iacute" unicode="&#xed;" horiz-adv-x="125" 
d="M59 310q4 -33 7 -109.5t7 -116.5q2 -25 8 -53t6 -31q-5 -1 -13 -1q-16 0 -29 10q-3 24 -10 142t-9 141q3 1 9.5 10t15.5 9q5 0 8 -1zM110 450q1 1 3 1q7 0 17 -14t10 -20q-44 -26 -143 -96l-4 -2q-6 0 -6 8q0 16 123 123z" />
    <glyph glyph-name="icircumflex" unicode="&#xee;" horiz-adv-x="125" 
d="M59 310q4 -33 7 -109.5t7 -116.5q2 -25 8 -53t6 -31q-5 -1 -13 -1q-16 0 -29 10q-3 24 -10 142t-9 141q3 1 9.5 10t15.5 9q5 0 8 -1zM-17 319q-2 -2 -4 -2q-6 0 -17 12t-12 17q57 43 110 105q28 -50 80 -103q1 -1 1 -4q0 -8 -9 -8q-37 20 -75 61q-16 -20 -74 -78z" />
    <glyph glyph-name="idieresis" unicode="&#xef;" horiz-adv-x="125" 
d="M59 310q4 -33 7 -109.5t7 -116.5q2 -25 8 -53t6 -31q-5 -1 -13 -1q-16 0 -29 10q-3 24 -10 142t-9 141q3 1 9.5 10t15.5 9q5 0 8 -1zM11 415h3q8 0 14.5 -7.5t6.5 -16.5q0 -7 -12 -23t-17 -17q-16 2 -21 12q-3 6 -5 16q1 3 3 9.5t3 8t4 5.5t8 7t13 6zM118 354
q-10 0 -19.5 7.5t-9.5 15.5q0 2 2 6q6 6 10 14.5t9 10.5t19 2q11 0 16 -18q-1 -3 -3.5 -10t-4 -10.5t-6.5 -8.5t-13 -9z" />
    <glyph glyph-name="eth" unicode="&#xf0;" horiz-adv-x="357" 
d="M225 513q1 1 3 1q7 0 17 -14t10 -20l-45 -28q90 -78 90 -256q0 -97 -28.5 -149.5t-102.5 -52.5q-44 0 -70.5 39.5t-26.5 86.5q0 63 43 110t123 47q3 0 9 -0.5t10 -0.5q-20 110 -73 158l-72 -50l-4 -2q-6 0 -6 8q0 9 57 64q-31 21 -83 41l1 9q2 9 14 14q57 -23 90 -44z
M259 244h-17q-66 0 -98 -34.5t-32 -82.5q0 -42 19 -68t49 -26q28 0 47.5 29t27 65.5t7.5 74.5q0 26 -3 42z" />
    <glyph glyph-name="ntilde" unicode="&#xf1;" horiz-adv-x="264" 
d="M47 305q0 -136 -4 -200q0 21 33.5 96.5t59.5 75.5q4 0 6 -1q27 -12 36 -39t14.5 -72.5t19.5 -78.5q7 -17 22.5 -25t27 -9.5t11.5 -3.5q0 -6 -14.5 -10.5t-19.5 -4.5q-23 0 -40.5 30.5t-25.5 67t-16 67t-15 30.5q-23 -3 -55.5 -92t-44.5 -136q-5 0 -10.5 -0.5t-6.5 -0.5
q-5 0 -13 10q4 61 4 134q0 51 -5 169q0 9 5 9q4 0 16 -8t15 -8zM21 374l-20 18q22 42 58 42q22 0 39 -12q38 -28 61 -28q21 0 47 24q4 4 9 4q7 0 7 -8q0 -21 -25.5 -36.5t-47.5 -15.5q-20 0 -52.5 16.5t-39.5 16.5q-17 0 -36 -21z" />
    <glyph glyph-name="ograve" unicode="&#xf2;" horiz-adv-x="198" 
d="M5 300q42 -2 89 -18t69 -38q15 -15 15 -47q0 -57 -34.5 -126.5t-64.5 -69.5q-16 0 -28.5 5t-21 13.5t-15 19t-10 23.5t-5.5 24.5t-2.5 24t-0.5 21t0.5 16.5t0.5 9q0 62 8 102l-6 9q-8 10 -13 14q11 4 19 18zM41 62q12 -17 29 -17q12 0 24 12q53 54 53 119q0 38 -16.5 50
t-83.5 31q-17 -54 -17 -117q0 -60 11 -78zM-2 409q-2 2 -2 6q0 8 9.5 17t17.5 12q15 -15 30.5 -29.5t43 -38.5t53.5 -47q2 -2 2 -4q0 -8 -11 -8q-41 16 -143 92z" />
    <glyph glyph-name="oacute" unicode="&#xf3;" horiz-adv-x="198" 
d="M5 300q42 -2 89 -18t69 -38q15 -15 15 -47q0 -57 -34.5 -126.5t-64.5 -69.5q-16 0 -28.5 5t-21 13.5t-15 19t-10 23.5t-5.5 24.5t-2.5 24t-0.5 21t0.5 16.5t0.5 9q0 62 8 102l-6 9q-8 10 -13 14q11 4 19 18zM41 62q12 -17 29 -17q12 0 24 12q53 54 53 119q0 38 -16.5 50
t-83.5 31q-17 -54 -17 -117q0 -60 11 -78zM139 462q1 1 3 1q7 0 17 -14t10 -20q-44 -26 -143 -96l-4 -2q-6 0 -6 8q0 16 123 123z" />
    <glyph glyph-name="ocircumflex" unicode="&#xf4;" horiz-adv-x="198" 
d="M5 300q42 -2 89 -18t69 -38q15 -15 15 -47q0 -57 -34.5 -126.5t-64.5 -69.5q-16 0 -28.5 5t-21 13.5t-15 19t-10 23.5t-5.5 24.5t-2.5 24t-0.5 21t0.5 16.5t0.5 9q0 62 8 102l-6 9q-8 10 -13 14q11 4 19 18zM41 62q12 -17 29 -17q12 0 24 12q53 54 53 119q0 38 -16.5 50
t-83.5 31q-17 -54 -17 -117q0 -60 11 -78zM30 319q-2 -2 -4 -2q-6 0 -17 12t-12 17q57 43 110 105q28 -50 80 -103q1 -1 1 -4q0 -8 -9 -8q-37 20 -75 61q-16 -20 -74 -78z" />
    <glyph glyph-name="otilde" unicode="&#xf5;" horiz-adv-x="198" 
d="M5 300q42 -2 89 -18t69 -38q15 -15 15 -47q0 -57 -34.5 -126.5t-64.5 -69.5q-16 0 -28.5 5t-21 13.5t-15 19t-10 23.5t-5.5 24.5t-2.5 24t-0.5 21t0.5 16.5t0.5 9q0 62 8 102l-6 9q-8 10 -13 14q11 4 19 18zM41 62q12 -17 29 -17q12 0 24 12q53 54 53 119q0 38 -16.5 50
t-83.5 31q-17 -54 -17 -117q0 -60 11 -78zM6 356l-20 18q22 42 58 42q22 0 39 -12q38 -28 61 -28q21 0 47 24q4 4 9 4q7 0 7 -8q0 -21 -25.5 -36.5t-47.5 -15.5q-20 0 -52.5 16.5t-39.5 16.5q-17 0 -36 -21z" />
    <glyph glyph-name="odieresis" unicode="&#xf6;" horiz-adv-x="198" 
d="M5 300q42 -2 89 -18t69 -38q15 -15 15 -47q0 -57 -34.5 -126.5t-64.5 -69.5q-16 0 -28.5 5t-21 13.5t-15 19t-10 23.5t-5.5 24.5t-2.5 24t-0.5 21t0.5 16.5t0.5 9q0 62 8 102l-6 9q-8 10 -13 14q11 4 19 18zM41 62q12 -17 29 -17q12 0 24 12q53 54 53 119q0 38 -16.5 50
t-83.5 31q-17 -54 -17 -117q0 -60 11 -78zM48 415h3q8 0 14.5 -7.5t6.5 -16.5q0 -7 -12 -23t-17 -17q-16 2 -21 12q-3 6 -5 16q1 3 3 9.5t3 8t4 5.5t8 7t13 6zM155 354q-10 0 -19.5 7.5t-9.5 15.5q0 2 2 6q6 6 10 14.5t9 10.5t19 2q11 0 16 -18q-1 -3 -3.5 -10t-4 -10.5
t-6.5 -8.5t-13 -9z" />
    <glyph glyph-name="divide" unicode="&#xf7;" horiz-adv-x="283" 
d="M245 223q6 0 6 -7t-6 -19h-18q-37 0 -113.5 -4t-89.5 -6q-2 4 -2 12q0 22 29 22h70q78 0 124 2zM145 298q1 0 3.5 -1.5t4.5 -3t4.5 -3.5t3.5 -4.5t1 -5.5q0 -25 -22 -25q-21 6 -21 18q0 9 7.5 17t18.5 8zM145 164q4 0 10.5 -5.5t6.5 -11.5q0 -25 -22 -25q-9 0 -15 6
t-6 12q0 8 6.5 16t15.5 8h4z" />
    <glyph glyph-name="oslash" unicode="&#xf8;" horiz-adv-x="198" 
d="M49 -60q-2 -2 -7 -2q-4 0 -12 4.5t-8 10.5q0 19 11 65q-11 10 -18 22.5t-11 23.5t-5.5 27t-2 24t0 24t0.5 18q0 62 8 102l-6 9q-8 10 -13 14q11 4 19 18q46 -3 93 -20q1 5 2.5 13t2.5 11.5t2.5 9t2.5 8t2.5 6t3 5t4 3.5t6 2.5l7 1t8.5 0.5q8 0 13 -4l-20 -71
q25 -13 35.5 -26.5t10.5 -41.5q0 -57 -34.5 -126.5t-64.5 -69.5q-7 0 -17 2q-12 -54 -13 -63zM41 62q0 -1 2 -3q6 23 23 89t24 96l-43 13q-17 -54 -17 -117q0 -60 11 -78zM130 226l-8 4q-29 -104 -49 -185q11 1 21 12q53 54 53 119q0 35 -17 50z" />
    <glyph glyph-name="ugrave" unicode="&#xf9;" 
d="M63 44q1 -1 3 -1q18 0 50.5 72.5t32.5 126.5q0 12 -1 17q0 9 17 9q10 0 22 -3q-11 -117 -11 -139q0 -81 30 -81q16 0 46 26.5t34 26.5h1l1 -1q-7 -29 -37.5 -53t-59.5 -24q-11 0 -17.5 4t-10.5 15t-5.5 19t-4 29t-3.5 31q-18 -37 -26.5 -52.5t-21.5 -36.5t-23.5 -28.5
t-22.5 -7.5q-26 0 -33.5 49t-5 125t-3.5 169q12 0 19.5 -2.5t11.5 -4t6 -10.5t2 -12.5v-19.5q0 -21 -3 -83t-4 -99q0 -53 17 -61zM12 415q-2 2 -2 6q0 8 9.5 17t17.5 12q15 -15 30.5 -29.5t43 -38.5t53.5 -47q2 -2 2 -4q0 -8 -11 -8q-41 16 -143 92z" />
    <glyph glyph-name="uacute" unicode="&#xfa;" 
d="M63 44q1 -1 3 -1q18 0 50.5 72.5t32.5 126.5q0 12 -1 17q0 9 17 9q10 0 22 -3q-11 -117 -11 -139q0 -81 30 -81q16 0 46 26.5t34 26.5h1l1 -1q-7 -29 -37.5 -53t-59.5 -24q-11 0 -17.5 4t-10.5 15t-5.5 19t-4 29t-3.5 31q-18 -37 -26.5 -52.5t-21.5 -36.5t-23.5 -28.5
t-22.5 -7.5q-26 0 -33.5 49t-5 125t-3.5 169q12 0 19.5 -2.5t11.5 -4t6 -10.5t2 -12.5v-19.5q0 -21 -3 -83t-4 -99q0 -53 17 -61zM191 490q1 1 3 1q7 0 17 -14t10 -20q-44 -26 -143 -96l-4 -2q-6 0 -6 8q0 16 123 123z" />
    <glyph glyph-name="ucircumflex" unicode="&#xfb;" 
d="M63 44q1 -1 3 -1q18 0 50.5 72.5t32.5 126.5q0 12 -1 17q0 9 17 9q10 0 22 -3q-11 -117 -11 -139q0 -81 30 -81q16 0 46 26.5t34 26.5h1l1 -1q-7 -29 -37.5 -53t-59.5 -24q-11 0 -17.5 4t-10.5 15t-5.5 19t-4 29t-3.5 31q-18 -37 -26.5 -52.5t-21.5 -36.5t-23.5 -28.5
t-22.5 -7.5q-26 0 -33.5 49t-5 125t-3.5 169q12 0 19.5 -2.5t11.5 -4t6 -10.5t2 -12.5v-19.5q0 -21 -3 -83t-4 -99q0 -53 17 -61zM52 360q-2 -2 -4 -2q-6 0 -17 12t-12 17q57 43 110 105q28 -50 80 -103q1 -1 1 -4q0 -8 -9 -8q-37 20 -75 61q-16 -20 -74 -78z" />
    <glyph glyph-name="udieresis" unicode="&#xfc;" 
d="M63 44q1 -1 3 -1q18 0 50.5 72.5t32.5 126.5q0 12 -1 17q0 9 17 9q10 0 22 -3q-11 -117 -11 -139q0 -81 30 -81q16 0 46 26.5t34 26.5h1l1 -1q-7 -29 -37.5 -53t-59.5 -24q-11 0 -17.5 4t-10.5 15t-5.5 19t-4 29t-3.5 31q-18 -37 -26.5 -52.5t-21.5 -36.5t-23.5 -28.5
t-22.5 -7.5q-26 0 -33.5 49t-5 125t-3.5 169q12 0 19.5 -2.5t11.5 -4t6 -10.5t2 -12.5v-19.5q0 -21 -3 -83t-4 -99q0 -53 17 -61zM84 415h3q8 0 14.5 -7.5t6.5 -16.5q0 -7 -12 -23t-17 -17q-16 2 -21 12q-3 6 -5 16q1 3 3 9.5t3 8t4 5.5t8 7t13 6zM191 354q-10 0 -19.5 7.5
t-9.5 15.5q0 2 2 6q6 6 10 14.5t9 10.5t19 2q11 0 16 -18q-1 -3 -3.5 -10t-4 -10.5t-6.5 -8.5t-13 -9z" />
    <glyph glyph-name="yacute" unicode="&#xfd;" horiz-adv-x="306" 
d="M76 70q3 -2 9 -2q24 0 49.5 48t41.5 136h2q6 0 21.5 -5t15.5 -8q0 -14 -5.5 -72.5t-5.5 -95.5q0 -4 0.5 -11.5t0.5 -11.5q50 43 116 50q11 -6 11 -8q0 -1 -5 -4q-59 -17 -121 -72q0 -24 1 -81.5t1 -86.5q0 -108 -11.5 -153t-51.5 -45q-79 0 -79 127q0 72 30 145.5
t75 102.5q3 54 3 106q-14 -39 -41.5 -74t-60.5 -35q-20 0 -34.5 16.5t-18.5 44.5q-7 58 -21 234q4 2 10 2q11 0 20 -7q4 0 5.5 -55t11 -115t31.5 -70zM178 -14q-13 -13 -25 -28q-23 -29 -41 -85.5t-18 -106.5q0 -85 53 -85q35 0 35 153q0 40 -2 95t-2 57zM200 450q1 1 3 1
q7 0 17 -14t10 -20q-44 -26 -143 -96l-4 -2q-6 0 -6 8q0 16 123 123z" />
    <glyph glyph-name="thorn" unicode="&#xfe;" horiz-adv-x="241" 
d="M9 627q1 0 6 1.5t8 1.5q16 0 17 -37q2 -50 5.5 -218.5t5.5 -219.5q5 16 16 39.5t28.5 51.5t42.5 47t50 19q49 0 49 -76q0 -74 -49.5 -143.5t-121.5 -69.5q0 -103 2 -204.5t2 -109.5q0 -30 -2.5 -40t-10.5 -10q-5 0 -16 3l-1 -1l-2 6q-2 20 -2 50q1 69 -4 277
q-9 122 -10 152q-2 104 -9 252t-7 204q0 26 3 25zM157 265q-30 -17 -59.5 -79.5t-33.5 -127.5q8 -2 13 -2q47 0 89 64t42 117q0 40 -24 40q-13 0 -27 -12z" />
    <glyph glyph-name="ydieresis" unicode="&#xff;" horiz-adv-x="306" 
d="M76 70q3 -2 9 -2q24 0 49.5 48t41.5 136h2q6 0 21.5 -5t15.5 -8q0 -14 -5.5 -72.5t-5.5 -95.5q0 -4 0.5 -11.5t0.5 -11.5q50 43 116 50q11 -6 11 -8q0 -1 -5 -4q-59 -17 -121 -72q0 -24 1 -81.5t1 -86.5q0 -108 -11.5 -153t-51.5 -45q-79 0 -79 127q0 72 30 145.5
t75 102.5q3 54 3 106q-14 -39 -41.5 -74t-60.5 -35q-20 0 -34.5 16.5t-18.5 44.5q-7 58 -21 234q4 2 10 2q11 0 20 -7q4 0 5.5 -55t11 -115t31.5 -70zM178 -14q-13 -13 -25 -28q-23 -29 -41 -85.5t-18 -106.5q0 -85 53 -85q35 0 35 153q0 40 -2 95t-2 57zM78 415h3
q8 0 14.5 -7.5t6.5 -16.5q0 -7 -12 -23t-17 -17q-16 2 -21 12q-3 6 -5 16q1 3 3 9.5t3 8t4 5.5t8 7t13 6zM185 354q-10 0 -19.5 7.5t-9.5 15.5q0 2 2 6q6 6 10 14.5t9 10.5t19 2q11 0 16 -18q-1 -3 -3.5 -10t-4 -10.5t-6.5 -8.5t-13 -9z" />
    <glyph glyph-name="Amacron" unicode="&#x100;" horiz-adv-x="416" 
d="M85 190q-9 0 -32.5 -1.5t-34.5 -1.5q-45 0 -45 18q0 4 14 18q76 8 105 12q28 103 101 416q10 14 20 14q2 0 7 -0.5t8 -0.5q7 -37 11 -65.5t8.5 -69t10.5 -83.5q3 -32 11.5 -89.5t11.5 -80.5q25 4 57.5 10t51.5 9.5t23 3.5q2 0 2 -3q0 -20 -115 -57q-2 -1 -3.5 -1.5
t-3.5 -1t-4 -1.5q3 -33 25 -152t22 -138q0 -6 -8 -6t-13.5 2.5t-12 6t-10.5 5.5q-4 35 -19 127.5t-20 143.5q-106 -24 -132 -28q-7 -24 -14.5 -64t-13 -69.5t-8.5 -36.5q-7 -7 -20 -7q-11 0 -18 7q0 27 38 164zM133 239q98 20 107 24q-27 280 -33 280q-1 -1 -1 -3
q-60 -230 -73 -301zM246 745q-79 -38 -136 -38q-11 0 -19 6.5t-8 15.5q0 8 5 11q24 3 62.5 11.5t86 21t66.5 16.5l1 -1v-3q0 -13 -58 -40z" />
    <glyph glyph-name="amacron" unicode="&#x101;" horiz-adv-x="291" 
d="M213 294q-23 -138 -23 -184q0 -33 7 -46.5t25 -13.5q29 0 86 68q1 0 1 -2q0 -28 -36.5 -66t-73.5 -38q-38 0 -38 65q0 35 7 73q-34 -62 -76.5 -106.5t-72.5 -44.5q-16 0 -26.5 13.5t-10.5 39.5q0 48 24 90q89 153 187 153q13 0 20 -1zM25 40h2q28 0 81 70t64 149h-7
q-11 0 -22 -6q-57 -37 -91.5 -94.5t-34.5 -95.5q0 -17 8 -23zM182 376q-79 -38 -136 -38q-11 0 -19 6.5t-8 15.5q0 8 5 11q24 3 62.5 11.5t86 21t66.5 16.5l1 -2v-2q0 -13 -58 -40z" />
    <glyph glyph-name="Abreve" unicode="&#x102;" horiz-adv-x="416" 
d="M146 778q18 -53 64 -53q48 0 106 72q8 8 21 8q6 0 6 -3q0 -2 -1 -3q-27 -42 -67.5 -77.5t-80.5 -35.5q-60 0 -79 80q19 10 31 12zM85 190q-9 0 -32.5 -1.5t-34.5 -1.5q-45 0 -45 18q0 4 14 18q76 8 105 12q28 103 101 416q10 14 20 14q2 0 7 -0.5t8 -0.5q7 -37 11 -65.5
t8.5 -69t10.5 -83.5q3 -32 11.5 -89.5t11.5 -80.5q25 4 57.5 10t51.5 9.5t23 3.5q2 0 2 -3q0 -20 -115 -57q-2 -1 -3.5 -1.5t-3.5 -1t-4 -1.5q3 -33 25 -152t22 -138q0 -6 -8 -6t-13.5 2.5t-12 6t-10.5 5.5q-4 35 -19 127.5t-20 143.5q-106 -24 -132 -28q-7 -24 -14.5 -64
t-13 -69.5t-8.5 -36.5q-7 -7 -20 -7q-11 0 -18 7q0 27 38 164zM133 239q98 20 107 24q-27 280 -33 280q-1 -1 -1 -3q-60 -230 -73 -301z" />
    <glyph glyph-name="abreve" unicode="&#x103;" horiz-adv-x="291" 
d="M75 454q18 -53 64 -53q47 0 106 72q8 8 21 8q6 0 6 -3q0 -2 -1 -3q-27 -42 -67.5 -77.5t-80.5 -35.5q-60 0 -79 80q19 10 31 12zM213 294q-23 -138 -23 -184q0 -33 7 -46.5t25 -13.5q29 0 86 68q1 0 1 -2q0 -28 -36.5 -66t-73.5 -38q-38 0 -38 65q0 35 7 73
q-34 -62 -76.5 -106.5t-72.5 -44.5q-16 0 -26.5 13.5t-10.5 39.5q0 48 24 90q89 153 187 153q13 0 20 -1zM25 40h2q28 0 81 70t64 149h-7q-11 0 -22 -6q-57 -37 -91.5 -94.5t-34.5 -95.5q0 -17 8 -23z" />
    <glyph glyph-name="Aogonek" unicode="&#x104;" horiz-adv-x="416" 
d="M85 190q-9 0 -32.5 -1.5t-34.5 -1.5q-45 0 -45 18q0 4 14 18q76 8 105 12q28 103 101 416q10 14 20 14q2 0 7 -0.5t8 -0.5q7 -37 11 -65.5t8.5 -69t10.5 -83.5q3 -32 11.5 -89.5t11.5 -80.5q25 4 57.5 10t51.5 9.5t23 3.5q2 0 2 -3q0 -20 -115 -57q-2 -1 -3.5 -1.5
t-3.5 -1t-4 -1.5q3 -33 25 -152t22 -138q0 -4 -1 -5q-22 0 -36.5 -16t-14.5 -39q0 -40 47 -40q21 0 44 8q-2 -17 -22.5 -28t-46.5 -11t-44 12t-18 36q0 12 3.5 23.5t11 22.5t12.5 17t14.5 15.5l10.5 10.5q-2 2 -4 2q-4 35 -19 127.5t-20 143.5q-106 -24 -132 -28
q-7 -24 -14.5 -64t-13 -69.5t-8.5 -36.5q-7 -7 -20 -7q-11 0 -18 7q0 27 38 164zM133 239q98 20 107 24q-27 280 -33 280q-1 -1 -1 -3q-60 -230 -73 -301z" />
    <glyph glyph-name="aogonek" unicode="&#x105;" horiz-adv-x="291" 
d="M213 294q-23 -138 -23 -184q0 -33 7 -46.5t25 -13.5q29 0 86 68q1 0 1 -2q0 -7 -11 -28t-17 -27q-8 -10 -33 -25t-42 -32t-17 -39q0 -36 44 -36q18 0 39 7q-2 -15 -21 -25t-42 -10q-24 0 -40 11t-16 33q0 33 35 68q-27 6 -27 64q0 35 7 73q-34 -62 -76.5 -106.5
t-72.5 -44.5q-16 0 -26.5 13.5t-10.5 39.5q0 48 24 90q89 153 187 153q13 0 20 -1zM25 40h2q28 0 81 70t64 149h-7q-11 0 -22 -6q-57 -37 -91.5 -94.5t-34.5 -95.5q0 -17 8 -23z" />
    <glyph glyph-name="Cacute" unicode="&#x106;" horiz-adv-x="375" 
d="M356 670l-23 -6q-23 -6 -45.5 -16t-53 -29t-61.5 -55t-56 -83q-17 -37 -36.5 -117.5t-19.5 -99.5l1 -2q-4 -46 -4 -62q0 -158 102 -158q67 0 126 59t98 141q18 22 34 22q4 0 4 -3q-33 -109 -123 -188.5t-152 -79.5q-55 0 -91.5 54.5t-36.5 166.5q0 186 83 320t201 164
q12 0 34 -7t22 -16q0 -2 -3 -5zM291 846q1 1 3 1q7 0 17 -14t10 -20q-44 -26 -143 -96l-4 -2q-6 0 -6 8q0 16 123 123z" />
    <glyph glyph-name="cacute" unicode="&#x107;" horiz-adv-x="239" 
d="M167 293q0 -6 -17 -15.5t-43.5 -33.5t-44.5 -61q-26 -55 -26 -83q0 -52 31 -54q12 2 22.5 5t21.5 8.5t17.5 9t18 12t15.5 11.5t17.5 13.5t16.5 13.5q21 20 41 42.5t28.5 30.5t15.5 8h4q-6 -13 -23.5 -38.5t-46 -60t-70 -62.5t-83.5 -35q-13 0 -21.5 2.5t-18.5 9t-15 23
t-5 41.5q0 50 25.5 109.5t54.5 82.5q30 23 64 23q7 0 21 -2zM165 450q1 1 3 1q7 0 17 -14t10 -20q-44 -26 -143 -96l-4 -2q-6 0 -6 8q0 16 123 123z" />
    <glyph glyph-name="Ccaron" unicode="&#x10c;" horiz-adv-x="375" 
d="M356 670l-23 -6q-23 -6 -45.5 -16t-53 -29t-61.5 -55t-56 -83q-17 -37 -36.5 -117.5t-19.5 -99.5l1 -2q-4 -46 -4 -62q0 -158 102 -158q67 0 126 59t98 141q18 22 34 22q4 0 4 -3q-33 -109 -123 -188.5t-152 -79.5q-55 0 -91.5 54.5t-36.5 166.5q0 186 83 320t201 164
q12 0 34 -7t22 -16q0 -2 -3 -5zM205 823q38 -38 58 -63q52 60 96 83q9 0 9 -8q0 -3 -1 -4q-70 -69 -101 -125q-46 53 -94 90q1 5 12 17t17 12q2 0 4 -2z" />
    <glyph glyph-name="ccaron" unicode="&#x10d;" horiz-adv-x="239" 
d="M167 293q0 -6 -17 -15.5t-43.5 -33.5t-44.5 -61q-26 -55 -26 -83q0 -52 31 -54q12 2 22.5 5t21.5 8.5t17.5 9t18 12t15.5 11.5t17.5 13.5t16.5 13.5q21 20 41 42.5t28.5 30.5t15.5 8h4q-6 -13 -23.5 -38.5t-46 -60t-70 -62.5t-83.5 -35q-13 0 -21.5 2.5t-18.5 9t-15 23
t-5 41.5q0 50 25.5 109.5t54.5 82.5q30 23 64 23q7 0 21 -2zM64 431q38 -38 58 -63q52 60 96 83q9 0 9 -8q0 -3 -1 -4q-70 -69 -101 -125q-46 53 -94 90q1 5 12 17t17 12q2 0 4 -2z" />
    <glyph glyph-name="Dcaron" unicode="&#x10e;" horiz-adv-x="614" 
d="M178 691q6 -6 8.5 -13.5t3 -13.5t0.5 -20t1 -24q24 -13 80 -41.5t86.5 -44.5t75.5 -46t68.5 -55t41.5 -61t18 -74q0 -107 -87 -188t-219 -106q-24 -4 -35 -4q-39 0 -74.5 20.5t-35.5 53.5q0 13 7 22.5t12 9.5q3 0 3 -4l-2 -6q0 -24 13.5 -39.5t26 -20t30.5 -8.5
q3 -1 5 -1q-11 67 -27.5 290t-23.5 273q-29 13 -51 25.5t-36 19t-34 12.5q-5 6 -5 12q0 3 2.5 9.5t3.5 11.5q37 -9 65.5 -22.5t49.5 -18.5q0 13 -1.5 21t-1.5 13q3 19 23 19q1 0 4 -0.5t5 -0.5zM213 340q5 -41 15.5 -170.5t11.5 -134.5q3 -1 11 -1q65 0 151 58t120 159
q2 11 2 32q0 38 -16.5 72.5t-39 58t-61.5 48.5t-68 39.5t-76 36.5t-69 33q0 -21 10 -126zM206 788q38 -38 58 -63q52 60 96 83q9 0 9 -8q0 -3 -1 -4q-69 -70 -101 -125q-46 53 -94 90q1 5 12 17t17 12q2 0 4 -2z" />
    <glyph glyph-name="dcaron" unicode="&#x10f;" horiz-adv-x="311" 
d="M425 709q10 2 13 2q4 0 27 -5q-1 -41 -35 -100.5t-59 -61.5q-3 2 -3 5q0 4 26.5 58t30.5 102zM353 526q-16 -93 -27 -123q-51 -148 -105 -210q0 -21 13 -130.5t14 -138.5q-2 -2 -4 -2q-11 0 -19 36t-16.5 98.5t-14.5 90.5q-115 -145 -174 -145q-19 0 -30 13t-11 33
q0 31 28.5 74.5t54 69.5t44.5 42q41 26 56 28q5 1 10 1h10q-3 36 -3 94q0 97 7 129q5 55 37.5 109t69.5 54q23 0 41.5 -22.5t18.5 -63.5v-37zM221 259q37 42 67 121.5t30 166.5q0 62 -25 62q-24 0 -44 -39.5t-28 -78.5q-6 -29 -8 -77.5t-5 -80.5q0 -18 2 -36t5 -28.5
t5 -10.5q1 0 1 1zM76 166q-60 -62 -60 -104q0 -27 17 -27q11 0 20.5 5.5t23 18t18.5 16.5q6 6 26 25.5t32 32t23 32t11 35.5q0 20 -14 35q-30 0 -97 -69z" />
    <glyph glyph-name="Dcroat" unicode="&#x110;" horiz-adv-x="614" 
d="M178 691q6 -6 8.5 -13.5t3 -13.5t0.5 -20t1 -24q24 -13 80 -41.5t86.5 -44.5t75.5 -46t68.5 -55t41.5 -61t18 -74q0 -107 -87 -188t-219 -106q-24 -4 -35 -4q-39 0 -74.5 20.5t-35.5 53.5q0 13 7 22.5t12 9.5q3 0 3 -4l-2 -6q0 -24 13.5 -39.5t26 -20t30.5 -8.5
q3 -1 5 -1q-13 80 -25 260q-36 -4 -62 -4q-46 0 -46 19q0 4 14 18l91 9q-15 205 -23 261q-29 13 -51 25.5t-36 19t-34 12.5q-5 6 -5 12q0 3 2.5 9.5t3.5 11.5q37 -9 65.5 -22.5t49.5 -18.5q0 13 -1.5 21t-1.5 13q3 19 23 19q1 0 4 -0.5t5 -0.5zM266 303q-28 -7 -48 -11
q3 -35 8 -94.5t8.5 -104t5.5 -58.5q3 -1 11 -1q65 0 151 58t120 159q2 11 2 32q0 38 -16.5 72.5t-39 58t-61.5 48.5t-68 39.5t-76 36.5t-69 33q0 -21 10 -126l9 -105v-5l44 6q26 3 58 9.5t51 10.5t23 3q2 0 2 -3q0 -16 -41 -33t-84 -25z" />
    <glyph glyph-name="dcroat" unicode="&#x111;" horiz-adv-x="312" 
d="M353 526q-2 -8 -4 -24q13 3 19 3q2 0 2 -3q0 -12 -27 -26q-12 -61 -17 -73q-51 -148 -105 -210q0 -21 13 -130.5t14 -138.5q-2 -2 -4 -2q-11 0 -19 36t-16.5 98.5t-14.5 90.5q-115 -145 -174 -145q-19 0 -30 13t-11 33q0 31 28.5 74.5t54 69.5t44.5 42q41 26 56 28
q5 1 10 1h10q-3 36 -3 95q0 51 1 73l-21 -3q-8 -1 -62 -4q-46 0 -46 19q0 4 14 18q66 5 119 13q0 54 35 114.5t74 60.5q23 0 41.5 -22.5t18.5 -63.5v-37zM76 166q-60 -62 -60 -104q0 -27 17 -27q11 0 20.5 5.5t23 18t18.5 16.5q6 6 26 25.5t32 32t23 32t11 35.5q0 20 -14 35
q-30 0 -97 -69zM221 259q66 73 88 202q-30 -11 -95 -25q0 -6 -1.5 -40.5t-4.5 -62.5q0 -18 2 -36t5 -28.5t5 -10.5q1 0 1 1zM236 482q40 6 78 14q4 38 4 53q0 60 -25 60q-24 0 -44 -39.5t-28 -78.5l-3 -12z" />
    <glyph glyph-name="Emacron" unicode="&#x112;" horiz-adv-x="495" 
d="M460 684q-37 -21 -181 -69t-184 -64q10 -128 21 -200q31 14 50.5 22t44 16t39 12t58 17t79.5 23q9 -2 18.5 -12.5t9.5 -20.5q0 -7 -7 -11q-112 -13 -281 -92q4 -98 34.5 -173t76.5 -83q16 -4 34 -4q86 0 180 103q32 28 43 28q3 0 3 -3q0 -1 -4 -7q-10 -11 -36 -39.5
t-37 -40t-34.5 -31.5t-41.5 -28.5t-45 -15.5t-57 -7q-38 0 -65.5 20t-45.5 61.5t-28.5 86.5t-20.5 114q-28 -4 -57 -23q-7 0 -7 6q0 9 18 28.5t39 33.5q-32 218 -32 293q15 7 40 10q3 -7 3 -30q68 17 171.5 48t167.5 47q3 1 8 1q10 0 19 -5t9 -9q0 -2 -2 -2zM267 748
q-79 -38 -136 -38q-11 0 -19 6.5t-8 15.5q0 8 5 11q24 3 62.5 11.5t86 21t66.5 16.5v-2q1 -1 1 -2q0 -13 -58 -40z" />
    <glyph glyph-name="emacron" unicode="&#x113;" horiz-adv-x="250" 
d="M90 283q24 8 33 8q59 0 59 -44q0 -90 -130 -184q11 -30 40 -30q39 0 109 61q36 31 60 61l2 1q1 0 1 -3v-6l-3 -14q-2 -7 -24.5 -36.5t-63 -62t-76.5 -32.5q-31 0 -52.5 15t-27 26.5t-6.5 19.5q-5 17 -5 38q0 43 21.5 101t62.5 81zM46 106q38 20 71 57.5t33 81.5
q0 15 -18 15q-30 0 -58 -52.5t-28 -101.5zM163 376q-79 -38 -136 -38q-11 0 -19 6.5t-8 15.5q0 8 5 11q24 3 62.5 11.5t86 21t66.5 16.5v-2q1 -1 1 -2q0 -13 -58 -40z" />
    <glyph glyph-name="Edotaccent" unicode="&#x116;" horiz-adv-x="495" 
d="M243 775h2q13 0 13 -22q0 -17 -16 -32t-32 -15q-10 0 -13 21q11 34 46 48zM460 684q-37 -21 -181 -69t-184 -64q10 -128 21 -200q31 14 50.5 22t44 16t39 12t58 17t79.5 23q9 -2 18.5 -12.5t9.5 -20.5q0 -7 -7 -11q-112 -13 -281 -92q4 -98 34.5 -173t76.5 -83
q16 -4 34 -4q86 0 180 103q32 28 43 28q3 0 3 -3q0 -1 -4 -7q-10 -11 -36 -39.5t-37 -40t-34.5 -31.5t-41.5 -28.5t-45 -15.5t-57 -7q-38 0 -65.5 20t-45.5 61.5t-28.5 86.5t-20.5 114q-28 -4 -57 -23q-7 0 -7 6q0 9 18 28.5t39 33.5q-32 218 -32 293q15 7 40 10q3 -7 3 -30
q68 17 171.5 48t167.5 47q3 1 8 1q10 0 19 -5t9 -9q0 -2 -2 -2z" />
    <glyph glyph-name="edotaccent" unicode="&#x117;" horiz-adv-x="250" 
d="M126 440h2q10 0 10 -18q0 -14 -13.5 -26.5t-26.5 -12.5q-8 0 -10 17q10 29 38 40zM90 283q24 8 33 8q59 0 59 -44q0 -90 -130 -184q11 -30 40 -30q39 0 109 61q36 31 60 61l2 1q1 0 1 -3v-6l-3 -14q-2 -7 -24.5 -36.5t-63 -62t-76.5 -32.5q-31 0 -52.5 15t-27 26.5
t-6.5 19.5q-5 17 -5 38q0 43 21.5 101t62.5 81zM46 106q38 20 71 57.5t33 81.5q0 15 -18 15q-30 0 -58 -52.5t-28 -101.5z" />
    <glyph glyph-name="Eogonek" unicode="&#x118;" horiz-adv-x="495" 
d="M460 684q-37 -21 -181 -69t-184 -64q10 -128 21 -200q31 14 50.5 22t44 16t39 12t58 17t79.5 23q9 -2 18.5 -12.5t9.5 -20.5q0 -7 -7 -11q-112 -13 -281 -92q4 -98 34.5 -173t76.5 -83q16 -4 34 -4q86 0 180 103q32 28 43 28q3 0 3 -3q0 -1 -4 -7q-12 -13 -32 -35
t-35 -38t-29 -28q-16 -22 -16 -51q0 -46 40 -46q28 0 63 26q0 -1 0.5 -3t0.5 -3q0 -22 -28 -41t-58 -19q-23 0 -38 13.5t-15 42.5q0 23 12 53q-50 -33 -116 -33q-38 0 -65.5 20t-45.5 61.5t-28.5 86.5t-20.5 114q-28 -4 -57 -23q-7 0 -7 6q0 9 18 28.5t39 33.5
q-32 218 -32 293q15 7 40 10q3 -7 3 -30q68 17 171.5 48t167.5 47q3 1 8 1q10 0 19 -5t9 -9q0 -2 -2 -2z" />
    <glyph glyph-name="eogonek" unicode="&#x119;" horiz-adv-x="250" 
d="M90 283q24 8 33 8q59 0 59 -44q0 -90 -130 -184q11 -30 40 -30q39 0 109 61q36 31 60 61l2 1q1 0 1 -3v-6l-3 -14q-3 -7 -20 -29t-48 -52.5t-58 -42.5q-18 -18 -18 -43q0 -35 40 -35q22 0 45 11q-1 -17 -22 -29t-46 -12q-22 0 -37 11t-15 34q0 29 23 56q-1 0 -3.5 -0.5
t-4.5 -0.5q-31 0 -52.5 15.5t-27 27t-6.5 19.5q-5 17 -5 38q0 43 21.5 101t62.5 81zM46 106q38 20 71 57.5t33 81.5q0 15 -18 15q-30 0 -58 -52.5t-28 -101.5z" />
    <glyph glyph-name="Ecaron" unicode="&#x11a;" horiz-adv-x="495" 
d="M460 684q-37 -21 -181 -69t-184 -64q10 -128 21 -200q31 14 50.5 22t44 16t39 12t58 17t79.5 23q9 -2 18.5 -12.5t9.5 -20.5q0 -7 -7 -11q-112 -13 -281 -92q4 -98 34.5 -173t76.5 -83q16 -4 34 -4q86 0 180 103q32 28 43 28q3 0 3 -3q0 -1 -4 -7q-10 -11 -36 -39.5
t-37 -40t-34.5 -31.5t-41.5 -28.5t-45 -15.5t-57 -7q-38 0 -65.5 20t-45.5 61.5t-28.5 86.5t-20.5 114q-28 -4 -57 -23q-7 0 -7 6q0 9 18 28.5t39 33.5q-32 218 -32 293q15 7 40 10q3 -7 3 -30q68 17 171.5 48t167.5 47q3 1 8 1q10 0 19 -5t9 -9q0 -2 -2 -2zM173 812
q38 -38 58 -63q52 60 96 83q9 0 9 -8q0 -3 -1 -4q-69 -70 -101 -125q-46 53 -94 90q1 5 12 17t17 12q2 0 4 -2z" />
    <glyph glyph-name="ecaron" unicode="&#x11b;" horiz-adv-x="250" 
d="M90 283q24 8 33 8q59 0 59 -44q0 -90 -130 -184q11 -30 40 -30q39 0 109 61q36 31 60 61l2 1q1 0 1 -3v-6l-3 -14q-2 -7 -24.5 -36.5t-63 -62t-76.5 -32.5q-31 0 -52.5 15t-27 26.5t-6.5 19.5q-5 17 -5 38q0 43 21.5 101t62.5 81zM46 106q38 20 71 57.5t33 81.5
q0 15 -18 15q-30 0 -58 -52.5t-28 -101.5zM58 431q38 -38 58 -63q52 60 96 83q9 0 9 -8q0 -3 -1 -4q-70 -69 -101 -125q-46 53 -94 90q1 5 12 17t17 12q2 0 4 -2z" />
    <glyph glyph-name="Gbreve" unicode="&#x11e;" horiz-adv-x="479" 
d="M176 778q18 -53 64 -53q48 0 106 72q8 8 21 8q6 0 6 -3q0 -2 -1 -3q-27 -42 -67.5 -77.5t-80.5 -35.5q-60 0 -79 80q19 10 31 12zM302 641q4 -8 4 -12q0 -3 -13 -22q-5 -2 -25 -19.5t-54 -60t-64.5 -98t-53 -144.5t-22.5 -188q0 -74 29 -95q15 -11 38 -11q50 0 106.5 48
t93.5 110.5t39 108.5q-8 0 -33 -11t-57 -26t-48 -21q-30 13 -30 38v6q24 0 127 47.5t144 75.5q6 0 19 6.5t19 6.5q-3 -19 -39.5 -53.5t-58.5 -47.5v-18q0 -117 35 -138q-7 -21 -18 -21q-13 0 -27 21t-16 38q-6 -7 -28.5 -36t-33 -42t-33.5 -38.5t-40.5 -38.5t-40.5 -28.5
t-47.5 -22t-49.5 -6.5q-43 0 -67.5 48.5t-24.5 110.5q0 35 11 105q22 137 64 228t118 165q3 1 15.5 10t28 17t29.5 8h4z" />
    <glyph glyph-name="gbreve" unicode="&#x11f;" horiz-adv-x="319" 
d="M85 454q18 -53 64 -53q47 0 106 72q8 8 21 8q6 0 6 -3q0 -2 -1 -3q-27 -42 -67.5 -77.5t-80.5 -35.5q-60 0 -79 80q19 10 31 12zM277 84l38 25q0 -1 0.5 -1t0.5 -1q0 -11 -20.5 -35t-48 -51t-29.5 -29q0 -115 -7 -161q-3 -20 -6.5 -36.5t-6 -28t-6.5 -23t-6 -17t-8 -15
t-7 -11.5t-8.5 -11.5t-8.5 -11.5q-15 -21 -53 -42t-70 -21q-30 0 -49 20.5t-19 64.5q0 100 119 222l5 5q20 21 98 85q5 31 5 80v25q-20 -43 -48 -69t-46 -31l-17 -5q-16 -2 -21 -2q-16 0 -26.5 5t-14 16t-4 16t-0.5 16q0 43 21.5 88.5t45.5 73.5l4 4q3 5 7.5 10t12.5 12
t16.5 13.5t20 13.5t23.5 12t26.5 8t29.5 3q27 0 45 -12q-1 0 -1 -1h1q-11 -28 -19 -76t-14.5 -102.5t-8.5 -65.5q30 25 54 41zM189 -64q1 7 1 17q0 13 -6 13h-1q-111 -89 -147 -149.5t-36 -110.5q0 -55 46 -55q58 0 98.5 72.5t44.5 212.5zM205 213q11 27 11 52v4
q-57 0 -126 -83q-48 -67 -48 -116q0 -22 17 -22q31 0 65 36.5t52 69t29 59.5z" />
    <glyph glyph-name="Gcommaaccent" unicode="&#x122;" horiz-adv-x="479" 
d="M211 -72q10 2 13 2q4 0 27 -5q-1 -41 -35 -100.5t-59 -61.5q-3 1 -3 5t26.5 58t30.5 102zM302 641q4 -8 4 -12q0 -3 -13 -22q-5 -2 -25 -19.5t-54 -60t-64.5 -98t-53 -144.5t-22.5 -188q0 -74 29 -95q15 -11 38 -11q50 0 106.5 48t93.5 110.5t39 108.5q-8 0 -33 -11
t-57 -26t-48 -21q-30 13 -30 38v6q24 0 127 47.5t144 75.5q6 0 19 6.5t19 6.5q-3 -19 -39.5 -53.5t-58.5 -47.5v-18q0 -117 35 -138q-7 -21 -18 -21q-13 0 -27 21t-16 38q-6 -7 -28.5 -36t-33 -42t-33.5 -38.5t-40.5 -38.5t-40.5 -28.5t-47.5 -22t-49.5 -6.5
q-43 0 -67.5 48.5t-24.5 110.5q0 35 11 105q22 137 64 228t118 165q3 1 15.5 10t28 17t29.5 8h4z" />
    <glyph glyph-name="gcommaaccent" unicode="&#x123;" horiz-adv-x="319" 
d="M187 360q-10 -2 -13 -2q-4 0 -27 5q1 41 35 100.5t59 61.5q3 -1 3 -6q0 -3 -26.5 -57t-30.5 -102zM277 84l38 25q0 -1 0.5 -1t0.5 -1q0 -11 -20.5 -35t-48 -51t-29.5 -29q0 -115 -7 -161q-3 -20 -6.5 -36.5t-6 -28t-6.5 -23t-6 -17t-8 -15t-7 -11.5t-8.5 -11.5
t-8.5 -11.5q-15 -21 -53 -42t-70 -21q-30 0 -49 20.5t-19 64.5q0 100 119 222l5 5q20 21 98 85q5 31 5 80v25q-20 -43 -48 -69t-46 -31l-17 -5q-16 -2 -21 -2q-16 0 -26.5 5t-14 16t-4 16t-0.5 16q0 43 21.5 88.5t45.5 73.5l4 4q3 5 7.5 10t12.5 12t16.5 13.5t20 13.5
t23.5 12t26.5 8t29.5 3q27 0 45 -12q-1 0 -1 -1h1q-11 -28 -19 -76t-14.5 -102.5t-8.5 -65.5q30 25 54 41zM189 -64q1 7 1 17q0 13 -6 13h-1q-111 -89 -147 -149.5t-36 -110.5q0 -55 46 -55q58 0 98.5 72.5t44.5 212.5zM205 213q11 27 11 52v4q-57 0 -126 -83
q-48 -67 -48 -116q0 -22 17 -22q31 0 65 36.5t52 69t29 59.5z" />
    <glyph glyph-name="Imacron" unicode="&#x12a;" horiz-adv-x="167" 
d="M72 0q-9 -9 -15 -9t-15.5 7.5t-13.5 9.5q-5 67 -17 312.5t-12 342.5q0 6 0.5 15t0.5 12h-1q23 13 42 18q-2 -68 -2 -140q0 -333 33 -568zM83 781q-79 -38 -136 -38q-11 0 -19 6.5t-8 15.5q0 8 5 11q24 3 62.5 11.5t86 21t66.5 16.5v-1q1 -2 1 -3q0 -13 -58 -40z" />
    <glyph glyph-name="imacron" unicode="&#x12b;" horiz-adv-x="125" 
d="M59 310q4 -33 7 -109.5t7 -116.5q2 -25 8 -53t6 -31q-5 -1 -13 -1q-16 0 -29 10q-3 24 -10 142t-9 141q3 1 9.5 10t15.5 9q5 0 8 -1zM97 372q-54 -29 -111 -29q-10 0 -17.5 7t-7.5 18q0 7 4 11q27 0 93 15t88 17v-3q0 -17 -49 -36z" />
    <glyph glyph-name="Iogonek" unicode="&#x12e;" horiz-adv-x="167" 
d="M72 0q-8 -8 -16 -8q-7 0 -13 6q-24 -17 -24 -48q0 -40 47 -40q21 0 44 8q-2 -17 -22.5 -28t-46.5 -11t-44 12t-18 36q0 37 48 85q-6 75 -17 313.5t-11 335.5q0 7 0.5 16t0.5 13h-1q23 13 42 18q-2 -68 -2 -140q0 -333 33 -568z" />
    <glyph glyph-name="iogonek" unicode="&#x12f;" horiz-adv-x="125" 
d="M59 310q4 -33 7 -109.5t7 -116.5q2 -25 8 -53t6 -31q-10 -2 -13 -2q-11 0 -19 5q-22 -16 -22 -46q0 -40 47 -40q21 0 44 8q-2 -17 -22.5 -28t-46.5 -11t-44 12t-18 36q0 10 3 20t6.5 17.5t10.5 16t11 13t11 11.5t8 9q-3 33 -9.5 144t-7.5 127q3 1 9.5 10t15.5 9q5 0 8 -1
zM56 440h2q10 0 10 -18q0 -14 -13.5 -26.5t-26.5 -12.5q-8 0 -10 17q10 29 38 40z" />
    <glyph glyph-name="Idotaccent" unicode="&#x130;" horiz-adv-x="167" 
d="M49 835h2q13 0 13 -22q0 -17 -16 -32t-32 -15q-10 0 -13 21q11 34 46 48zM72 0q-9 -9 -15 -9t-15.5 7.5t-13.5 9.5q-5 67 -17 312.5t-12 342.5q0 6 0.5 15t0.5 12h-1q23 13 42 18q-2 -68 -2 -140q0 -333 33 -568z" />
    <glyph glyph-name="dotlessi" unicode="&#x131;" horiz-adv-x="125" 
d="M59 310q4 -33 7 -109.5t7 -116.5q2 -25 8 -53t6 -31q-5 -1 -13 -1q-16 0 -29 10q-3 24 -10 142t-9 141q3 1 9.5 10t15.5 9q5 0 8 -1z" />
    <glyph glyph-name="Kcommaaccent" unicode="&#x136;" horiz-adv-x="333" 
d="M178 12q10 2 13 2q5 0 27 -5q-1 -41 -35 -100.5t-59 -61.5q-3 1 -3 5t26.5 58t30.5 102zM97 349q10 -15 113 -69.5t154 -61.5q8 -26 8 -35q-28 2 -111.5 34t-168.5 76q0 -31 -1.5 -92.5t-1.5 -92.5l1 -14v-33.5v-34.5q0 -32 -1 -37l-30 10q-2 22 -2.5 153.5t-2.5 154.5
q-2 2 -12.5 7t-18.5 11.5t-9 16.5q3 6 19 16.5t21 14.5q-3 10 -8 128.5t-5 145.5q0 1 6 4t14.5 5.5t13.5 2.5q6 0 11 -108.5t5 -147.5q21 21 80.5 106.5t68.5 103.5q11 3 24.5 7.5t26.5 7.5q-17 -42 -69 -112q-2 -4 -24 -36.5t-53 -74t-48 -56.5z" />
    <glyph glyph-name="kcommaaccent" unicode="&#x137;" horiz-adv-x="254" 
d="M118 12q10 2 13 2q5 0 27 -5q-1 -41 -35 -100.5t-59 -61.5q-3 1 -3 5t26.5 58t30.5 102zM68 196q56 -12 173 -23q11 -11 20 -37q-38 7 -71 10.5t-78 6t-73 5.5q0 -28 1.5 -71.5t1.5 -60.5q0 -30 -4 -30q-7 0 -14.5 11t-14.5 13q1 31 1 92q0 62 -2.5 170.5t-2.5 156.5
q0 21 1 70.5t1 81.5q0 59 -5 71q10 12 37 13q1 -35 1 -103q0 -47 -1 -138t-1 -133q0 -63 1 -93q19 15 46.5 43t46.5 49.5t22 22.5q5 -5 12 -9.5t11.5 -7t4.5 -1.5q-5 -6 -24 -28t-29 -32.5t-27.5 -25.5t-33.5 -23z" />
    <glyph glyph-name="Lacute" unicode="&#x139;" horiz-adv-x="331" 
d="M54 696q1 -2 31 -290t53 -334q11 -11 27 -11q15 0 33 11t33.5 26t33.5 37t28.5 37.5t23 34t14.5 20.5l7 -11q3 -8 3 -12q0 -3 -1 -4q-41 -86 -97 -143t-92 -57q-42 0 -58 63q-8 28 -24 169q-26 257 -66 441q4 3 9.5 8t9 7.5t10.5 5t15 2.5h7zM131 872q1 1 3 1q7 0 17 -14
t10 -20q-44 -26 -143 -96l-4 -2q-6 0 -6 8q0 16 123 123z" />
    <glyph glyph-name="lacute" unicode="&#x13a;" horiz-adv-x="115" 
d="M51 207q0 -6 9.5 -84.5t21 -166t12.5 -97.5q-12 2 -17 6.5t-26 33.5q-8 55 -14 108t-11.5 100t-7.5 64q-30 -40 -36 -40q-2 0 -2 3t1 6l2 10q2 12 5 16q22 32 27 57q-3 29 -3 76q0 279 13 335q7 30 24 46.5t35 16.5q25 0 41 -26.5t16 -74.5q0 -76 -29.5 -190t-60.5 -199z
M43 264q33 95 51.5 189.5t18.5 152.5q0 33 -5.5 44.5t-18.5 11.5q-49 0 -49 -238q0 -36 1.5 -91.5t1.5 -68.5zM159 845q1 1 3 1q7 0 17 -14t10 -20q-44 -26 -143 -96l-4 -2q-6 0 -6 8q0 16 123 123z" />
    <glyph glyph-name="Lcommaaccent" unicode="&#x13b;" horiz-adv-x="331" 
d="M161 -72q10 2 13 2q4 0 27 -5q-1 -41 -35 -100.5t-59 -61.5q-3 1 -3 5t26.5 58t30.5 102zM54 696q1 -2 31 -290t53 -334q11 -11 27 -11q15 0 33 11t33.5 26t33.5 37t28.5 37.5t23 34t14.5 20.5l7 -11q3 -8 3 -12q0 -3 -1 -4q-41 -86 -97 -143t-92 -57q-42 0 -58 63
q-8 28 -24 169q-26 257 -66 441q4 3 9.5 8t9 7.5t10.5 5t15 2.5h7z" />
    <glyph glyph-name="lcommaaccent" unicode="&#x13c;" horiz-adv-x="115" 
d="M161 -62q10 2 13 2q4 0 27 -5q-1 -41 -35 -100.5t-59 -61.5q-3 1 -3 5t26.5 58t30.5 102zM51 207q0 -6 9.5 -84.5t21 -166t12.5 -97.5q-12 2 -17 6.5t-26 33.5q-8 55 -14 108t-11.5 100t-7.5 64q-30 -40 -36 -40q-2 0 -2 3t1 6l2 10q2 12 5 16q22 32 27 57q-3 29 -3 76
q0 279 13 335q7 30 24 46.5t35 16.5q25 0 41 -26.5t16 -74.5q0 -76 -29.5 -190t-60.5 -199zM43 264q33 95 51.5 189.5t18.5 152.5q0 33 -5.5 44.5t-18.5 11.5q-49 0 -49 -238q0 -36 1.5 -91.5t1.5 -68.5z" />
    <glyph glyph-name="Lcaron" unicode="&#x13d;" horiz-adv-x="331" 
d="M180 733q10 2 13 2q5 0 27 -5q-1 -41 -35 -100.5t-59 -61.5q-3 2 -3 5q0 4 26.5 58t30.5 102zM54 696q1 -2 31 -290t53 -334q11 -11 27 -11q15 0 33 11t33.5 26t33.5 37t28.5 37.5t23 34t14.5 20.5l7 -11q3 -8 3 -12q0 -3 -1 -4q-41 -86 -97 -143t-92 -57q-42 0 -58 63
q-8 28 -24 169q-26 257 -66 441q4 3 9.5 8t9 7.5t10.5 5t15 2.5h7z" />
    <glyph glyph-name="lcaron" unicode="&#x13e;" horiz-adv-x="109" 
d="M215 769q10 2 13 2q4 0 27 -5q-1 -41 -35 -100.5t-59 -61.5q-3 2 -3 5q0 4 26.5 58t30.5 102zM51 207q0 -6 9.5 -84.5t21 -166t12.5 -97.5q-12 2 -17 6.5t-26 33.5q-8 55 -14 108t-11.5 100t-7.5 64q-30 -40 -36 -40q-2 0 -2 3t1 6l2 10q2 12 5 16q22 32 27 57
q-3 29 -3 76q0 279 13 335q7 30 24 46.5t35 16.5q25 0 41 -26.5t16 -74.5q0 -76 -29.5 -190t-60.5 -199zM43 264q33 95 51.5 189.5t18.5 152.5q0 33 -5.5 44.5t-18.5 11.5q-49 0 -49 -238q0 -36 1.5 -91.5t1.5 -68.5z" />
    <glyph glyph-name="Lslash" unicode="&#x141;" horiz-adv-x="331" 
d="M54 696q3 -11 7 -54.5t12 -124t15 -145.5q11 6 51 28t59 32h1q5 0 8.5 -10.5t3.5 -17.5q0 -1 -18.5 -11t-50.5 -26.5t-50 -26.5q27 -230 46 -268q11 -11 27 -11q15 0 33 11t33.5 26t33.5 37t28.5 37.5t23 34t14.5 20.5l7 -11q3 -8 3 -12q0 -3 -1 -4q-41 -86 -97 -143
t-92 -57q-42 0 -59 65q-8 31 -23 167l-10 89q-54 -31 -58 -38q-10 13 -10 25q0 10 6.5 16t28.5 16t29 14q-10 88 -19.5 154.5t-15.5 93t-11.5 48t-5.5 23.5q4 3 9.5 8t9 7.5t10.5 5t15 2.5h7z" />
    <glyph glyph-name="lslash" unicode="&#x142;" horiz-adv-x="187" 
d="M94 207q0 -6 9.5 -84.5t21 -166t12.5 -97.5q-12 2 -17 6.5t-26 33.5q-8 55 -14 108t-11.5 100t-7.5 64q-30 -40 -36 -40q-2 0 -2 3t1 6l2 10q1 10 10 25t10 16q-33 -21 -35 -24q-9 11 -9 21q0 9 6 14.5t24 13.5t25 12q-2 25 -2 71q0 279 13 335q7 30 24 46.5t35 16.5
q25 0 41 -26.5t16 -75.5q0 -119 -72 -337l42 23h1q4 0 7 -8.5t3 -14.5q0 -2 -66 -36zM86 264q33 95 51.5 189.5t18.5 152.5q0 33 -5.5 44.5t-18.5 11.5q-49 0 -49 -238q0 -36 1.5 -91.5t1.5 -68.5z" />
    <glyph glyph-name="Nacute" unicode="&#x143;" horiz-adv-x="556" 
d="M173 705h3q46 0 46 -122q0 -10 -0.5 -27t-0.5 -23q0 -25 -0.5 -98t-1 -136.5t-0.5 -65.5q2 2 9.5 33t19 76.5t21.5 74.5l4 15q4 14 10 30.5t14.5 34t22 29t28.5 11.5q6 0 9 -1h4q30 0 50 -107.5t31 -229.5t17 -136q7 -11 20 -11q29 0 81 67q3 -6 3 -12q0 -38 -57 -85
q-20 -10 -36 -10q-39 0 -53 49q-4 19 -15.5 132t-25.5 203t-29 90q-7 0 -15.5 -15t-18 -43t-16.5 -50.5t-16 -55t-11 -37.5q-22 -72 -32 -128t-18 -164q-2 0 -4 -0.5t-4 -0.5q-9 0 -14.5 3t-11 8.5t-9.5 7.5q0 15 1 155.5t1 217.5l1 24q2 23 3.5 59t1.5 68q0 127 -25 127
q-35 0 -96.5 -129t-75.5 -200q-4 -11 -15 -18.5t-20 -7.5q-8 0 -11 6q19 75 56.5 164t87 158.5t87.5 69.5zM381 808q1 1 3 1q7 0 17 -14t10 -20q-44 -26 -143 -96l-4 -2q-6 0 -6 8q0 16 123 123z" />
    <glyph glyph-name="nacute" unicode="&#x144;" horiz-adv-x="264" 
d="M47 305q0 -136 -4 -200q0 21 33.5 96.5t59.5 75.5q4 0 6 -1q27 -12 36 -39t14.5 -72.5t19.5 -78.5q7 -17 22.5 -25t27 -9.5t11.5 -3.5q0 -6 -14.5 -10.5t-19.5 -4.5q-23 0 -40.5 30.5t-25.5 67t-16 67t-15 30.5q-23 -3 -55.5 -92t-44.5 -136q-5 0 -10.5 -0.5t-6.5 -0.5
q-5 0 -13 10q4 61 4 134q0 51 -5 169q0 9 5 9q4 0 16 -8t15 -8zM191 472q1 1 3 1q7 0 17 -14t10 -20q-44 -26 -143 -96l-4 -2q-6 0 -6 8q0 16 123 123z" />
    <glyph glyph-name="Ncommaaccent" unicode="&#x145;" horiz-adv-x="556" 
d="M308 12q10 2 13 2q5 0 27 -5q-1 -41 -35 -100.5t-59 -61.5q-3 1 -3 5t26.5 58t30.5 102zM173 705h3q46 0 46 -122q0 -10 -0.5 -27t-0.5 -23q0 -25 -0.5 -98t-1 -136.5t-0.5 -65.5q2 2 9.5 33t19 76.5t21.5 74.5l4 15q4 14 10 30.5t14.5 34t22 29t28.5 11.5q6 0 9 -1h4
q30 0 50 -107.5t31 -229.5t17 -136q7 -11 20 -11q29 0 81 67q3 -6 3 -12q0 -38 -57 -85q-20 -10 -36 -10q-39 0 -53 49q-4 19 -15.5 132t-25.5 203t-29 90q-7 0 -15.5 -15t-18 -43t-16.5 -50.5t-16 -55t-11 -37.5q-22 -72 -32 -128t-18 -164q-2 0 -4 -0.5t-4 -0.5
q-9 0 -14.5 3t-11 8.5t-9.5 7.5q0 15 1 155.5t1 217.5l1 24q2 23 3.5 59t1.5 68q0 127 -25 127q-35 0 -96.5 -129t-75.5 -200q-4 -11 -15 -18.5t-20 -7.5q-8 0 -11 6q19 75 56.5 164t87 158.5t87.5 69.5z" />
    <glyph glyph-name="ncommaaccent" unicode="&#x146;" horiz-adv-x="264" 
d="M118 12q10 2 13 2q5 0 27 -5q-1 -41 -35 -100.5t-59 -61.5q-3 1 -3 5t26.5 58t30.5 102zM47 305q0 -136 -4 -200q0 21 33.5 96.5t59.5 75.5q4 0 6 -1q27 -12 36 -39t14.5 -72.5t19.5 -78.5q7 -17 22.5 -25t27 -9.5t11.5 -3.5q0 -6 -14.5 -10.5t-19.5 -4.5
q-23 0 -40.5 30.5t-25.5 67t-16 67t-15 30.5q-23 -3 -55.5 -92t-44.5 -136q-5 0 -10.5 -0.5t-6.5 -0.5q-5 0 -13 10q4 61 4 134q0 51 -5 169q0 9 5 9q4 0 16 -8t15 -8z" />
    <glyph glyph-name="Ncaron" unicode="&#x147;" horiz-adv-x="556" 
d="M173 705h3q46 0 46 -122q0 -10 -0.5 -27t-0.5 -23q0 -25 -0.5 -98t-1 -136.5t-0.5 -65.5q2 2 9.5 33t19 76.5t21.5 74.5l4 15q4 14 10 30.5t14.5 34t22 29t28.5 11.5q6 0 9 -1h4q30 0 50 -107.5t31 -229.5t17 -136q7 -11 20 -11q29 0 81 67q3 -6 3 -12q0 -38 -57 -85
q-20 -10 -36 -10q-39 0 -53 49q-4 19 -15.5 132t-25.5 203t-29 90q-7 0 -15.5 -15t-18 -43t-16.5 -50.5t-16 -55t-11 -37.5q-22 -72 -32 -128t-18 -164q-2 0 -4 -0.5t-4 -0.5q-9 0 -14.5 3t-11 8.5t-9.5 7.5q0 15 1 155.5t1 217.5l1 24q2 23 3.5 59t1.5 68q0 127 -25 127
q-35 0 -96.5 -129t-75.5 -200q-4 -11 -15 -18.5t-20 -7.5q-8 0 -11 6q19 75 56.5 164t87 158.5t87.5 69.5zM233 806q38 -38 58 -63q52 60 96 83q9 0 9 -8q0 -3 -1 -4q-69 -70 -101 -125q-46 53 -94 90q1 5 12 17t17 12q2 0 4 -2z" />
    <glyph glyph-name="ncaron" unicode="&#x148;" horiz-adv-x="264" 
d="M47 305q1 -79 -4 -200q0 21 33.5 96.5t59.5 75.5q4 0 6 -1q27 -12 36 -39t14.5 -72.5t19.5 -78.5q7 -17 22.5 -25t27 -9.5t11.5 -3.5q0 -6 -14.5 -10.5t-19.5 -4.5q-23 0 -40.5 30.5t-25.5 67t-16 67t-15 30.5q-23 -3 -55.5 -92t-44.5 -136q-5 0 -10.5 -0.5t-6.5 -0.5
q-5 0 -13 10q4 61 4 134q0 51 -5 169q0 9 5 9q4 0 16 -8t15 -8zM45 431q38 -38 58 -63q52 60 96 83q9 0 9 -8q0 -3 -1 -4q-69 -69 -101 -125q-46 53 -94 90q1 5 12 17t17 12q2 0 4 -2z" />
    <glyph glyph-name="Omacron" unicode="&#x14c;" horiz-adv-x="345" 
d="M345 461q4 -29 4 -64q0 -71 -21 -143.5t-51.5 -124t-64 -86t-58.5 -39.5q-13 -3 -35 -3q-114 0 -114 286q0 63 3 89q12 125 41 241q-27 2 -54 17.5t-27 27.5q73 -3 132.5 -13.5t97.5 -25.5t66 -33t43 -36t23.5 -36t11 -31t3.5 -22v-4zM49 260q2 -45 6.5 -77.5t14 -65.5
t28.5 -50.5t46 -17.5q32 0 67 47.5t57 99t32 89.5q10 40 10 85q-2 86 -25 131q-21 40 -75.5 70t-123.5 35q-9 -35 -23 -154t-14 -177v-15zM214 759q-79 -38 -136 -38q-11 0 -19 6.5t-8 15.5q0 8 5 11q24 3 62.5 11.5t86 21t66.5 16.5l1 -1v-3q0 -13 -58 -40z" />
    <glyph glyph-name="omacron" unicode="&#x14d;" horiz-adv-x="198" 
d="M5 300q42 -2 89 -18t69 -38q15 -15 15 -47q0 -57 -34.5 -126.5t-64.5 -69.5q-16 0 -28.5 5t-21 13.5t-15 19t-10 23.5t-5.5 24.5t-2.5 24t-0.5 21t0.5 16.5t0.5 9q0 62 8 102l-6 9q-8 10 -13 14q11 4 19 18zM41 62q12 -17 29 -17q12 0 24 12q53 54 53 119q0 38 -16.5 50
t-83.5 31q-17 -54 -17 -117q0 -60 11 -78zM137 376q-79 -38 -136 -38q-11 0 -19 6.5t-8 15.5q0 8 5 11q24 3 62.5 11.5t86 21t66.5 16.5v-2q1 -1 1 -2q0 -13 -58 -40z" />
    <glyph glyph-name="Ohungarumlaut" unicode="&#x150;" horiz-adv-x="345" 
d="M189 831q2 2 3 2q7 0 18.5 -12.5t12.5 -17.5q-48 -40 -128 -116q-2 -2 -5 -2q-6 0 -6 8q0 20 105 138zM321 808q9 0 13.5 -2.5t6 -5.5t4.5 -11t6 -14q-3 -2 -139 -97q-4 -2 -5 -2q-9 0 -9 11q0 16 123 121zM345 461q4 -29 4 -64q0 -71 -21 -143.5t-51.5 -124t-64 -86
t-58.5 -39.5q-13 -3 -35 -3q-114 0 -114 286q0 63 3 89q12 125 41 241q-27 2 -54 17.5t-27 27.5q73 -3 132.5 -13.5t97.5 -25.5t66 -33t43 -36t23.5 -36t11 -31t3.5 -22v-4zM49 260q2 -45 6.5 -77.5t14 -65.5t28.5 -50.5t46 -17.5q32 0 67 47.5t57 99t32 89.5q10 40 10 85
q-2 86 -25 131q-21 40 -75.5 70t-123.5 35q-9 -35 -23 -154t-14 -177v-15z" />
    <glyph glyph-name="ohungarumlaut" unicode="&#x151;" horiz-adv-x="198" 
d="M108 498q2 2 3 2q7 0 18.5 -12.5t12.5 -17.5q-48 -40 -128 -116q-2 -2 -5 -2q-6 0 -6 8q0 20 105 138zM220 475q9 0 13.5 -2.5t6 -5.5t4.5 -11t6 -14q-3 -2 -139 -97q-4 -2 -5 -2q-9 0 -9 11q0 16 123 121zM5 300q42 -2 89 -18t69 -38q15 -15 15 -47q0 -57 -34.5 -126.5
t-64.5 -69.5q-16 0 -28.5 5t-21 13.5t-15 19t-10 23.5t-5.5 24.5t-2.5 24t-0.5 21t0.5 16.5t0.5 9q0 62 8 102l-6 9q-8 10 -13 14q11 4 19 18zM41 62q12 -17 29 -17q12 0 24 12q53 54 53 119q0 38 -16.5 50t-83.5 31q-17 -54 -17 -117q0 -60 11 -78z" />
    <glyph glyph-name="OE" unicode="&#x152;" horiz-adv-x="740" 
d="M705 684q-37 -21 -181 -69t-184 -64q10 -128 21 -200q31 14 50.5 22t44 16t39 12t58 17t79.5 23q9 -2 18.5 -12.5t9.5 -20.5q0 -7 -7 -11q-112 -13 -281 -92q4 -98 34.5 -173t76.5 -83q16 -4 34 -4q86 0 180 103q32 28 43 28q3 0 3 -3q0 -1 -4 -7q-10 -11 -36 -39.5
t-37 -40t-34.5 -31.5t-41.5 -28.5t-45 -15.5t-57 -7q-70 0 -103 64.5t-54 195.5q-27 -101 -81.5 -176.5t-95.5 -83.5q-13 -3 -35 -3q-114 0 -114 286q0 63 3 89q12 125 41 241q-27 2 -54 17.5t-27 27.5q233 -10 324 -94q-3 36 -3 56q15 7 40 10q3 -7 3 -30q68 17 171.5 48
t167.5 47q3 1 8 1q10 0 19 -5t9 -9q0 -2 -2 -2zM49 260q2 -45 6.5 -77.5t14 -65.5t28.5 -50.5t46 -17.5q44 0 89.5 80t64.5 150q-9 -4 -27 -16q-7 0 -7 6q0 15 42 51q3 25 3 50q0 85 -24 131q-21 40 -75.5 70t-123.5 35q-9 -35 -23 -154t-14 -177v-15z" />
    <glyph glyph-name="oe" unicode="&#x153;" horiz-adv-x="384" 
d="M224 283q24 8 33 8q59 0 59 -44q0 -90 -130 -184q11 -30 40 -30q39 0 109 61q36 31 60 61l2 1q1 0 1 -3v-6l-3 -14q-2 -7 -24.5 -36.5t-63 -62t-76.5 -32.5q-6 0 -22 2q-61 21 -66 66q-35 -69 -64 -69q-16 0 -28.5 5t-21 13.5t-15 19t-10 23.5t-5.5 24.5t-2.5 24t-0.5 21
t0.5 16.5t0.5 9q0 62 8 102l-6 9q-8 10 -13 14q11 4 19 18q51 -3 103.5 -23.5t64.5 -48.5q21 38 51 55zM41 62q12 -17 29 -17q12 0 24 12q53 54 53 119q0 38 -16.5 50t-83.5 31q-17 -54 -17 -117q0 -60 11 -78zM176 101q39 21 73.5 60.5t34.5 83.5q0 12 -6 12
q-37 0 -71.5 -35.5t-34.5 -88.5q0 -17 4 -32z" />
    <glyph glyph-name="Racute" unicode="&#x154;" horiz-adv-x="553" 
d="M449 460q-27 -31 -111 -60t-161 -45q3 -9 7 -17t7.5 -13t10 -12.5t9.5 -10.5l13 -13l13 -13q108 -86 199 -137q21 -8 39.5 -14.5t30.5 -10t22 -6t15.5 -3.5t9.5 -2t5.5 -1.5t1.5 -2.5q0 -9 -37 -9q-36 0 -51 5q-92 21 -217 116q-39 31 -76 53l11.5 -80.5t19 -124
t14.5 -73.5q-9 -3 -17 -3q-7 0 -18 2t-14 2q-1 0 -14.5 129.5t-16.5 172.5l1 -4q-13 23 -20.5 32.5t-19.5 21.5t-25 28q2 2 8 4t17 5t18 6q-7 49 -14.5 123.5t-12.5 111.5q-4 0 -23.5 1t-50 2t-57.5 1q-2 1 -6 3.5t-5.5 4t-3 4.5t-1.5 7t2 6.5t7 3t9 1t11.5 0t10.5 -0.5
q106 0 192 -10.5t139 -26.5t88.5 -36.5t49.5 -39t14 -34.5q0 -23 -23 -43zM162 386q76 14 170 50.5t94 60.5v9q-7 28 -98.5 60t-186.5 45q15 -183 21 -225zM331 809q1 1 3 1q7 0 17 -14t10 -20q-44 -26 -143 -96l-4 -2q-6 0 -6 8q0 16 123 123z" />
    <glyph glyph-name="racute" unicode="&#x155;" horiz-adv-x="210" 
d="M27 316q0 5 4 5q7 0 27 -10q7 -39 14 -125q19 49 54.5 75t102.5 26h16q0 -10 -6 -14.5t-25 -7.5q-89 -15 -128 -133q-6 -51 -6 -93q0 -24 2 -31q0 -11 -21 -11q-15 0 -15 8v38q0 78 -19 273zM199 485q1 1 3 1q7 0 17 -14t10 -20q-44 -26 -143 -96l-4 -2q-6 0 -6 8
q0 16 123 123z" />
    <glyph glyph-name="Rcommaaccent" unicode="&#x156;" horiz-adv-x="553" 
d="M328 12q10 2 13 2q5 0 27 -5q-1 -41 -35 -100.5t-59 -61.5q-3 1 -3 5t26.5 58t30.5 102zM449 460q-27 -31 -111 -60t-161 -45q3 -9 7 -17t7.5 -13t10 -12.5t9.5 -10.5l13 -13l13 -13q108 -86 199 -137q21 -8 39.5 -14.5t30.5 -10t22 -6t15.5 -3.5t9.5 -2t5.5 -1.5
t1.5 -2.5q0 -9 -37 -9q-36 0 -51 5q-92 21 -217 116q-39 31 -76 53l11.5 -80.5t19 -124t14.5 -73.5q-9 -3 -17 -3q-7 0 -18 2t-14 2q-1 0 -14.5 129.5t-16.5 172.5l1 -4q-13 23 -20.5 32.5t-19.5 21.5t-25 28q2 2 8 4t17 5t18 6q-7 49 -14.5 123.5t-12.5 111.5q-4 0 -23.5 1
t-50 2t-57.5 1q-2 1 -6 3.5t-5.5 4t-3 4.5t-1.5 7t2 6.5t7 3t9 1t11.5 0t10.5 -0.5q106 0 192 -10.5t139 -26.5t88.5 -36.5t49.5 -39t14 -34.5q0 -23 -23 -43zM162 386q76 14 170 50.5t94 60.5v9q-7 28 -98.5 60t-186.5 45q15 -183 21 -225z" />
    <glyph glyph-name="rcommaaccent" unicode="&#x157;" horiz-adv-x="210" 
d="M68 -58q10 2 13 2q5 0 27 -5q-1 -41 -35 -100.5t-59 -61.5q-3 1 -3 5t26.5 58t30.5 102zM27 316q0 5 4 5q7 0 27 -10q7 -39 14 -125q19 49 54.5 75t102.5 26h16q0 -10 -6 -14.5t-25 -7.5q-89 -15 -128 -133q-6 -51 -6 -93q0 -24 2 -31q0 -11 -21 -11q-15 0 -15 8v38
q0 78 -19 273z" />
    <glyph glyph-name="Rcaron" unicode="&#x158;" horiz-adv-x="553" 
d="M449 460q-27 -31 -111 -60t-161 -45q3 -9 7 -17t7.5 -13t10 -12.5t9.5 -10.5l13 -13l13 -13q108 -86 199 -137q21 -8 39.5 -14.5t30.5 -10t22 -6t15.5 -3.5t9.5 -2t5.5 -1.5t1.5 -2.5q0 -9 -37 -9q-36 0 -51 5q-92 21 -217 116q-39 31 -76 53l11.5 -80.5t19 -124
t14.5 -73.5q-9 -3 -17 -3q-7 0 -18 2t-14 2q-1 0 -14.5 129.5t-16.5 172.5l1 -4q-13 23 -20.5 32.5t-19.5 21.5t-25 28q2 2 8 4t17 5t18 6q-7 49 -14.5 123.5t-12.5 111.5q-4 0 -23.5 1t-50 2t-57.5 1q-2 1 -6 3.5t-5.5 4t-3 4.5t-1.5 7t2 6.5t7 3t9 1t11.5 0t10.5 -0.5
q106 0 192 -10.5t139 -26.5t88.5 -36.5t49.5 -39t14 -34.5q0 -23 -23 -43zM162 386q76 14 170 50.5t94 60.5v9q-7 28 -98.5 60t-186.5 45q15 -183 21 -225zM207 791q38 -38 58 -63q52 60 96 83q9 0 9 -8q0 -3 -1 -4q-69 -69 -101 -125q-46 53 -94 90q1 5 12 17t17 12
q2 0 4 -2z" />
    <glyph glyph-name="rcaron" unicode="&#x159;" horiz-adv-x="210" 
d="M27 316q0 5 4 5q7 0 27 -10q7 -39 14 -125q19 49 54.5 75t102.5 26h16q0 -10 -6 -14.5t-25 -7.5q-89 -15 -128 -133q-6 -51 -6 -93q0 -24 2 -31q0 -11 -21 -11q-15 0 -15 8v38q0 78 -19 273zM68 431q38 -38 58 -63q52 60 96 83q9 0 9 -8q0 -3 -1 -4q-70 -69 -101 -125
q-46 53 -94 90q1 5 12 17t17 12q2 0 4 -2z" />
    <glyph glyph-name="Sacute" unicode="&#x15a;" horiz-adv-x="459" 
d="M267 611q14 -30 16 -46q-40 33 -59 40q-22 8 -55 8q-62 0 -104 -28.5t-42 -72.5q0 -11 5 -28q19 -58 80 -117t139.5 -114t90.5 -66q40 21 114 49h6q2 -1 2 -3q0 -3 -8 -10.5t-21 -17t-25.5 -18t-25.5 -17t-16 -10.5q43 -43 43 -78q0 -27 -24.5 -54t-77.5 -63
q-70 -47 -120 -47q-44 0 -44 41q0 33 27.5 74t55.5 67t76 66q0 3 -27.5 22.5t-68.5 50t-83 66.5t-77 80t-45 82q-8 30 -8 51q1 52 29 85t55 42q43 15 81 15q59 0 111 -49zM185 -22l-1 -1v-2q0 -12 24 -12q17 0 52.5 13t71 43t35.5 66q0 37 -37 55q-29 -14 -86 -70.5
t-59 -91.5zM165 828q1 1 3 1q7 0 17 -14t10 -20q-44 -26 -143 -96l-4 -2q-6 0 -6 8q0 16 123 123z" />
    <glyph glyph-name="sacute" unicode="&#x15b;" horiz-adv-x="266" 
d="M110 315q13 -2 23.5 -5t18 -6t15 -8t11 -7.5t8.5 -9t6.5 -8.5t5.5 -9t5 -8q0 -2 -2 -2q-5 0 -24 13q-29 18 -71 18q-37 0 -65 -14t-28 -38q0 -31 31 -55.5t79 -46.5t58 -29q71 39 108 57q1 1 3 1q1 0 1 -1q0 -5 -57 -43q-24 -15 -39 -25q28 -24 28 -53q0 -9 -5 -19
q-22 -36 -54 -57t-54 -21q-19 0 -33.5 11t-14.5 29q0 10 4.5 20.5t16.5 23t18 18.5t22.5 20t18.5 15q-11 12 -55 36.5t-76 52.5t-32 58q0 37 33.5 65t77.5 28q12 0 18 -1zM101 -28q6 -3 12 -3q21 0 48 24t27 39q0 14 -24 29q-22 -16 -44.5 -41t-22.5 -39q0 -6 4 -9zM156 468
q1 1 3 1q7 0 17 -14t10 -20q-44 -26 -143 -96l-4 -2q-6 0 -6 8q0 16 123 123z" />
    <glyph glyph-name="Scedilla" unicode="&#x15e;" horiz-adv-x="459" 
d="M341 -136q-1 21 -42 21q-22 0 -44 -5q-2 1 -2 11q0 23 6 47q-43 -20 -74 -20q-44 0 -44 41q0 25 13.5 52t40.5 56.5t48 49t57 49.5q0 3 -27.5 22.5t-68.5 50t-83 66.5t-77 80t-45 82q-8 30 -8 51q1 52 29 85t55 42q43 15 81 15t78.5 -23t48.5 -72q-40 33 -59 40
q-22 8 -55 8q-62 0 -104 -28.5t-42 -72.5q0 -11 5 -28q19 -58 80 -117t139.5 -114t90.5 -66q40 21 114 49h6q2 -1 2 -3q0 -3 -8 -10.5t-21 -17t-25.5 -18t-25.5 -17t-16 -10.5q43 -43 43 -78q0 -49 -102 -117q-12 -27 -14 -50q18 2 25 2q30 0 47.5 -12t17.5 -32
q0 -45 -35.5 -65t-79.5 -20q-19 0 -32.5 7t-13.5 16q0 3 10 3q18 -2 25 -2q34 0 60 14t26 38zM185 -22l-1 -1v-2q0 -12 24 -12q17 0 52.5 13t71 43t35.5 66q0 37 -37 55q-29 -14 -86 -70.5t-59 -91.5z" />
    <glyph glyph-name="scedilla" unicode="&#x15f;" horiz-adv-x="266" 
d="M110 315q13 -2 23.5 -5t18 -6t15 -8t11 -7.5t8.5 -9t6.5 -8.5t5.5 -9t5 -8q0 -2 -2 -2q-5 0 -24 13q-29 18 -71 18q-37 0 -65 -14t-28 -38q0 -31 31 -55.5t79 -46.5t58 -29q71 39 108 57q1 1 3 1q1 0 1 -1q0 -5 -57 -43q-24 -15 -39 -25q28 -24 28 -53q0 -22 -23 -45
t-47 -37q-6 -25 -7 -39q18 2 25 2q30 0 47.5 -12t17.5 -32q0 -45 -35.5 -65t-79.5 -20q-19 0 -32.5 7t-13.5 16q0 3 10 3q18 -2 25 -2q34 0 60 14t26 38q0 21 -42 21q-22 0 -44 -5q-2 1 -2 11q0 24 6 48q-22 0 -37 10.5t-15 29.5q0 10 4.5 20.5t16.5 23t18 18.5t22.5 20
t18.5 15q-11 12 -55 36.5t-76 52.5t-32 58q0 37 33.5 65t77.5 28q12 0 18 -1zM101 -28q6 -3 12 -3q21 0 48 24t27 39q0 14 -24 29q-22 -16 -44.5 -41t-22.5 -39q0 -6 4 -9z" />
    <glyph glyph-name="Scaron" unicode="&#x160;" horiz-adv-x="459" 
d="M267 611q14 -30 16 -46q-40 33 -59 40q-22 8 -55 8q-62 0 -104 -28.5t-42 -72.5q0 -11 5 -28q19 -58 80 -117t139.5 -114t90.5 -66q40 21 114 49h6q2 -1 2 -3q0 -3 -8 -10.5t-21 -17t-25.5 -18t-25.5 -17t-16 -10.5q43 -43 43 -78q0 -27 -24.5 -54t-77.5 -63
q-70 -47 -120 -47q-44 0 -44 41q0 33 27.5 74t55.5 67t76 66q0 3 -27.5 22.5t-68.5 50t-83 66.5t-77 80t-45 82q-8 30 -8 51q1 52 29 85t55 42q43 15 81 15q59 0 111 -49zM185 -22l-1 -1v-2q0 -12 24 -12q17 0 52.5 13t71 43t35.5 66q0 37 -37 55q-29 -14 -86 -70.5
t-59 -91.5zM92 820q38 -38 58 -63q52 60 96 83q9 0 9 -8q0 -3 -1 -4q-70 -70 -101 -125q-46 53 -94 90q1 5 12 17t17 12q2 0 4 -2z" />
    <glyph glyph-name="scaron" unicode="&#x161;" horiz-adv-x="266" 
d="M110 315q13 -2 23.5 -5t18 -6t15 -8t11 -7.5t8.5 -9t6.5 -8.5t5.5 -9t5 -8q0 -2 -2 -2q-5 0 -24 13q-29 18 -71 18q-37 0 -65 -14t-28 -38q0 -31 31 -55.5t79 -46.5t58 -29q71 39 108 57q1 1 3 1q1 0 1 -1q0 -5 -57 -43q-24 -15 -39 -25q28 -24 28 -53q0 -9 -5 -19
q-22 -36 -54 -57t-54 -21q-19 0 -33.5 11t-14.5 29q0 10 4.5 20.5t16.5 23t18 18.5t22.5 20t18.5 15q-11 12 -55 36.5t-76 52.5t-32 58q0 37 33.5 65t77.5 28q12 0 18 -1zM101 -28q6 -3 12 -3q21 0 48 24t27 39q0 14 -24 29q-22 -16 -44.5 -41t-22.5 -39q0 -6 4 -9zM44 454
q38 -38 58 -63q52 60 96 83q9 0 9 -8q0 -3 -1 -4q-70 -70 -101 -125q-46 53 -94 90q1 5 12 17t17 12q2 0 4 -2z" />
    <glyph glyph-name="Tcommaaccent" unicode="&#x162;" horiz-adv-x="255" 
d="M138 -48q10 2 13 2q4 0 27 -5q-1 -41 -35 -100.5t-59 -61.5q-3 1 -3 5t26.5 58t30.5 102zM394 658h-21q-74 0 -248 -26q16 -416 41 -622q0 -10 -23 -10q-21 0 -24 13q-6 70 -13.5 220.5t-15 256.5t-16.5 135q-60 0 -247 -21q-3 -1 -8 -1q-18 0 -18 11q0 12 28 22
q108 20 287 38t251 28q8 0 19 -14t11 -24q0 -4 -3 -6z" />
    <glyph glyph-name="tcommaaccent" unicode="&#x163;" horiz-adv-x="280" 
d="M188 -68q10 2 13 2q5 0 27 -5q-1 -41 -35 -100.5t-59 -61.5q-3 1 -3 5t26.5 58t30.5 102zM159 298q19 1 171 14q13 -2 13 -13q0 -8 -8 -9q-107 -11 -176 -29q1 -17 1 -60t2 -72.5t7 -63t18 -51.5t34 -18q16 0 38.5 19.5t25.5 19.5q6 0 6 -7q0 -6 -9 -18t-29 -23.5
t-43 -11.5q-14 0 -26 4q-14 4 -24.5 20t-16.5 37t-10 52.5t-5.5 56.5t-3.5 59.5t-3 51.5q-29 -3 -51.5 -6t-33 -4.5t-14.5 -1.5q-6 0 -18 11v5v9q0 9 14.5 13t49.5 6t53 4q-1 37 -3.5 74.5t-2.5 67.5q0 10 19 10q10 0 15.5 -5.5t8 -19t3 -24t0.5 -34.5v-9q0 -26 -2 -54z" />
    <glyph glyph-name="Tcaron" unicode="&#x164;" horiz-adv-x="255" 
d="M394 658h-21q-74 0 -248 -26q16 -416 41 -622q0 -10 -23 -10q-21 0 -24 13q-6 70 -13.5 220.5t-15 256.5t-16.5 135q-60 0 -247 -21q-3 -1 -8 -1q-18 0 -18 11q0 12 28 22q108 20 287 38t251 28q8 0 19 -14t11 -24q0 -4 -3 -6zM44 822q38 -38 58 -63q52 60 96 83
q9 0 9 -8q0 -3 -1 -4q-70 -70 -101 -125q-46 53 -94 90q1 5 12 17t17 12q2 0 4 -2z" />
    <glyph glyph-name="tcaron" unicode="&#x165;" horiz-adv-x="320" 
d="M268 585q10 2 13 2q5 0 27 -5q-1 -41 -35 -100.5t-59 -61.5q-3 2 -3 5q0 4 26.5 58t30.5 102zM159 298q19 1 171 14q13 -2 13 -13q0 -8 -8 -9q-107 -11 -176 -29q1 -17 1 -60t2 -72.5t7 -63t18 -51.5t34 -18q16 0 38.5 19.5t25.5 19.5q6 0 6 -7q0 -6 -9 -18t-29 -23.5
t-43 -11.5q-14 0 -26 4q-14 4 -24.5 20t-16.5 37t-10 52.5t-5.5 56.5t-3.5 59.5t-3 51.5q-29 -3 -51.5 -6t-33 -4.5t-14.5 -1.5q-6 0 -18 11v5v9q0 9 14.5 13t49.5 6t53 4q-1 37 -3.5 74.5t-2.5 67.5q0 10 19 10q10 0 15.5 -5.5t8 -19t3 -24t0.5 -34.5v-9q0 -26 -2 -54z" />
    <glyph glyph-name="Umacron" unicode="&#x16a;" horiz-adv-x="487" 
d="M45 663q5 -1 8 -6.5t4.5 -15t2.5 -18.5t2 -22.5t2 -21.5q1 -11 7 -75.5t13 -133t15.5 -140.5t17 -118.5t15.5 -46.5q0 1 1 1q6 -2 9 -2q34 0 67 77.5t51 176.5t18 174q0 8 -1 22t-1 20q0 11 20 11q22 0 26 -12q0 -28 -3.5 -121t-3.5 -146q0 -111 13 -167t51 -56
q30 0 56 23t40.5 46t15.5 23q2 0 2 -8q0 -6 -3 -17q-62 -110 -122 -110q-40 0 -63.5 55t-23.5 150q0 16 1 24q-20 -57 -38 -98.5t-30.5 -63t-24.5 -33.5t-18.5 -14.5t-14.5 -2.5h-8q-6 -1 -17 -1q-17 0 -27.5 11t-19.5 44q-9 74 -29 272t-35 305q0 5 1 7.5t6.5 5t17.5 2.5z
M256 729q-79 -38 -136 -38q-11 0 -19 6.5t-8 15.5q0 8 5 11q24 3 62.5 11.5t86 21t66.5 16.5l1 -1v-3q0 -13 -58 -40z" />
    <glyph glyph-name="umacron" unicode="&#x16b;" 
d="M63 44q1 -1 3 -1q18 0 50.5 72.5t32.5 126.5q0 12 -1 17q0 9 17 9q10 0 22 -3q-11 -117 -11 -139q0 -81 30 -81q16 0 46 26.5t34 26.5h1l1 -1q-7 -29 -37.5 -53t-59.5 -24q-11 0 -17.5 4t-10.5 15t-5.5 19t-4 29t-3.5 31q-18 -37 -26.5 -52.5t-21.5 -36.5t-23.5 -28.5
t-22.5 -7.5q-26 0 -33.5 49t-5 125t-3.5 169q12 0 19.5 -2.5t11.5 -4t6 -10.5t2 -12.5v-19.5q0 -21 -3 -83t-4 -99q0 -53 17 -61zM168 408q-79 -38 -136 -38q-11 0 -19 6.5t-8 15.5q0 8 5 11q24 3 62.5 11.5t86 21t66.5 16.5l1 -2v-2q0 -13 -58 -40z" />
    <glyph glyph-name="Uring" unicode="&#x16e;" horiz-adv-x="487" 
d="M268 808q19 -7 19 -36q0 -6 -5 -24.5t-25.5 -42.5t-51.5 -24q-22 0 -33.5 13.5t-11.5 31.5q0 33 22 61t56 28q16 0 30 -7zM193 716q2 -2 7 -2q16 0 36 23t20 40q0 15 -17 15t-34 -20.5t-17 -39.5q0 -11 5 -16zM45 663q5 -1 8 -6.5t4.5 -15t2.5 -18.5t2 -22.5t2 -21.5
q1 -11 7 -75.5t13 -133t15.5 -140.5t17 -118.5t15.5 -46.5q0 1 1 1q6 -2 9 -2q34 0 67 77.5t51 176.5t18 174q0 8 -1 22t-1 20q0 11 20 11q22 0 26 -12q0 -28 -3.5 -121t-3.5 -146q0 -111 13 -167t51 -56q30 0 56 23t40.5 46t15.5 23q2 0 2 -8q0 -6 -3 -17
q-62 -110 -122 -110q-40 0 -63.5 55t-23.5 150q0 16 1 24q-20 -57 -38 -98.5t-30.5 -63t-24.5 -33.5t-18.5 -14.5t-14.5 -2.5h-8q-6 -1 -17 -1q-17 0 -27.5 11t-19.5 44q-9 74 -29 272t-35 305q0 5 1 7.5t6.5 5t17.5 2.5z" />
    <glyph glyph-name="uring" unicode="&#x16f;" 
d="M178 438q19 -7 19 -36q0 -6 -5 -24.5t-25.5 -42.5t-51.5 -24q-22 0 -33.5 13.5t-11.5 31.5q0 33 22 61t56 28q16 0 30 -7zM103 346q2 -2 7 -2q16 0 36 23t20 40q0 15 -17 15t-34 -20.5t-17 -39.5q0 -11 5 -16zM63 44q1 -1 3 -1q18 0 50.5 72.5t32.5 126.5q0 12 -1 17
q0 9 17 9q10 0 22 -3q-11 -117 -11 -139q0 -81 30 -81q16 0 46 26.5t34 26.5h1l1 -1q-7 -29 -37.5 -53t-59.5 -24q-11 0 -17.5 4t-10.5 15t-5.5 19t-4 29t-3.5 31q-18 -37 -26.5 -52.5t-21.5 -36.5t-23.5 -28.5t-22.5 -7.5q-26 0 -33.5 49t-5 125t-3.5 169q12 0 19.5 -2.5
t11.5 -4t6 -10.5t2 -12.5v-19.5q0 -21 -3 -83t-4 -99q0 -53 17 -61z" />
    <glyph glyph-name="Uhungarumlaut" unicode="&#x170;" horiz-adv-x="487" 
d="M199 801q2 2 3 2q7 0 18.5 -12.5t12.5 -17.5q-48 -40 -128 -116q-2 -2 -5 -2q-6 0 -6 8q0 20 105 138zM331 778q9 0 13.5 -2.5t6 -5.5t4.5 -11t6 -14q-3 -2 -139 -97q-4 -2 -5 -2q-9 0 -9 11q0 16 123 121zM45 663q5 -1 8 -6.5t4.5 -15t2.5 -18.5t2 -22.5t2 -21.5
q1 -11 7 -75.5t13 -133t15.5 -140.5t17 -118.5t15.5 -46.5q0 1 1 1q6 -2 9 -2q34 0 67 77.5t51 176.5t18 174q0 8 -1 22t-1 20q0 11 20 11q22 0 26 -12q0 -28 -3.5 -121t-3.5 -146q0 -111 13 -167t51 -56q30 0 56 23t40.5 46t15.5 23q2 0 2 -8q0 -6 -3 -17
q-62 -110 -122 -110q-40 0 -63.5 55t-23.5 150q0 16 1 24q-20 -57 -38 -98.5t-30.5 -63t-24.5 -33.5t-18.5 -14.5t-14.5 -2.5h-8q-6 -1 -17 -1q-17 0 -27.5 11t-19.5 44q-9 74 -29 272t-35 305q0 5 1 7.5t6.5 5t17.5 2.5z" />
    <glyph glyph-name="uhungarumlaut" unicode="&#x171;" 
d="M128 508q2 2 3 2q7 0 18.5 -12.5t12.5 -17.5q-48 -40 -128 -116q-2 -2 -5 -2q-6 0 -6 8q0 20 105 138zM240 485q9 0 13.5 -2.5t6 -5.5t4.5 -11t6 -14q-3 -2 -139 -97q-4 -2 -5 -2q-9 0 -9 11q0 16 123 121zM63 44q1 -1 3 -1q18 0 50.5 72.5t32.5 126.5q0 12 -1 17
q0 9 17 9q10 0 22 -3q-11 -117 -11 -139q0 -81 30 -81q16 0 46 26.5t34 26.5h1l1 -1q-7 -29 -37.5 -53t-59.5 -24q-11 0 -17.5 4t-10.5 15t-5.5 19t-4 29t-3.5 31q-18 -37 -26.5 -52.5t-21.5 -36.5t-23.5 -28.5t-22.5 -7.5q-26 0 -33.5 49t-5 125t-3.5 169q12 0 19.5 -2.5
t11.5 -4t6 -10.5t2 -12.5v-19.5q0 -21 -3 -83t-4 -99q0 -53 17 -61z" />
    <glyph glyph-name="Uogonek" unicode="&#x172;" horiz-adv-x="487" 
d="M45 663q5 -1 8 -6.5t4.5 -15t2.5 -18.5t2 -22.5t2 -21.5q1 -11 7 -75.5t13 -133t15.5 -140.5t17 -118.5t15.5 -46.5q0 1 1 1q6 -2 9 -2q34 0 67 77.5t51 176.5t18 174q0 8 -1 22t-1 20q0 11 20 11q22 0 26 -12q0 -28 -3.5 -121t-3.5 -146q0 -111 13 -167t51 -56
q30 0 56 23t40.5 46t15.5 23q2 0 2 -8q0 -6 -3 -17q-62 -110 -123 -110q-11 0 -20 4q-23 -16 -23 -47q0 -40 47 -40q21 0 44 8q-2 -17 -22.5 -28t-46.5 -11t-44 12t-18 36q0 37 44 81q-19 0 -33 67t-14 123q0 16 1 24q-20 -57 -38 -98.5t-30.5 -63t-24.5 -33.5t-18.5 -14.5
t-14.5 -2.5h-8q-6 -1 -17 -1q-17 0 -27.5 11t-19.5 44q-9 74 -29 272t-35 305q0 5 1 7.5t6.5 5t17.5 2.5z" />
    <glyph glyph-name="uogonek" unicode="&#x173;" 
d="M63 44q1 -1 3 -1q18 0 50.5 72.5t32.5 126.5q0 12 -1 17q0 9 17 9q10 0 22 -3q-11 -117 -11 -139q0 -81 30 -81q16 0 46 26.5t34 26.5h1l1 -1q-7 -25 -31.5 -47.5t-51.5 -28.5q-33 -14 -33 -52q0 -40 47 -40q21 0 44 8q-2 -17 -22.5 -28t-46.5 -11t-44 12t-18 36
q0 34 40 77q-4 1 -7.5 7.5t-5.5 18t-3.5 22t-3 25t-2.5 22.5q-18 -37 -26.5 -52.5t-21.5 -36.5t-23.5 -28.5t-22.5 -7.5q-26 0 -33.5 49t-5 125t-3.5 169q12 0 19.5 -2.5t11.5 -4t6 -10.5t2 -12.5v-19.5q0 -21 -3 -83t-4 -99q0 -53 17 -61z" />
    <glyph glyph-name="Ydieresis" unicode="&#x178;" horiz-adv-x="205" 
d="M189 279q-21 -120 -51 -245.5t-48 -148.5q-4 -1 -12 -1q-23 0 -23 11q0 1 2 5q67 145 96 390q-47 0 -91.5 53.5t-72 128.5t-35.5 149q0 9 18 9l32 -4q24 -250 154 -310q15 89 15 252q0 67 -2 83q7 10 16 10q6 0 25 -7q0 -6 0.5 -19t0.5 -21q0 -83 -8 -190t-16 -145z
M42 763h3q8 0 14.5 -7.5t6.5 -16.5q0 -7 -12 -23t-17 -17q-16 2 -21 12q-3 6 -5 16q1 3 3 9.5t3 8t4 5.5t8 7t13 6zM149 702q-10 0 -19.5 7.5t-9.5 15.5q0 2 2 6q6 6 10 14.5t9 10.5t19 2q11 0 16 -18q-1 -3 -3.5 -10t-4 -10.5t-6.5 -8.5t-13 -9z" />
    <glyph glyph-name="Zacute" unicode="&#x179;" horiz-adv-x="395" 
d="M300 643q-5 -78 -38 -207.5t-65.5 -239t-35.5 -129.5q48 34 129.5 92t129.5 91q14 7 15 7t1 -2q0 -1 -7 -15q-38 -29 -115.5 -96t-129.5 -108t-68 -41q-12 0 -12 19q0 4 2 18q11 48 72.5 243.5t75.5 318.5q0 3 -3 3q-15 0 -92.5 -75t-137.5 -148q-3 -1 -9 -1
q-11 0 -17 6.5t-6 15.5q0 7 3 10q9 7 75 75.5t129.5 124t88.5 55.5q15 0 15 -17zM221 779q1 1 3 1q7 0 17 -14t10 -20q-44 -26 -143 -96l-4 -2q-6 0 -6 8q0 16 123 123z" />
    <glyph glyph-name="zacute" unicode="&#x17a;" horiz-adv-x="360" 
d="M230 303q16 0 16 -12q0 -9 -6 -22q-41 -111 -84 -192q22 9 79 36.5t98 41.5q6 0 12.5 1t8.5 1q7 0 12 -10q-54 -19 -136 -72t-112 -68q-8 0 -18.5 7.5t-10.5 12.5q0 2 1 3q4 7 20.5 35.5t23.5 41.5l21 39t21 42.5t14.5 38t10.5 39.5h-2q-6 0 -31.5 -14t-67 -33.5
t-80.5 -29.5h-6q-6 0 -6 2q0 6 14 16q1 1 35.5 21t60 34t59.5 27.5t53 13.5zM218 435q1 1 3 1q7 0 17 -14t10 -20q-44 -26 -143 -96l-4 -2q-6 0 -6 8q0 16 123 123z" />
    <glyph glyph-name="Zdotaccent" unicode="&#x17b;" horiz-adv-x="395" 
d="M125 688h2q13 0 13 -22q0 -17 -16 -32t-32 -15q-10 0 -13 21q11 34 46 48zM300 643q-5 -78 -38 -207.5t-65.5 -239t-35.5 -129.5q48 34 129.5 92t129.5 91q14 7 15 7t1 -2q0 -1 -7 -15q-38 -29 -115.5 -96t-129.5 -108t-68 -41q-12 0 -12 19q0 4 2 18q11 48 72.5 243.5
t75.5 318.5q0 3 -3 3q-15 0 -92.5 -75t-137.5 -148q-3 -1 -9 -1q-11 0 -17 6.5t-6 15.5q0 7 3 10q9 7 75 75.5t129.5 124t88.5 55.5q15 0 15 -17z" />
    <glyph glyph-name="zdotaccent" unicode="&#x17c;" horiz-adv-x="360" 
d="M230 303q16 0 16 -12q0 -9 -6 -22q-41 -111 -84 -192q22 9 79 36.5t98 41.5q6 0 12.5 1t8.5 1q7 0 12 -10q-54 -19 -136 -72t-112 -68q-8 0 -18.5 7.5t-10.5 12.5q0 2 1 3q4 7 20.5 35.5t23.5 41.5l21 39t21 42.5t14.5 38t10.5 39.5h-2q-6 0 -31.5 -14t-67 -33.5
t-80.5 -29.5h-6q-6 0 -6 2q0 6 14 16q1 1 35.5 21t60 34t59.5 27.5t53 13.5zM146 440h2q10 0 10 -18q0 -14 -13.5 -26.5t-26.5 -12.5q-8 0 -10 17q10 29 38 40z" />
    <glyph glyph-name="Zcaron" unicode="&#x17d;" horiz-adv-x="395" 
d="M300 643q-5 -78 -38 -207.5t-65.5 -239t-35.5 -129.5q48 34 129.5 92t129.5 91q14 7 15 7t1 -2q0 -1 -7 -15q-38 -29 -115.5 -96t-129.5 -108t-68 -41q-12 0 -12 19q0 4 2 18q11 48 72.5 243.5t75.5 318.5q0 3 -3 3q-15 0 -92.5 -75t-137.5 -148q-3 -1 -9 -1
q-11 0 -17 6.5t-6 15.5q0 7 3 10q9 7 75 75.5t129.5 124t88.5 55.5q15 0 15 -17zM127 788q38 -38 58 -63q52 60 96 83q9 0 9 -8q0 -3 -1 -4q-69 -70 -101 -125q-46 53 -94 90q1 5 12 17t17 12q2 0 4 -2z" />
    <glyph glyph-name="zcaron" unicode="&#x17e;" horiz-adv-x="360" 
d="M230 303q16 0 16 -12q0 -9 -6 -22q-41 -111 -84 -192q22 9 79 36.5t98 41.5q6 0 12.5 1t8.5 1q7 0 12 -10q-54 -19 -136 -72t-112 -68q-8 0 -18.5 7.5t-10.5 12.5q0 2 1 3q4 7 20.5 35.5t23.5 41.5l21 39t21 42.5t14.5 38t10.5 39.5h-2q-6 0 -31.5 -14t-67 -33.5
t-80.5 -29.5h-6q-6 0 -6 2q0 6 14 16q1 1 35.5 21t60 34t59.5 27.5t53 13.5zM84 417q38 -38 58 -63q52 60 96 83q9 0 9 -8q0 -3 -1 -4q-69 -69 -101 -125q-46 53 -94 90q1 5 12 17t17 12q2 0 4 -2z" />
    <glyph glyph-name="Scommaaccent" unicode="&#x218;" horiz-adv-x="459" 
d="M300 166q-2 2 -47 34t-95 70.5t-98.5 94t-60.5 102.5q-8 30 -8 51q1 52 29 85t55 42q43 15 81 15t78.5 -23t48.5 -72q-40 33 -59 40q-22 8 -55 8q-62 0 -104 -28.5t-42 -72.5q0 -11 5 -28q19 -58 80 -117t139.5 -114t90.5 -66q70 -56 70 -102q0 -29 -25.5 -57t-77.5 -63
q-70 -47 -120 -47q-44 0 -44 41q0 37 22.5 71.5t45.5 42.5q5 -2 5 -8q0 -5 -15 -37t-15 -53q0 -12 24 -12q10 0 33 7t51 20t48.5 36.5t20.5 50.5q0 47 -61 89zM271 -92q10 2 13 2q5 0 27 -5q-1 -41 -35 -100.5t-59 -61.5q-3 1 -3 5t26.5 58t30.5 102z" />
    <glyph glyph-name="scommaaccent" unicode="&#x219;" horiz-adv-x="266" 
d="M153 78q-11 10 -58 35t-80.5 52.5t-33.5 57.5q0 37 33.5 65t77.5 28q15 0 28 -2t22 -4.5t18 -8.5t14 -9t11 -10.5t7.5 -10t5.5 -9.5l5 -8q0 -2 -2 -2q-5 0 -24 13q-29 18 -71 18q-37 0 -65 -14t-28 -38q0 -31 31 -56t78.5 -46t58.5 -29q21 -15 31 -27.5t11.5 -18.5
t1.5 -18q0 -9 -5 -19q-22 -36 -54 -57t-54 -21q-20 0 -34.5 12t-14.5 30q0 10 5.5 20t10 15.5t13.5 13.5l10 9q4 3 7 3q7 0 10 -26q-21 -16 -21 -25q0 -5 5.5 -10t15.5 -5q21 0 45 21t24 36q0 20 -35 45zM141 -92q10 2 13 2q4 0 27 -5q-1 -41 -35 -100.5t-59 -61.5
q-3 1 -3 5t26.5 58t30.5 102z" />
    <glyph glyph-name="uni021A" unicode="&#x21a;" horiz-adv-x="255" 
d="M138 -48q10 2 13 2q4 0 27 -5q-1 -41 -35 -100.5t-59 -61.5q-3 1 -3 5t26.5 58t30.5 102zM394 658h-21q-74 0 -248 -26q16 -416 41 -622q0 -10 -23 -10q-21 0 -24 13q-6 70 -13.5 220.5t-15 256.5t-16.5 135q-60 0 -247 -21q-3 -1 -8 -1q-18 0 -18 11q0 12 28 22
q108 20 287 38t251 28q8 0 19 -14t11 -24q0 -4 -3 -6z" />
    <glyph glyph-name="uni021B" unicode="&#x21b;" horiz-adv-x="280" 
d="M188 -68q10 2 13 2q5 0 27 -5q-1 -41 -35 -100.5t-59 -61.5q-3 1 -3 5t26.5 58t30.5 102zM159 298q19 1 171 14q13 -2 13 -13q0 -8 -8 -9q-107 -11 -176 -29q1 -17 1 -60t2 -72.5t7 -63t18 -51.5t34 -18q16 0 38.5 19.5t25.5 19.5q6 0 6 -7q0 -6 -9 -18t-29 -23.5
t-43 -11.5q-14 0 -26 4q-14 4 -24.5 20t-16.5 37t-10 52.5t-5.5 56.5t-3.5 59.5t-3 51.5q-29 -3 -51.5 -6t-33 -4.5t-14.5 -1.5q-6 0 -18 11v5v9q0 9 14.5 13t49.5 6t53 4q-1 37 -3.5 74.5t-2.5 67.5q0 10 19 10q10 0 15.5 -5.5t8 -19t3 -24t0.5 -34.5v-9q0 -26 -2 -54z" />
    <glyph glyph-name="circumflex" unicode="&#x2c6;" horiz-adv-x="275" 
d="M71 319q-2 -2 -4 -2q-6 0 -17 12t-12 17q57 43 110 105q28 -50 80 -103q1 -1 1 -4q0 -8 -9 -8q-37 20 -75 61q-16 -20 -74 -78z" />
    <glyph glyph-name="caron" unicode="&#x2c7;" horiz-adv-x="275" 
d="M87 431q38 -38 58 -63q52 60 96 83q9 0 9 -8q0 -3 -1 -4q-69 -69 -101 -125q-46 53 -94 90q1 5 12 17t17 12q2 0 4 -2z" />
    <glyph glyph-name="breve" unicode="&#x2d8;" horiz-adv-x="290" 
d="M75 454q18 -53 64 -53q47 0 106 72q8 8 21 8q6 0 6 -3q0 -2 -1 -3q-27 -42 -67.5 -77.5t-80.5 -35.5q-60 0 -79 80q19 10 31 12z" />
    <glyph glyph-name="dotaccent" unicode="&#x2d9;" horiz-adv-x="114" 
d="M76 440h2q10 0 10 -18q0 -14 -13.5 -26.5t-26.5 -12.5q-8 0 -10 17q10 29 38 40z" />
    <glyph glyph-name="ring" unicode="&#x2da;" horiz-adv-x="181" 
d="M138 438q19 -7 19 -36q0 -6 -5 -24.5t-25.5 -42.5t-51.5 -24q-22 0 -33.5 13.5t-11.5 31.5q0 33 22 61t56 28q16 0 30 -7zM63 346q2 -2 7 -2q16 0 36 23t20 40q0 15 -17 15t-34 -20.5t-17 -39.5q0 -11 5 -16z" />
    <glyph glyph-name="ogonek" unicode="&#x2db;" horiz-adv-x="169" 
d="M87 4q-23 -16 -23 -47q0 -40 47 -40q21 0 44 8q-2 -17 -22.5 -28t-46.5 -11t-44 12t-18 36q0 37 44 81l4 -3l10 -6z" />
    <glyph glyph-name="tilde" unicode="&#x2dc;" horiz-adv-x="457" 
d="M112 544l-20 18q22 42 58 42q22 0 39 -12q38 -28 61 -28q21 0 47 24q4 4 9 4q7 0 7 -8q0 -21 -25.5 -36.5t-47.5 -15.5q-20 0 -52.5 16.5t-39.5 16.5q-17 0 -36 -21z" />
    <glyph glyph-name="hungarumlaut" unicode="&#x2dd;" horiz-adv-x="268" 
d="M108 498q2 2 3 2q7 0 18.5 -12.5t12.5 -17.5q-48 -40 -128 -116q-2 -2 -5 -2q-6 0 -6 8q0 20 105 138zM220 475q9 0 13.5 -2.5t6 -5.5t4.5 -11t6 -14q-3 -2 -139 -97q-4 -2 -5 -2q-9 0 -9 11q0 16 123 121z" />
    <glyph glyph-name="endash" unicode="&#x2013;" horiz-adv-x="421" 
d="M371 209q5 0 5 -9q0 -14 -5 -22q-65 0 -196.5 -3t-140.5 -9q-2 5 -2 14q0 26 25 26q244 0 314 3z" />
    <glyph glyph-name="emdash" unicode="&#x2014;" horiz-adv-x="652" 
d="M602 199q5 0 5 -11q0 -14 -4 -20q-547 0 -559 -12q-2 5 -2 14q0 26 25 26q484 0 535 3z" />
    <glyph glyph-name="quoteleft" unicode="&#x2018;" horiz-adv-x="134" 
d="M70 698q13 -3 13 -28q-2 0 -2.5 -26.5t-2 -65.5t-5.5 -60q-12 -8 -28 -8q-7 0 -10 3q14 84 14 114q0 24 -5 62q11 9 26 9z" />
    <glyph glyph-name="quoteright" unicode="&#x2019;" horiz-adv-x="150" 
d="M85 696q13 -3 13 -28q-2 0 -2.5 -26.5t-2 -65.5t-5.5 -60q-12 -8 -28 -8q-7 0 -10 3q14 84 14 114q0 24 -5 62q11 9 26 9z" />
    <glyph glyph-name="quotesinglbase" unicode="&#x201a;" horiz-adv-x="150" 
d="M80 76q13 -3 13 -28q-2 0 -2.5 -26.5t-2 -65.5t-5.5 -60q-12 -8 -28 -8q-7 0 -10 3q14 84 14 114q0 24 -5 62q11 9 26 9z" />
    <glyph glyph-name="quotedblleft" unicode="&#x201c;" horiz-adv-x="202" 
d="M137 657q5 -21 22 -60t17 -48q0 -8 -6 -8q-16 0 -35.5 42t-29.5 81q5 6 10 6q9 0 22 -13zM32 696q10 2 11 2q3 0 15 -6q2 -18 5.5 -36t6 -29t10 -31t9.5 -25t12.5 -29.5t12.5 -28.5q-2 -5 -14 -5q-13 0 -21 4q-9 21 -21 60t-20 66.5t-10 27.5q-4 14 -4 18q0 9 8 12z" />
    <glyph glyph-name="quotedblright" unicode="&#x201d;" horiz-adv-x="185" 
d="M38 592q9 17 19 46t17.5 46.5t14.5 17.5q8 -4 8 -19q0 -17 -16.5 -68t-26.5 -51q-14 0 -16 28zM90 492q-9 5 -11 7.5t-5 13.5q9 13 16.5 25t14.5 25.5t11 21.5t9.5 24t8 22t9 26t8.5 26h2q6 0 14.5 -8.5t10.5 -13.5q-6 -21 -22.5 -56t-29.5 -61.5t-13 -30.5v-1
q-10 -21 -18 -21q-3 0 -5 1z" />
    <glyph glyph-name="quotedblbase" unicode="&#x201e;" horiz-adv-x="185" 
d="M16 -57q9 17 19 46t17.5 46.5t14.5 17.5q8 -4 8 -19q0 -17 -16.5 -68t-26.5 -51q-14 0 -16 28zM68 -157q-9 5 -11 7.5t-5 13.5q9 13 16.5 25t14.5 25.5t11 21.5t9.5 24t8 22t9 26t8.5 26h2q6 0 14.5 -8.5t10.5 -13.5q-6 -21 -22.5 -56t-29.5 -61.5t-13 -30.5v-1
q-10 -21 -18 -21q-3 0 -5 1z" />
    <glyph glyph-name="dagger" unicode="&#x2020;" horiz-adv-x="241" 
d="M230 378q4 0 4 -8q0 -16 -5 -23q-2 0 -12 0.5t-17 0.5q-6 0 -21 -0.5t-23 -0.5q-22 -349 -34 -546q0 -5 -12 -5q-18 0 -30 5q12 79 35 544q-68 -4 -74 -10q-2 8 -2 13q0 27 28 27h49q7 130 7 192q0 18 -1 19q12 2 17 2q29 0 29 -25v-3q-6 -85 -11 -185z" />
    <glyph glyph-name="daggerdbl" unicode="&#x2021;" horiz-adv-x="241" 
d="M232 418q4 0 4 -8q0 -16 -5 -23q-2 0 -12 0.5t-17 0.5q-6 0 -21 -0.5t-23 -0.5l-24 -386q71 4 78 11q2 -10 2 -13q0 -27 -28 -27h-54q-3 -53 -6 -106.5t-4 -64.5q0 -5 -12 -5q-18 0 -30 5q3 18 13 170q-18 0 -70 -2q-5 0 -5 7q0 17 7 24q5 -1 27 -1q27 0 44 1
q2 30 10 176t11 209q-68 -4 -74 -10q-2 8 -2 13q0 27 28 27h49q5 110 5 148q0 22 -1 23q12 2 17 2q29 0 29 -25q0 -2 -1.5 -21t-3.5 -55l-4 -72z" />
    <glyph glyph-name="bullet" unicode="&#x2022;" horiz-adv-x="302" 
d="M115 265q11 -1 22.5 -11t11.5 -23q0 -48 -44 -48q-23 7 -31.5 14t-8.5 20q0 17 12.5 32.5t31.5 15.5h6z" />
    <glyph glyph-name="ellipsis" unicode="&#x2026;" horiz-adv-x="288" 
d="M17 23q3 14 14 22t23 8q21 0 21 -21q0 -11 -9.5 -19.5t-23.5 -8.5q-20 0 -25 19zM113 33q3 14 14 22t23 8q21 0 21 -21q0 -11 -9.5 -19.5t-23.5 -8.5q-20 0 -25 19zM209 13q3 14 14 22t23 8q21 0 21 -21q0 -11 -9.5 -19.5t-23.5 -8.5q-20 0 -25 19z" />
    <glyph glyph-name="fraction" unicode="&#x2044;" horiz-adv-x="134" 
d="M-110 172h-2q-1 -1 -2 -1q-12 0 -24 21q5 25 177 336t177 330q5 8 23 8q23 0 33 -12q-57 -87 -147.5 -249t-162 -297t-72.5 -136z" />
    <glyph glyph-name="Euro" unicode="&#x20ac;" horiz-adv-x="375" 
d="M178 300l18 -2q-10 -25 -27 -25q-3 0 -11 0.5t-13 0.5q-23 0 -58 -5q-2 -46 -2 -69q0 -92 32.5 -134.5t72.5 -44.5q37 -1 63.5 9.5t38 24.5t22 25.5t18.5 11.5q1 0 4 -1t6 -2.5t5 -3t2 -2.5q-41 -63 -74 -80t-95 -17q-55 0 -94.5 58t-39.5 170q0 33 1 49q-43 -7 -47 -6
q-11 2 -7 16q5 17 38 17h19q2 20 4 30q-29 -5 -34 -3h-4.5h-5.5h-5t-3.5 1.5t-0.5 4.5q3 13 7 17.5t14 4.5q25 0 36 1q19 96 48.5 160t84.5 90q38 18 135 2q10 -1 30 -13.5t18 -21.5l-7 -13q-2 1 -18 5t-35 9q-93 22 -150.5 -43t-66.5 -171q35 3 74 6q19 0 22 -2
q14 -11 4 -17q-1 -1 -2 -1q-5 -3 -23 -3q-28 0 -79 -7l-4 -33q76 6 89 7z" />
    <glyph glyph-name="trademark" unicode="&#x2122;" horiz-adv-x="222" 
d="M71 571q3 5 6.5 12.5t6 13t5.5 10.5t5.5 7.5t5.5 2.5q6 0 9.5 -7.5t9 -22t13.5 -25.5q14 2 21.5 26t11.5 24q5 0 17 -30.5t25 -34.5q1 -4 1 -8q0 -11 -13 -11q-12 0 -21.5 16t-11.5 18q-15 -28 -29 -28q-16 0 -30 40q-3 3 -4 3q-11 0 -17 -61q-7 -3 -20 -4q-2 8 -3 24.5
t-1.5 29t-5.5 22.5t-15 10q-5 0 -15 -5q12 -48 12 -86q0 -19 -11 -19q-12 75 -21 98q-8 0 -22 -5t-23 -5q-10 0 -10 11q0 6 2 10q18 0 51 12.5t50 14.5q2 -4 4.5 -6.5t4.5 -4t4 -5t4 -13t4 -24.5z" />
    <glyph glyph-name="minus" unicode="&#x2212;" horiz-adv-x="299" 
d="M71 256l174 2q4 0 4 -7q0 -10 -4 -16q-2 0 -9 0.5t-13 0.5q-35 0 -100 -3.5t-77 -5.5q-2 4 -2 10q0 19 27 19z" />
    <glyph glyph-name="CR" horiz-adv-x="134" 
 />
    </font>
</defs>
</svg>
