<svg xmlns="http://www.w3.org/2000/svg" width="10" height="10" fill="none" viewBox="0 0 10 10">
    <path fill="#fff" fill-rule="evenodd" d="M9.661.43v6.233c-.004.662-.373 1.285-1.001 1.693-.43.274-.96.42-1.502.415-.192 0-.384-.02-.57-.058-.705-.191-1.194-.722-1.232-1.336-.007-.593.46-1.118 1.147-1.287.481-.143 1.002-.17 1.501-.074l.641.116V2.148l-4.34 1.013v4.73c-.004.662-.373 1.286-1.001 1.694-.43.274-.96.42-1.502.415-.192 0-.384-.02-.57-.058C.527 9.75.038 9.219 0 8.605c-.007-.593.46-1.118 1.146-1.286.482-.144 1.003-.17 1.502-.075l.64.116V1.676c-.008-.192.143-.364.366-.415L8.995.015c.154-.035.32-.008.446.074.125.082.196.209.19.342h.03z" clip-rule="evenodd"/>
</svg>
