<svg width="20" height="20" viewBox="0 0 20 20" fill="none" xmlns="http://www.w3.org/2000/svg">
<path fill-rule="evenodd" clip-rule="evenodd" d="M14.7504 4.99235C15.1019 5.34382 15.1019 5.91367 14.7504 6.26515L6.52226 14.4933C6.17079 14.8448 5.60094 14.8448 5.24947 14.4933C4.89799 14.1418 4.89799 13.572 5.24947 13.2205L13.4776 4.99235C13.8291 4.64088 14.3989 4.64088 14.7504 4.99235Z" fill="#161616"/>
<path fill-rule="evenodd" clip-rule="evenodd" d="M5.24959 4.99235C5.60106 4.64088 6.17091 4.64088 6.52238 4.99235L14.7505 13.2205C15.102 13.572 15.102 14.1418 14.7505 14.4933C14.3991 14.8448 13.8292 14.8448 13.4777 14.4933L5.24959 6.26515C4.89812 5.91367 4.89812 5.34382 5.24959 4.99235Z" fill="#161616"/>
</svg>
