<svg xmlns="http://www.w3.org/2000/svg" width="76" height="18" fill="none" viewBox="0 0 76 18">
    <path fill="#fff" fill-rule="evenodd" d="M7.726 13.418V6.156h-.883c-.104 0-.185.01-.242.028-.057.019-.11.075-.156.169l-2.295 4.21c-.05.098-.098.2-.144.306-.045.106-.088.212-.128.32-.037-.108-.078-.213-.124-.315-.045-.103-.093-.203-.143-.3L1.28 6.353c-.047-.094-.1-.15-.156-.17-.058-.017-.138-.027-.243-.027H0v7.262h1.039V8.44c0-.084-.003-.175-.008-.273-.005-.097-.012-.195-.022-.292l2.37 4.322c.087.178.227.267.418.267h.167c.188 0 .327-.09.418-.267l2.335-4.312c-.01.097-.018.194-.023.29-.005.096-.007.184-.007.265v4.977h1.039zm6.454 0l.005-.953h-3.349V10.22h2.673v-.923h-2.673V7.109h3.344v-.953H9.65v7.262h4.529zm9.208-7.262v7.262H22.35V8.441c0-.081.003-.17.008-.265.005-.096.013-.193.023-.29l-2.335 4.312c-.09.178-.23.267-.419.267h-.166c-.192 0-.331-.09-.419-.267l-2.37-4.322c.01.097.018.195.023.292.005.098.008.189.008.273v4.977h-1.04V6.156h.883c.104 0 .185.01.242.028.057.019.11.075.157.169l2.33 4.22c.05.098.098.198.143.3.045.104.087.209.124.316.04-.107.083-.214.128-.32.046-.106.093-.208.144-.305l2.294-4.211c.047-.094.1-.15.157-.17.057-.017.138-.027.242-.027h.882zm5.242 6.236c-.183.062-.408.093-.673.093h-1.463v-2.304h1.458c.504 0 .873.098 1.106.295.234.196.351.466.351.809 0 .168-.026.325-.078.472-.052.146-.136.273-.252.38-.116.108-.266.193-.45.255zm-2.136-3.043v-2.27h1.236c.497 0 .863.09 1.096.268.234.178.351.467.351.867 0 .366-.124.647-.373.842-.249.195-.625.293-1.13.293h-1.18zm2.427-3.059c-.33-.09-.726-.134-1.19-.134h-2.415v7.262h2.662c.414 0 .782-.052 1.105-.156.322-.104.594-.25.814-.437.22-.186.388-.408.505-.665.115-.257.173-.54.173-.85 0-.874-.514-1.42-1.543-1.639.226-.074.42-.166.585-.277.165-.111.302-.236.411-.376.11-.14.19-.289.242-.449.052-.16.078-.325.078-.496 0-.296-.05-.563-.148-.8-.1-.237-.255-.438-.467-.602-.212-.165-.482-.292-.812-.381zm7.715 6.175l-.005.953h-4.529V6.156h4.529v.953h-3.344v2.189h2.673v.923h-2.673v2.244h3.349zm4.292-2.927c-.202.065-.438.098-.706.098h-.928V7.079h.958c.53 0 .928.104 1.19.313.262.208.393.51.393.908 0 .198-.033.379-.1.542-.068.163-.169.303-.303.42-.135.118-.303.21-.504.276zm1.659 3.88h1.054l-1.962-2.768c-.104-.159-.228-.281-.373-.369.266-.074.503-.176.711-.307.208-.131.384-.286.527-.464.143-.178.252-.377.328-.595.075-.219.113-.454.113-.706 0-.31-.053-.59-.159-.842-.106-.253-.27-.468-.491-.649-.222-.18-.505-.318-.85-.415-.345-.098-.756-.147-1.233-.147h-2.138v7.262h1.18v-2.925h.655c.135 0 .236.019.303.056.067.037.13.097.186.181l1.695 2.446c.094.161.245.242.454.242z" clip-rule="evenodd" opacity=".8"/>
    <path fill="#fff" fill-rule="evenodd" d="M46.758 16.127c.097.334.25.634.545.84.627.44.703-.32.701-.726 0-.207.004-.413.019-.62.025-.364.055-.73.143-1.079.213-.851.445-1.698.677-2.544.148-.538.295-1.075.438-1.614.05-.187.136-.247.318-.288.2-.045.4-.088.6-.13.696-.151 1.393-.301 2.067-.52.937-.302 1.833-.724 2.666-1.27.928-.608 1.805-1.268 2.48-2.167 1.148-1.532.887-3.567-.575-4.809-.888-.753-1.97-1.038-3.102-1.15-1.406-.141-2.787.028-4.148.388-1.279.338-2.506.798-3.57 1.61-.894.683-1.54 1.53-1.719 2.675-.06.384.122.86.45 1.034.123.065.322.074.449.02.106-.047.24-.24.22-.336-.145-.651.202-1.1.625-1.507.466-.45.986-.842 1.547-1.167 1.88-1.094 3.917-1.5 6.05-1.44.757.022 1.506.133 2.204.452 1.205.55 1.6 1.46.988 2.695-.32.646-.817 1.15-1.366 1.6-1.348 1.106-2.881 1.87-4.53 2.41-.23.076-.465.135-.714.197-.118.03-.24.06-.366.094l.152-.476c.105-.328.204-.637.294-.948.206-.71.36-1.319.516-1.938.129-.508.26-1.024.422-1.608.048-.175.049-.372.028-.554-.054-.474-.417-.772-.867-.74-.302.023-.379.104-.392.407-.003.071-.022.184-.044.251-.326.998-.614 1.918-.901 2.834-.31.992-.62 1.98-.975 3.058-.011.035-.265.073-.463.103-.117.018-.214.032-.232.042-.217.112-.137.318-.063.51l.014.035c.032.082.09.166.148.253.115.166.234.34.175.512-.43 1.252-.748 2.535-.935 3.848-.084.588-.145 1.179.026 1.763zm22.43-1.171c.864-.038 1.558-1.105 1.266-1.952-.294.132-.975.843-1.267 1.233-.141.188-.22.338-.263.442-.049.117.024.248.149.269.04.006.08.009.116.008zm-8.761-2.663l-.002-.156s-1.745 2.962-3.17 3.311c-.283.07-.757-.122-.974-.453-.913-1.096-.19-3.736-.19-3.736.453-1.432.938-2.854 1.424-4.276l.288-.846c.306-.9.62-1.796.935-2.692l.37-1.054s.23-.775.692-.275c.172.186.273.427.31.677.035.231.056.465 0 .673-.38 1.392-.773 2.782-1.225 4.151-.132.398-.269.793-.405 1.189-.398 1.153-.797 2.306-1.063 3.499 0 0-.485 2.091-.16 2.255.845-.457 2.473-2.88 2.473-2.88.467-.603.898-1.235 1.318-1.872.136-.207.254-.426.372-.645.117-.217.234-.434.37-.639.225-.344.49-.667.768-.972.283-.31.928-.352 1.28-.125.15.098.096.207.04.319l-.01.019c-.098.198-.197.395-.297.593-.226.447-.452.894-.656 1.351-.432.965-.79 1.957-.908 3.018-.006.054-.005.11-.003.164l.002.077.083.028c.05-.072.103-.144.156-.215.113-.155.227-.309.328-.47.308-.492.614-.984.92-1.476.452-.728.904-1.456 1.364-2.18.203-.321.445-.62.693-.91.254-.297.756-.327.976-.012l.008.013c.122.174.277.396.171.69-.617 1.713-1.078 3.469-1.337 5.274-.01.07-.008.143-.005.216.001.034.003.067.003.101l.071.033c.046-.04.094-.08.142-.118.102-.083.204-.165.284-.265.74-.925 1.478-1.853 2.2-2.792.273-.355.526-.725.778-1.096l.218-.318c.047-.07.092-.162.089-.241-.059-1.266.628-2.086 1.619-2.721.422-.27.89-.436 1.387-.497 0 0 1.049-.02 1.382.64.412.673.398 1.203-.078 1.743-.124.142-.303.281-.478.32-.16.034-.355-.05-.52-.12l-.007-.003c-.043-.017-.048-.186-.028-.275.036-.16.078-.318.12-.476.048-.178.096-.357.134-.538.058-.27-.019-.342-.288-.318-.962.083-1.75.813-1.814 1.703-.034.483.147.927.326 1.363l.008.021c.118.286.25.567.38.847.058.123.116.246.172.369.687-.272 2.572-1.306 3.474-2.054.074-.062.183.01.155.103-.177.598-.575 1.107-1.112 1.425l-2.136 1.26c.015.14.033.277.052.413.04.292.078.576.072.86-.028 1.47-1.525 2.713-2.983 2.504-.873-.126-1.24-.909-.754-1.643.7-1.056 1.93-1.99 1.93-1.99l-.806-1.828-.154.244c-.107.172-.214.344-.326.511-.65.974-1.301 1.947-2.14 2.774-.224.221-.463.433-.722.613-.691.483-1.512.226-1.836-.559-.211-.51-.133-1.028-.054-1.544l.016-.113c.023-.15.052-.301.08-.448l.039-.203c-.1.143-.197.287-.294.432-.232.344-.464.688-.72 1.014-.227.291-.511.543-.795.783-.267.226-.642.289-.96.144-.044-.02-.088-.038-.133-.055-.054-.022-.108-.044-.161-.07-.574-.275-.809-.742-.77-1.364.004-.062.003-.123.002-.204z" clip-rule="evenodd"/>
</svg>
