<svg width="12px" height="12px" viewBox="0 0 12 12" version="1.1" xmlns="http://www.w3.org/2000/svg" xmlns:xlink="http://www.w3.org/1999/xlink">
    <path fill="#FFFFFF" d="M10.2426562,1.75734375 C9.10938281,0.624117188 7.60265625,0 6,0 C4.39734375,0 2.89061719,0.624117188 1.75734375,1.75734375 C0.624117188,2.89059375 0,4.39734375 0,6 C0,7.60265625 0.624117188,9.10940625 1.75734375,10.2426562 C2.89061719,11.3758828 4.39734375,12 6,12 C7.60265625,12 9.10938281,11.3758828 10.2426562,10.2426562 C11.3758828,9.10940625 12,7.60265625 12,6 C12,4.39734375 11.3758828,2.89059375 10.2426562,1.75734375 Z M4.86208594,0.82659375 C4.66082813,1.02236719 4.44330469,1.25566406 4.22566406,1.52721094 C3.84930469,1.99682813 3.53592188,2.50228125 3.2908125,3.03382031 L1.613625,3.03382031 C2.36275781,1.9295625 3.51757031,1.12209375 4.86208594,0.82659375 Z M1.21160156,3.73694531 L3.01204688,3.73694531 C2.80713281,4.34903906 2.68792969,4.98928125 2.65680469,5.6484375 L0.715078125,5.6484375 C0.759867187,4.96853906 0.933351562,4.32332812 1.21160156,3.73694531 Z M0.715078125,6.3515625 L2.65680469,6.3515625 C2.68792969,7.01071875 2.80710938,7.65096094 3.01204688,8.26305469 L1.21160156,8.26305469 C0.933351562,7.67667188 0.759867187,7.03146094 0.715078125,6.3515625 Z M1.613625,8.96617969 L3.2908125,8.96617969 C3.53592188,9.49769531 3.84930469,10.0031719 4.22566406,10.4727891 C4.44328125,10.7443359 4.66080469,10.9776328 4.86208594,11.1734063 C3.51757031,10.8779063 2.36275781,10.0704375 1.613625,8.96617969 Z M5.6484375,10.9407656 C5.39805469,10.7248828 5.08673437,10.4228906 4.77433594,10.0330781 C4.501125,9.69215625 4.26714844,9.33616406 4.07221875,8.96617969 L5.6484375,8.96617969 L5.6484375,10.9407656 Z M5.6484375,8.26305469 L3.75510937,8.26305469 C3.52657031,7.65778125 3.39494531,7.01939063 3.36082031,6.3515625 L5.6484375,6.3515625 L5.6484375,8.26305469 Z M5.6484375,5.6484375 L3.36082031,5.6484375 C3.39496875,4.98070312 3.52675781,4.34233594 3.75539062,3.73694531 L5.6484375,3.73694531 L5.6484375,5.6484375 Z M5.6484375,3.03382031 L4.07221875,3.03382031 C4.26314062,2.67142969 4.49160937,2.32246875 4.75760156,1.987875 C5.07398437,1.58992969 5.39266406,1.28071875 5.6484375,1.06021875 L5.6484375,3.03382031 Z M11.2849219,5.6484375 L9.34319531,5.6484375 C9.31207031,4.98928125 9.19289063,4.34903906 8.98795313,3.73694531 L10.7883984,3.73694531 C11.0666484,4.32332812 11.2401563,4.96853906 11.2849219,5.6484375 Z M10.386375,3.03382031 L8.7091875,3.03382031 C8.46407812,2.50230469 8.15069531,1.99682813 7.77433594,1.52721094 C7.55671875,1.25566406 7.33919531,1.02236719 7.13791406,0.82659375 C8.48245313,1.12209375 9.63726562,1.9295625 10.386375,3.03382031 Z M6.3515625,1.05923437 C6.60194531,1.27511719 6.91326563,1.57710938 7.22566406,1.96692187 C7.498875,2.30784375 7.73285156,2.66383594 7.92780469,3.03382031 L6.3515625,3.03382031 L6.3515625,1.05923437 Z M6.3515625,3.73694531 L8.24489063,3.73694531 C8.47345312,4.34221875 8.60505469,4.98060937 8.63917969,5.6484375 L6.3515625,5.6484375 L6.3515625,3.73694531 Z M6.3515625,6.3515625 L8.63915625,6.3515625 C8.60500781,7.01929688 8.47321875,7.65766406 8.24458594,8.26305469 L6.3515625,8.26305469 L6.3515625,6.3515625 Z M6.3515625,10.9397578 L6.3515625,8.96617969 L7.92778125,8.96617969 C7.73685937,9.32857031 7.50839063,9.67753125 7.24239844,10.0121016 C6.92601562,10.4100469 6.60735937,10.7192344 6.3515625,10.9397578 Z M7.1379375,11.1734063 C7.33919531,10.9776328 7.55671875,10.7443359 7.77435938,10.4727891 C8.15071875,10.0031719 8.46410156,9.49771875 8.70921094,8.96617969 L10.3863984,8.96617969 C9.63726563,10.0704375 8.48245313,10.8779063 7.1379375,11.1734063 Z M10.7883984,8.26305469 L8.98795313,8.26305469 C9.19286719,7.65096094 9.31207031,7.01071875 9.34319531,6.3515625 L11.2849219,6.3515625 C11.2401562,7.03146094 11.0666484,7.67667188 10.7883984,8.26305469 Z" id="Shape"></path>
</svg>